/* XPM */
static char * connect_xpm[] = {
"16 16 157 2",
"  	c None",
". 	c #CDCDCD",
"+ 	c #C9C9C9",
"@ 	c #C4C4C4",
"# 	c #C0C0C0",
"$ 	c #BBBBBB",
"% 	c #B6B6B6",
"& 	c #B0B0B0",
"* 	c #ABABAB",
"= 	c #CCCCCC",
"- 	c #DCDCDC",
"; 	c #E3E3E6",
"> 	c #DCDEE1",
", 	c #DCDCDF",
"' 	c #DBDCDF",
") 	c #DBDBDE",
"! 	c #ECECEE",
"~ 	c #A5A5A5",
"{ 	c #CBCBCB",
"] 	c #DFDFDF",
"^ 	c #EAEAEA",
"/ 	c #C9CACF",
"( 	c #C5C6CB",
"_ 	c #C3C4CA",
": 	c #C1C3C8",
"< 	c #C1C1C7",
"[ 	c #D8D9DC",
"} 	c #9E9E9E",
"| 	c #D6D6D6",
"1 	c #D3D3D3",
"2 	c #D0D0D0",
"3 	c #C8C8C8",
"4 	c #C3C3C3",
"5 	c #BFBFBF",
"6 	c #BABABA",
"7 	c #B5B5B5",
"8 	c #AAAAAA",
"9 	c #939394",
"0 	c #919192",
"a 	c #D6D7DB",
"b 	c #989898",
"c 	c #EFEFF1",
"d 	c #DFDFE2",
"e 	c #DEDFE1",
"f 	c #DDDEE1",
"g 	c #DCDDE0",
"h 	c #D9DBDE",
"i 	c #EBECED",
"j 	c #BEBFC5",
"k 	c #BBBDC3",
"l 	c #D5D6DA",
"m 	c #919191",
"n 	c #CECECE",
"o 	c #567BB0",
"p 	c #567BB1",
"q 	c #577CB1",
"r 	c #587DB2",
"s 	c #587EB3",
"t 	c #597FB4",
"u 	c #5A80B5",
"v 	c #4D72A7",
"w 	c #D7D8DC",
"x 	c #8D8D8D",
"y 	c #8A8A8A",
"z 	c #D4D5D9",
"A 	c #8B8B8B",
"B 	c #CACACA",
"C 	c #688EC4",
"D 	c #6A90C6",
"E 	c #6B92C8",
"F 	c #6D94CA",
"G 	c #6F96CC",
"H 	c #7098CE",
"I 	c #D6D6DB",
"J 	c #B9BBC1",
"K 	c #B8B9C0",
"L 	c #D3D3D7",
"M 	c #848484",
"N 	c #C5C5C5",
"O 	c #587DB3",
"P 	c #6B91C7",
"Q 	c #6D93C9",
"R 	c #6E95CB",
"S 	c #7097CD",
"T 	c #7199CF",
"U 	c #739BD1",
"V 	c #A4C8A0",
"W 	c #56A950",
"X 	c #D1D3D7",
"Y 	c #7E7E7E",
"Z 	c #6F97CD",
"` 	c #729BD1",
" .	c #749CD2",
"..	c #759ED4",
"+.	c #D3D4D7",
"@.	c #42A13B",
"#.	c #379437",
"$.	c #D0D1D6",
"%.	c #787878",
"&.	c #8DA9D1",
"*.	c #7F8FA6",
"=.	c #86888B",
"-.	c #7B8087",
";.	c #54719A",
">.	c #C7C9CD",
",.	c #7C7C7C",
"'.	c #888889",
").	c #A1A1A3",
"!.	c #717171",
"~.	c #B4B4B4",
"{.	c #DDDDE0",
"].	c #4C70A4",
"^.	c #4C5D76",
"/.	c #E8E8E8",
"(.	c #DDDDDD",
"_.	c #C1C1C1",
":.	c #7A7F86",
"<.	c #909192",
"[.	c #5B5B5B",
"}.	c #AEAEAE",
"|.	c #E2E2E4",
"1.	c #D5D5D7",
"2.	c #787879",
"3.	c #CED3D3",
"4.	c #767778",
"5.	c #4C4C4D",
"6.	c #656565",
"7.	c #929292",
"8.	c #797979",
"9.	c #4C4C4C",
"0.	c #717173",
"a.	c #727272",
"b.	c #A7A7A7",
"c.	c #A2A2A2",
"d.	c #9C9C9C",
"e.	c #828282",
"f.	c #979797",
"g.	c #424242",
"h.	c #BDBDBD",
"i.	c #C2C2C2",
"j.	c #ADADAD",
"k.	c #464646",
"l.	c #C8C9CE",
"m.	c #818181",
"n.	c #535353",
"o.	c #696969",
"p.	c #747476",
"q.	c #515151",
"r.	c #585858",
"s.	c #676767",
"t.	c #626262",
"u.	c #ADAEAE",
"v.	c #4D4D4D",
"w.	c #505050",
"x.	c #6B6B6B",
"y.	c #646464",
"z.	c #4A4A4A",
"                . + @ # $ % & * ",
"              = - ; > , ' ) ! ~ ",
"            { ] ^ / ( _ : < [ } ",
"| 1 2 = 3 4 5 6 7 & 8 ~ 9 0 a b ",
"1 c d d e f g ' ) h i } j k l m ",
"n d o p q r s t u v w b x y z A ",
"B e q C D E F G H v I m J K L M ",
"N > O P Q R S T U v z A V W X Y ",
"# , t R Z T `  ...v +.M @.#.$.%.",
"6 ) u H &.*.=.} -.;.>.,.} '.).!.",
"~.{.v ].^.m /.(._.:.<.| (.@ m [.",
"}.|.1.).2.3.4.5.6.7.8.6.9.0.@ a.",
"b.c.d.[.e.3.f.g.h.n i.j.k.l.@ m.",
"      n.o.3.p.g.k.q.q.k.g.r.@ s.",
"      m.t.7.u.}.f.!.%.f.}.8 x v.",
"      e.a.w.6.x.x.    x.x.y.z.  "};
