/* XPM */
static char * ready_xpm[] = {
"16 16 154 2",
"  	c None",
". 	c #CDCDCD",
"+ 	c #C9C9C9",
"@ 	c #C4C4C4",
"# 	c #C0C0C0",
"$ 	c #BBBBBB",
"% 	c #B6B6B6",
"& 	c #B0B0B0",
"* 	c #ABABAB",
"= 	c #CCCCCC",
"- 	c #DCDCDC",
"; 	c #E3E3E6",
"> 	c #DCDEE1",
", 	c #DCDCDF",
"' 	c #DBDCDF",
") 	c #DBDBDE",
"! 	c #ECECEE",
"~ 	c #A5A5A5",
"{ 	c #CBCBCB",
"] 	c #DFDFDF",
"^ 	c #EAEAEA",
"/ 	c #C9CACF",
"( 	c #C5C6CB",
"_ 	c #C3C4CA",
": 	c #C1C3C8",
"< 	c #C1C1C7",
"[ 	c #D8D9DC",
"} 	c #9E9E9E",
"| 	c #D6D6D6",
"1 	c #D3D3D3",
"2 	c #D0D0D0",
"3 	c #C8C8C8",
"4 	c #C3C3C3",
"5 	c #BFBFBF",
"6 	c #BABABA",
"7 	c #B5B5B5",
"8 	c #AAAAAA",
"9 	c #939394",
"0 	c #919192",
"a 	c #D6D7DB",
"b 	c #989898",
"c 	c #EFEFF1",
"d 	c #DFDFE2",
"e 	c #DEDFE1",
"f 	c #DDDEE1",
"g 	c #DCDDE0",
"h 	c #D9DBDE",
"i 	c #EBECED",
"j 	c #BEBFC5",
"k 	c #BBBDC3",
"l 	c #D5D6DA",
"m 	c #919191",
"n 	c #CECECE",
"o 	c #567BB0",
"p 	c #567BB1",
"q 	c #577CB1",
"r 	c #587DB2",
"s 	c #587EB3",
"t 	c #597FB4",
"u 	c #5A80B5",
"v 	c #4D72A7",
"w 	c #D7D8DC",
"x 	c #8D8D8D",
"y 	c #8A8A8A",
"z 	c #D4D5D9",
"A 	c #8B8B8B",
"B 	c #CACACA",
"C 	c #688EC4",
"D 	c #6A90C6",
"E 	c #6B92C8",
"F 	c #6D94CA",
"G 	c #6F96CC",
"H 	c #7098CE",
"I 	c #D6D6DB",
"J 	c #B9BBC1",
"K 	c #B8B9C0",
"L 	c #D3D3D7",
"M 	c #848484",
"N 	c #C5C5C5",
"O 	c #587DB3",
"P 	c #6B91C7",
"Q 	c #6D93C9",
"R 	c #6E95CB",
"S 	c #7097CD",
"T 	c #7199CF",
"U 	c #739BD1",
"V 	c #A4C8A0",
"W 	c #56A950",
"X 	c #D1D3D7",
"Y 	c #7E7E7E",
"Z 	c #6F97CD",
"` 	c #729BD1",
" .	c #749CD2",
"..	c #759ED4",
"+.	c #D3D4D7",
"@.	c #42A13B",
"#.	c #379437",
"$.	c #D0D1D6",
"%.	c #787878",
"&.	c #91AED8",
"*.	c #91AFD9",
"=.	c #91AFDA",
"-.	c #77A0D6",
";.	c #B3B4BB",
">.	c #B1B3BB",
",.	c #CFD0D4",
"'.	c #737373",
").	c #B4B4B4",
"!.	c #DDDDE0",
"~.	c #D4D5DA",
"{.	c #B1B2BA",
"].	c #AFB1B9",
"^.	c #CECFD4",
"/.	c #6D6D6D",
"(.	c #AEAEAE",
"_.	c #E2E2E4",
":.	c #D5D5D7",
"<.	c #D2D3D5",
"[.	c #CDCED1",
"}.	c #C2C3C8",
"|.	c #C8C9CD",
"1.	c #CACACC",
"2.	c #C9CACC",
"3.	c #D6D6D8",
"4.	c #737374",
"5.	c #AEB1B9",
"6.	c #AEAFB7",
"7.	c #CDCED3",
"8.	c #686868",
"9.	c #A7A7A7",
"0.	c #A2A2A2",
"a.	c #9C9C9C",
"b.	c #979797",
"c.	c #9A9A9A",
"d.	c #828282",
"e.	c #868787",
"f.	c #858687",
"g.	c #9FA0A2",
"h.	c #E5E5E8",
"i.	c #646464",
"j.	c #C1C2C4",
"k.	c #7B7B7B",
"l.	c #797979",
"m.	c #747474",
"n.	c #707070",
"o.	c #6B6B6B",
"p.	c #676767",
"q.	c #636363",
"r.	c #606060",
"s.	c #929292",
"t.	c #D3D3D5",
"u.	c #DFE0E2",
"v.	c #DFDFE1",
"w.	c #838383",
"                . + @ # $ % & * ",
"              = - ; > , ' ) ! ~ ",
"            { ] ^ / ( _ : < [ } ",
"| 1 2 = 3 4 5 6 7 & 8 ~ 9 0 a b ",
"1 c d d e f g ' ) h i } j k l m ",
"n d o p q r s t u v w b x y z A ",
"B e q C D E F G H v I m J K L M ",
"N > O P Q R S T U v z A V W X Y ",
"# , t R Z T `  ...v +.M @.#.$.%.",
"6 ) u H &.*.*.=.-.v X Y ;.>.,.'.",
").!.v v v v v v v v ~.%.{.].^./.",
"(._.:.<.[._ }.|.1.2.3.4.5.6.7.8.",
"9.0.a.b.m } c.d.M e.f.g.7.7.h.i.",
"        A j.^.k.%.l.m.n.o.p.q.r.",
"      s.t.u.' v.n.              ",
"      w.Y l.m.n.o.              "};
