/* XPM */
static char * app_xpm[] = {
"16 16 94 2",
"  	c None",
". 	c #C28B64",
"+ 	c #BE7849",
"@ 	c #BA6128",
"# 	c #CCCCCC",
"$ 	c #CAC7C4",
"% 	c #CDC7C1",
"& 	c #B85F27",
"* 	c #FCFCFC",
"= 	c #B98767",
"- 	c #C59A67",
"; 	c #B85E27",
"> 	c #F7F7F7",
", 	c #F5F5F5",
"' 	c #F4F4F4",
") 	c #F2F2F2",
"! 	c #FBFBFB",
"~ 	c #CDC7C0",
"{ 	c #B75B26",
"] 	c #F3F3F3",
"^ 	c #FAFAFA",
"/ 	c #B78367",
"( 	c #C49966",
"_ 	c #B75926",
": 	c #F8F8F8",
"< 	c #7AA5E1",
"[ 	c #78A3E1",
"} 	c #77A3E1",
"| 	c #76A2E0",
"1 	c #76A0E0",
"2 	c #74A0E0",
"3 	c #CAC6C4",
"4 	c #B55626",
"5 	c #F9F9F9",
"6 	c #A3C0EA",
"7 	c #A2C0EA",
"8 	c #A1BFEA",
"9 	c #A0BEEA",
"0 	c #719EDF",
"a 	c #B58266",
"b 	c #C39665",
"c 	c #B45525",
"d 	c #739EDF",
"e 	c #729CDC",
"f 	c #6F9BDC",
"g 	c #F6F6F6",
"h 	c #B25225",
"i 	c #F0F0F0",
"j 	c #EEEEEE",
"k 	c #B57F65",
"l 	c #C29464",
"m 	c #B25124",
"n 	c #739FE0",
"o 	c #719DDD",
"p 	c #6E9ADC",
"q 	c #6B99DA",
"r 	c #6A98D9",
"s 	c #6A93D4",
"t 	c #EAEAEA",
"u 	c #ECECEC",
"v 	c #CDC6C0",
"w 	c #B14E23",
"x 	c #D1D1D1",
"y 	c #B37C64",
"z 	c #C19263",
"A 	c #AF4B23",
"B 	c #C9C9C9",
"C 	c #E8E8E8",
"D 	c #CCC6C0",
"E 	c #AE4922",
"F 	c #F1F1F1",
"G 	c #CACACA",
"H 	c #E6E6E6",
"I 	c #B37963",
"J 	c #BF8F61",
"K 	c #AE4622",
"L 	c #AC4321",
"M 	c #FDFDFD",
"N 	c #EDEDED",
"O 	c #D5D5D5",
"P 	c #E9E9E9",
"Q 	c #FFFFFF",
"R 	c #A54B2C",
"S 	c #AF5D35",
"T 	c #AB4221",
"U 	c #DCDCDC",
"V 	c #D8D8D8",
"W 	c #D4D4D4",
"X 	c #D2D2D2",
"Y 	c #D3D3D3",
"Z 	c #CBCBCB",
"` 	c #CDCDCD",
" .	c #C7C7C7",
"..	c #7E3118",
"    . + @                       ",
"  # $ % & * * * * * * * * * *   ",
"    = - ; > > > > , ' ' ' ) !   ",
"  # $ ~ { > > > > > , , , ] ^   ",
"    / ( _ : : < [ } | 1 2 ' ^   ",
"  # 3 ~ 4 5 5 [ 6 7 8 9 0 ' >   ",
"    a b c ^ ^ | 1 2 d e f ) g   ",
"  # 3 ~ h ! ^ : : : > ] ) i j   ",
"    k l m ^ : n o p q r s t u   ",
"  # 3 v w ^ 5 : > g ^ ^ ^ ) x   ",
"    y z A 5 5 5 g ] ^ ^ ) B C   ",
"  # 3 D E ^ ^ : ' F ! ) G H *   ",
"    I J K ^ ^ g ] j ] G H ! *   ",
"  # 3 D L M ! : ' N O P Q Q Q   ",
"    R S T U V W X x Y x Z `  .  ",
"      ..                        "};
