/* XPM */
static char * appl_xpm[] = {
"32 32 313 2",
"  	c None",
". 	c #04E709",
"+ 	c #03E609",
"@ 	c #04E809",
"# 	c #03EB08",
"$ 	c #02EF06",
"% 	c #01F504",
"& 	c #00F702",
"* 	c #02F006",
"= 	c #03EC08",
"- 	c #05E809",
"; 	c #02EB06",
"> 	c #02EC06",
", 	c #03ED07",
"' 	c #02EE06",
") 	c #02EF05",
"! 	c #01F404",
"~ 	c #01F703",
"{ 	c #00F902",
"] 	c #00F901",
"^ 	c #01F702",
"/ 	c #02F005",
"( 	c #03EE07",
"_ 	c #02F305",
": 	c #01F503",
"< 	c #01F603",
"[ 	c #00F802",
"} 	c #00FB01",
"| 	c #00FC00",
"1 	c #00F305",
"2 	c #00F004",
"3 	c #02F105",
"4 	c #00F803",
"5 	c #00FA01",
"6 	c #00FC01",
"7 	c #00FD00",
"8 	c #00FE00",
"9 	c #00F801",
"0 	c #00F503",
"a 	c #00FF00",
"b 	c #00FB00",
"c 	c #01F403",
"d 	c #02F103",
"e 	c #01FB01",
"f 	c #00F603",
"g 	c #00F103",
"h 	c #00F204",
"i 	c #02F802",
"j 	c #04F502",
"k 	c #05F303",
"l 	c #05F203",
"m 	c #04F603",
"n 	c #02ED06",
"o 	c #02F702",
"p 	c #05F104",
"q 	c #09EA05",
"r 	c #0EE407",
"s 	c #11DF08",
"t 	c #12DE09",
"u 	c #11E009",
"v 	c #0EE408",
"w 	c #09EB06",
"x 	c #02ED04",
"y 	c #02E907",
"z 	c #01FA01",
"A 	c #03F503",
"B 	c #08EC06",
"C 	c #10DF09",
"D 	c #1AD10B",
"E 	c #24C40D",
"F 	c #2BBC0E",
"G 	c #2DBA0F",
"H 	c #2BBD10",
"I 	c #23C60F",
"J 	c #19D20C",
"K 	c #0FDF09",
"L 	c #08EC05",
"M 	c #01F303",
"N 	c #02EE05",
"O 	c #09EA07",
"P 	c #13D80B",
"Q 	c #23C20F",
"R 	c #37AB11",
"S 	c #499712",
"T 	c #558B13",
"U 	c #598814",
"V 	c #548D15",
"W 	c #479A14",
"X 	c #36AD12",
"Y 	c #23C30F",
"Z 	c #13D80A",
"` 	c #09E906",
" .	c #01F402",
"..	c #03EE05",
"+.	c #04E909",
"@.	c #26BD11",
"#.	c #419D14",
"$.	c #5E7F15",
"%.	c #776614",
"&.	c #885813",
"*.	c #8C5414",
"=.	c #865A15",
"-.	c #756916",
";.	c #5C8016",
">.	c #409E13",
",.	c #26BD0F",
"'.	c #14D80A",
").	c #22C20F",
"!.	c #3F9D15",
"~.	c #637717",
"{.	c #875516",
"].	c #A43D12",
"^.	c #B62F10",
"/.	c #BB2B10",
"(.	c #B43112",
"_.	c #A23F13",
":.	c #875614",
"<.	c #647714",
"[.	c #419D12",
"}.	c #24C20D",
"|.	c #10DF08",
"1.	c #06F104",
"2.	c #09EA06",
"3.	c #19D10C",
"4.	c #34AB12",
"5.	c #5A7F17",
"6.	c #845517",
"7.	c #AA3514",
"8.	c #C62010",
"9.	c #D5150D",
"0.	c #DA120B",
"a.	c #D6160C",
"b.	c #C7210E",
"c.	c #AE3510",
"d.	c #895512",
"e.	c #5F7E12",
"f.	c #37AA0F",
"g.	c #1AD00A",
"h.	c #0AEA05",
"i.	c #03F702",
"j.	c #01F604",
"k.	c #01F803",
"l.	c #04F503",
"m.	c #0DE407",
"n.	c #22C40D",
"o.	c #459813",
"p.	c #726716",
"q.	c #9F3D15",
"r.	c #C22012",
"s.	c #DA100E",
"t.	c #E6080A",
"u.	c #EB0608",
"v.	c #EA0807",
"w.	c #E00F08",
"x.	c #CB1F0B",
"y.	c #A73C0E",
"z.	c #796510",
"A.	c #4A960F",
"B.	c #24C30B",
"C.	c #0EE306",
"D.	c #04F402",
"E.	c #01FC00",
"F.	c #00F703",
"G.	c #29BB0E",
"H.	c #528B13",
"I.	c #835815",
"J.	c #B02F13",
"K.	c #D1160F",
"L.	c #E4090C",
"M.	c #EE0309",
"N.	c #F30206",
"O.	c #F30305",
"P.	c #ED0805",
"Q.	c #DB1407",
"R.	c #BA2E0B",
"S.	c #8A560F",
"T.	c #56890F",
"U.	c #2CBA0C",
"V.	c #11DE07",
"W.	c #12DE08",
"X.	c #2CB90E",
"Y.	c #578713",
"Z.	c #8A5313",
"`.	c #B82B10",
" +	c #D7120D",
".+	c #E90609",
"++	c #F20207",
"@+	c #F60104",
"#+	c #F70203",
"$+	c #F10603",
"%+	c #E11106",
"&+	c #C0290A",
"*+	c #90520F",
"=+	c #5A8510",
"-+	c #2EB70D",
";+	c #12DD07",
">+	c #2ABC0E",
",+	c #538B13",
"'+	c #855813",
")+	c #B42F10",
"!+	c #D5150C",
"~+	c #E90808",
"{+	c #F60103",
"]+	c #F60203",
"^+	c #EE0804",
"/+	c #DC1407",
"(+	c #BA2E0C",
"_+	c #8A5710",
":+	c #568A10",
"<+	c #2BBB0D",
"[+	c #11DF07",
"}+	c #01FC01",
"|+	c #01F802",
"1+	c #23C40D",
"2+	c #489712",
"3+	c #766613",
"4+	c #A53B10",
"5+	c #CA1E0C",
"6+	c #E10E07",
"7+	c #ED0704",
"8+	c #F10503",
"9+	c #EE0704",
"0+	c #E30F06",
"a+	c #CB1F0A",
"b+	c #A73C0F",
"c+	c #786612",
"d+	c #499711",
"e+	c #24C40C",
"f+	c #02EB08",
"g+	c #0AEA06",
"h+	c #1AD00B",
"i+	c #37AA10",
"j+	c #607C12",
"k+	c #8B5211",
"l+	c #B2320E",
"m+	c #CD1E0A",
"n+	c #DC1307",
"o+	c #B0330F",
"p+	c #895412",
"q+	c #5E7E13",
"r+	c #37AB10",
"s+	c #03F802",
"t+	c #11DE08",
"u+	c #25C00D",
"v+	c #459A10",
"w+	c #6A7211",
"x+	c #8E5110",
"y+	c #AB3A0D",
"z+	c #BB2C0B",
"A+	c #B92D0C",
"B+	c #A73B0F",
"C+	c #657514",
"D+	c #409C13",
"E+	c #23C20E",
"F+	c #05F204",
"G+	c #01EF07",
"H+	c #03F602",
"I+	c #09EB05",
"J+	c #16D609",
"K+	c #2BBA0D",
"L+	c #46990F",
"M+	c #647B10",
"N+	c #7C640F",
"O+	c #8B550E",
"P+	c #90510E",
"Q+	c #89560F",
"R+	c #776511",
"S+	c #409C12",
"T+	c #26BC0F",
"U+	c #08EB06",
"V+	c #01EE07",
"W+	c #02E909",
"X+	c #0AE805",
"Y+	c #27C00C",
"Z+	c #3AA90E",
"`+	c #4B950F",
" @	c #57880F",
".@	c #5A840F",
"+@	c #558910",
"@@	c #489610",
"#@	c #36AA10",
"$@	c #23C10E",
"%@	c #13D70A",
"&@	c #02F303",
"*@	c #00F903",
"=@	c #1BD00A",
"-@	c #25C30B",
";@	c #2BBA0C",
">@	c #2DB70C",
",@	c #2ABA0C",
"'@	c #23C30C",
")@	c #19D00B",
"!@	c #0FDF08",
"~@	c #07EB05",
"{@	c #00F303",
"]@	c #02F204",
"^@	c #06F103",
"/@	c #12DC07",
"(@	c #10DE07",
"_@	c #0DE406",
":@	c #01F901",
"<@	c #02F801",
"[@	c #03F402",
"}@	c #04F202",
"|@	c #05F103",
"1@	c #04F203",
"2@	c #01F902",
"3@	c #00FA00",
"4@	c #03F205",
"5@	c #02F205",
"6@	c #02F004",
"7@	c #02EC05",
"8@	c #04E707",
"                  . + @ # $ % & & % * = - @ .                   ",
"                ; > , ' ) ! ~ { ] ^ ! / $ ( > ;                 ",
"              * _ ! ! : < [ } | | } [ < : ! ! 1 2               ",
"            3 : 4 [ 5 5 } 6 7 8 8 7 6 } 5 5 9 4 0 3             ",
"          3 < { } | 7 7 7 8 8 7 7 8 8 7 7 7 | 6 ] < 3           ",
"        3 < { 6 7 8 8 a 8 8 a 8 8 a 8 8 8 8 8 7 b ] c d         ",
"      _ < ] } 7 8 8 8 8 8 7 b b e } | 7 8 8 8 8 7 b ] f g       ",
"    h 0 [ } 7 8 8 8 8 | e i j k l k m i e | 7 8 8 7 6 9 0 2     ",
"  n 1 4 } 7 8 a 8 8 e o p q r s t u v w p o e 7 8 8 7 } 9 g x   ",
"y ' ! ] | 8 8 8 8 z A B C D E F G H I J K L A e 7 8 8 b ] M N y ",
"+ ( ! 5 7 8 8 8 e A O P Q R S T U V W X Y Z ` A e 7 8 7 5  ...+ ",
"+.$ : } 7 a a 7 o B P @.#.$.%.&.*.=.-.;.>.,.'.L i 7 8 7 } : ' +.",
"# / ~ } 8 8 8 z p K ).!.~.{.].^./.(._.:.<.[.}.|.1.e 7 7 } ~ / # ",
"$ ! [ 6 8 a | o 2.3.4.5.6.7.8.9.0.a.b.c.d.e.f.g.h.i.7 8 6 [ ! ) ",
"j.k.} 7 a a 6 l.m.n.o.p.q.r.s.t.u.v.w.x.y.z.A.B.C.D.E.8 7 } k.% ",
"F.{ 6 8 a 8 e k |.G.H.I.J.K.L.M.N.O.P.Q.R.S.T.U.V.k e 8 8 6 { F.",
"F.{ 6 8 a 8 e l W.X.Y.Z.`. +.+++@+#+$+%+&+*+=+-+;+l e 8 8 6 { F.",
"j.4 } 7 a a e k s >+,+'+)+!+~+O.{+]+^+/+(+_+:+<+[+k }+8 7 } 4 % ",
"$ ! |+6 8 a }+l.r 1+2+3+4+5+6+7+8+9+0+a+b+c+d+e+r l.}+7 6 [ ! $ ",
"f+/ ~ } 7 8 7 i.g+h+i+j+k+l+m+n+%+Q.a+o+p+q+r+D g+s+7 7 } ~ / f+",
"@ ' : } 7 a 8 e 1.t+u+v+w+x+y+z+&+A+B+p+C+D+E+|.F+e 8 7 } : ' @ ",
"+ G+j.5 7 8 8 7 H+I+J+K+L+M+N+O+P+Q+R+q+S+T+Z U+i 6 8 7 5 ! V++ ",
"W+' ! 5 | 8 8 8 e D.X+J+Y+Z+`+ @.@+@@@#@$@%@` A e 7 8 | ] ! ' W+",
"  $ &@*@} 7 8 8 7 e D.q V.=@-@;@>@,@'@)@!@~@A z 7 7 7 } 4 {@n   ",
"    ]@: ] 6 7 8 8 7 e i.^@h.C.V./@(@_@I+F+o e 7 8 7 6 { : ]@    ",
"      _ < :@6 7 8 8 7 | z <@[@}@|@1@j i z | 7 7 7 6 2@< _       ",
"        3 j.{ 6 7 8 8 8 7 7 | b 3@b | | 7 7 8 7 6 { j.3         ",
"          4@j.{ } | 7 7 7 7 8 7 7 8 7 7 7 7 | } { j.5@          ",
"            &@: 9 9 5 5 } 6 7 7 7 7 | } 5 5 9 4 : 3             ",
"              6@&@c ! : < [ } 6 | } |+~ < j.! &@6@              ",
"                ; 7@, $ / ! ^ 5 5 ^ ! / $ ( ' n                 ",
"                  8@+ @ # * % & & % $ = @ @ +.                  "};
