/* XPM */
static char * appl_xpm[] = {
"32 32 672 2",
"  	c None",
". 	c #1C5541",
"+ 	c #287158",
"@ 	c #1B624B",
"# 	c #0D5B47",
"$ 	c #0F6856",
"% 	c #046355",
"& 	c #095646",
"* 	c #24775B",
"= 	c #246D50",
"- 	c #226341",
"; 	c #0F5642",
"> 	c #07695A",
", 	c #056050",
"' 	c #145B4F",
") 	c #094D41",
"! 	c #07624F",
"~ 	c #127365",
"{ 	c #0F6355",
"] 	c #0E6555",
"^ 	c #1E7A6B",
"/ 	c #1E7F6F",
"( 	c #045C4D",
"_ 	c #147462",
": 	c #185B3E",
"< 	c #276D4B",
"[ 	c #04584B",
"} 	c #0B6B5B",
"| 	c #086B5C",
"1 	c #066152",
"2 	c #0A6453",
"3 	c #0E6757",
"4 	c #1F7D70",
"5 	c #136C5D",
"6 	c #034C3E",
"7 	c #1A7565",
"8 	c #0F6A5E",
"9 	c #0E7061",
"0 	c #035E4F",
"a 	c #0F7563",
"b 	c #025648",
"c 	c #025A4A",
"d 	c #1C6747",
"e 	c #155F45",
"f 	c #0D6E5C",
"g 	c #065649",
"h 	c #0D6355",
"i 	c #055D51",
"j 	c #035B4E",
"k 	c #035B4D",
"l 	c #197567",
"m 	c #0A695A",
"n 	c #034A3C",
"o 	c #12695A",
"p 	c #0B6D5D",
"q 	c #107466",
"r 	c #05685A",
"s 	c #046655",
"t 	c #086859",
"u 	c #025244",
"v 	c #045E4C",
"w 	c #066659",
"x 	c #106749",
"y 	c #2B623F",
"z 	c #10624D",
"A 	c #197263",
"B 	c #045549",
"C 	c #086051",
"D 	c #055D4E",
"E 	c #086453",
"F 	c #036454",
"G 	c #056659",
"H 	c #046455",
"I 	c #0A6153",
"J 	c #085748",
"K 	c #0C6557",
"L 	c #0A6053",
"M 	c #045F4E",
"N 	c #025546",
"O 	c #075D4E",
"P 	c #024C3E",
"Q 	c #045543",
"R 	c #096859",
"S 	c #167B6C",
"T 	c #0E604C",
"U 	c #29603A",
"V 	c #177663",
"W 	c #04604F",
"X 	c #0C6D5C",
"Y 	c #05584B",
"Z 	c #147564",
"` 	c #085E4F",
" .	c #025444",
"..	c #106D5C",
"+.	c #076556",
"@.	c #035A4D",
"#.	c #127363",
"$.	c #146B5D",
"%.	c #093E2F",
"&.	c #025548",
"*.	c #0F6E5C",
"=.	c #065D4E",
"-.	c #004D3E",
";.	c #146A5C",
">.	c #0D695B",
",.	c #096557",
"'.	c #045F4F",
").	c #035A4B",
"!.	c #085C4D",
"~.	c #116A56",
"{.	c #1C7459",
"].	c #0C6152",
"^.	c #015748",
"/.	c #06594C",
"(.	c #035B4C",
"_.	c #035D4D",
":.	c #065E50",
"<.	c #045B4E",
"[.	c #0A6352",
"}.	c #034B3E",
"|.	c #036552",
"1.	c #0F7262",
"2.	c #0D5747",
"3.	c #065745",
"4.	c #147667",
"5.	c #0F5C4B",
"6.	c #0A6254",
"7.	c #126B5B",
"8.	c #0D6050",
"9.	c #0E6253",
"0.	c #025E4E",
"a.	c #106C5F",
"b.	c #137566",
"c.	c #0A6758",
"d.	c #02594B",
"e.	c #106348",
"f.	c #196043",
"g.	c #145F4F",
"h.	c #033F31",
"i.	c #045B4A",
"j.	c #065A4B",
"k.	c #09594B",
"l.	c #096656",
"m.	c #055345",
"n.	c #046351",
"o.	c #056054",
"p.	c #0C7163",
"q.	c #0D7262",
"r.	c #065746",
"s.	c #27806F",
"t.	c #0A554A",
"u.	c #0D614F",
"v.	c #116E62",
"w.	c #086052",
"x.	c #0D6453",
"y.	c #0B6453",
"z.	c #0F695B",
"A.	c #117566",
"B.	c #0F6855",
"C.	c #063F36",
"D.	c #035647",
"E.	c #036251",
"F.	c #1A603F",
"G.	c #0A6755",
"H.	c #034136",
"I.	c #03614F",
"J.	c #0E6D5D",
"K.	c #0C6052",
"L.	c #0B6052",
"M.	c #157565",
"N.	c #056859",
"O.	c #086856",
"P.	c #0C6254",
"Q.	c #046253",
"R.	c #187669",
"S.	c #258879",
"T.	c #045445",
"U.	c #0C5346",
"V.	c #064E41",
"W.	c #187E6B",
"X.	c #056351",
"Y.	c #0B6355",
"Z.	c #0D695C",
"`.	c #137467",
" +	c #127768",
".+	c #034635",
"++	c #065243",
"@+	c #036754",
"#+	c #19796C",
"$+	c #339688",
"%+	c #17614C",
"&+	c #025C4B",
"*+	c #046556",
"=+	c #026152",
"-+	c #1C7B6C",
";+	c #0D6A5A",
">+	c #18796B",
",+	c #096B5E",
"'+	c #025E4F",
")+	c #096152",
"!+	c #096958",
"~+	c #1B816F",
"{+	c #136256",
"]+	c #013D32",
"^+	c #055F4E",
"/+	c #147A6A",
"(+	c #137263",
"_+	c #015A4A",
":+	c #126E5F",
"<+	c #0B6457",
"[+	c #258779",
"}+	c #17725F",
"|+	c #094739",
"1+	c #054B3D",
"2+	c #02584A",
"3+	c #086B5D",
"4+	c #1D8272",
"5+	c #116C5D",
"6+	c #195531",
"7+	c #0A6F5C",
"8+	c #0D675A",
"9+	c #0D6A5B",
"0+	c #0D6858",
"a+	c #107260",
"b+	c #1A7465",
"c+	c #126D5F",
"d+	c #076959",
"e+	c #096B5D",
"f+	c #065548",
"g+	c #0C6959",
"h+	c #066A59",
"i+	c #0E6559",
"j+	c #035445",
"k+	c #117567",
"l+	c #28897C",
"m+	c #075F50",
"n+	c #1C7467",
"o+	c #055D4D",
"p+	c #0E6E5F",
"q+	c #116F61",
"r+	c #065C4C",
"s+	c #065040",
"t+	c #0D6C59",
"u+	c #0C695A",
"v+	c #127668",
"w+	c #136F60",
"x+	c #084D41",
"y+	c #085344",
"z+	c #2C6446",
"A+	c #187B69",
"B+	c #0D6757",
"C+	c #0A6958",
"D+	c #0E695A",
"E+	c #176F5F",
"F+	c #0E6F60",
"G+	c #15796C",
"H+	c #056456",
"I+	c #076455",
"J+	c #015041",
"K+	c #085D4E",
"L+	c #1B7E6E",
"M+	c #05615D",
"N+	c #FF0000",
"O+	c #18746B",
"P+	c #025849",
"Q+	c #18796A",
"R+	c #095E52",
"S+	c #1B7363",
"T+	c #054E3F",
"U+	c #197B6D",
"V+	c #08685A",
"W+	c #137567",
"X+	c #117464",
"Y+	c #0A6959",
"Z+	c #177B6D",
"`+	c #2A6749",
" @	c #1B6545",
".@	c #0A6A5B",
"+@	c #054B3F",
"@@	c #0C6C5C",
"#@	c #117263",
"$@	c #0D5F4E",
"%@	c #02594A",
"&@	c #045849",
"*@	c #004D40",
"=@	c #15705F",
"-@	c #0C596A",
";@	c #BB0536",
">@	c #9C1C33",
",@	c #045747",
"'@	c #0C6355",
")@	c #0E675B",
"!@	c #106E5E",
"~@	c #035948",
"{@	c #146E61",
"]@	c #035343",
"^@	c #11594A",
"/@	c #024E41",
"(@	c #0C685A",
"_@	c #106D5D",
":@	c #104D2F",
"<@	c #20785D",
"[@	c #187B6A",
"}@	c #08574C",
"|@	c #1C8474",
"1@	c #0F6E60",
"2@	c #095B4B",
"3@	c #09695A",
"4@	c #03594B",
"5@	c #065345",
"6@	c #0B5B4D",
"7@	c #0A6759",
"8@	c #035A59",
"9@	c #0B6B61",
"0@	c #106E5F",
"a@	c #0F6758",
"b@	c #034133",
"c@	c #055748",
"d@	c #0C6354",
"e@	c #066655",
"f@	c #1D7565",
"g@	c #165A43",
"h@	c #166B59",
"i@	c #044A39",
"j@	c #0D6C60",
"k@	c #035B4A",
"l@	c #096253",
"m@	c #107163",
"n@	c #055949",
"o@	c #0E6457",
"p@	c #01584A",
"q@	c #7A1F5B",
"r@	c #0E5F51",
"s@	c #086151",
"t@	c #075B4C",
"u@	c #096456",
"v@	c #228876",
"w@	c #0C5D4F",
"x@	c #10584C",
"y@	c #17695B",
"z@	c #117261",
"A@	c #177365",
"B@	c #066855",
"C@	c #0A5E50",
"D@	c #025B4D",
"E@	c #0C6D5D",
"F@	c #0F6F60",
"G@	c #095D4F",
"H@	c #0C6353",
"I@	c #0C5C4E",
"J@	c #0A6353",
"K@	c #096351",
"L@	c #990851",
"M@	c #BB033D",
"N@	c #05473B",
"O@	c #086152",
"P@	c #0D6C5D",
"Q@	c #0C6657",
"R@	c #1C7866",
"S@	c #054339",
"T@	c #045C4C",
"U@	c #0F695C",
"V@	c #025344",
"W@	c #075D4D",
"X@	c #0E7062",
"Y@	c #0E7364",
"Z@	c #268777",
"`@	c #076052",
" #	c #055F50",
".#	c #096757",
"+#	c #1E7D6D",
"@#	c #055848",
"##	c #095A4C",
"$#	c #0A6355",
"%#	c #0F6F5F",
"&#	c #0E7161",
"*#	c #187A6C",
"=#	c #0F6655",
"-#	c #0C594A",
";#	c #0D6454",
">#	c #076A59",
",#	c #218275",
"'#	c #04564A",
")#	c #187761",
"!#	c #1A7B6B",
"~#	c #0F6556",
"{#	c #096554",
"]#	c #065C4D",
"^#	c #065242",
"/#	c #055A4B",
"(#	c #0B685A",
"_#	c #0D6154",
":#	c #065B4B",
"<#	c #0D7261",
"[#	c #095A4B",
"}#	c #03463A",
"|#	c #147262",
"1#	c #034C3F",
"2#	c #076051",
"3#	c #127262",
"4#	c #187566",
"5#	c #024535",
"6#	c #0B6353",
"7#	c #2B8569",
"8#	c #096E5F",
"9#	c #136F61",
"0#	c #045243",
"a#	c #045446",
"b#	c #1E7E6F",
"c#	c #208374",
"d#	c #0A6557",
"e#	c #0E6556",
"f#	c #147767",
"g#	c #792040",
"h#	c #DE0A13",
"i#	c #0B705D",
"j#	c #1F7F70",
"k#	c #137768",
"l#	c #056152",
"m#	c #045E4F",
"n#	c #086858",
"o#	c #076252",
"p#	c #034C3D",
"q#	c #13604C",
"r#	c #1A5A39",
"s#	c #056151",
"t#	c #056254",
"u#	c #045748",
"v#	c #0B5C4C",
"w#	c #106B5D",
"x#	c #0E7060",
"y#	c #096B5B",
"z#	c #066355",
"A#	c #0E6F61",
"B#	c #046658",
"C#	c #025756",
"D#	c #0C6760",
"E#	c #107063",
"F#	c #0E7163",
"G#	c #0F7162",
"H#	c #095F50",
"I#	c #005143",
"J#	c #096C5D",
"K#	c #09685B",
"L#	c #066657",
"M#	c #185D49",
"N#	c #2A6540",
"O#	c #045F4D",
"P#	c #034D3D",
"Q#	c #044136",
"R#	c #0C5D4C",
"S#	c #0E6858",
"T#	c #085B4E",
"U#	c #015948",
"V#	c #055344",
"W#	c #025848",
"X#	c #9B1F25",
"Y#	c #DE0B13",
"Z#	c #004D62",
"`#	c #046151",
" $	c #025F4F",
".$	c #066050",
"+$	c #03493A",
"@$	c #045547",
"#$	c #0C7162",
"$$	c #0F6959",
"%$	c #076C5B",
"&$	c #1E5645",
"*$	c #086355",
"=$	c #035F51",
"-$	c #1B7F6D",
";$	c #1C7F6D",
">$	c #0B6050",
",$	c #085B4F",
"'$	c #046050",
")$	c #045B4D",
"!$	c #045A4B",
"~$	c #075C4D",
"{$	c #0A625F",
"]$	c #0A615E",
"^$	c #0C705D",
"/$	c #096756",
"($	c #045647",
"_$	c #04473A",
":$	c #0D5E50",
"<$	c #046554",
"[$	c #0B6D5E",
"}$	c #116A5D",
"|$	c #106759",
"1$	c #055142",
"2$	c #1C6A45",
"3$	c #107768",
"4$	c #1C7E6F",
"5$	c #06594A",
"6$	c #045C4E",
"7$	c #096858",
"8$	c #096959",
"9$	c #076756",
"0$	c #0D6E60",
"a$	c #177D6E",
"b$	c #147568",
"c$	c #044C3B",
"d$	c #075B4D",
"e$	c #015F51",
"f$	c #066A5A",
"g$	c #0A5E4F",
"h$	c #0B705C",
"i$	c #08594D",
"j$	c #044F43",
"k$	c #066554",
"l$	c #0A6D5E",
"m$	c #0A6156",
"n$	c #066455",
"o$	c #127462",
"p$	c #0C584B",
"q$	c #1C654C",
"r$	c #076356",
"s$	c #086255",
"t$	c #157260",
"u$	c #05584C",
"v$	c #107767",
"w$	c #127366",
"x$	c #137767",
"y$	c #0D6051",
"z$	c #0F6B5A",
"A$	c #197A69",
"B$	c #045545",
"C$	c #025647",
"D$	c #026656",
"E$	c #056A5A",
"F$	c #065D50",
"G$	c #0B5D4E",
"H$	c #0B5A4C",
"I$	c #0B5E4F",
"J$	c #197163",
"K$	c #035748",
"L$	c #116C5A",
"M$	c #085E4D",
"N$	c #246A43",
"O$	c #076A58",
"P$	c #0B6C5E",
"Q$	c #076155",
"R$	c #1B7769",
"S$	c #106353",
"T$	c #044C3C",
"U$	c #126759",
"V$	c #075B4B",
"W$	c #0F6152",
"X$	c #0B6556",
"Y$	c #004639",
"Z$	c #0C6656",
"`$	c #056154",
" %	c #036052",
".%	c #177C6D",
"+%	c #187A69",
"@%	c #0C584A",
"#%	c #0C6553",
"$%	c #045344",
"%%	c #076454",
"&%	c #036253",
"*%	c #025C4F",
"=%	c #156F61",
"-%	c #236643",
";%	c #146646",
">%	c #0B6B59",
",%	c #04493E",
"'%	c #197464",
")%	c #055C4E",
"!%	c #04604E",
"~%	c #085C4E",
"{%	c #278776",
"]%	c #0B6153",
"^%	c #1D8474",
"/%	c #24877A",
"(%	c #1C8271",
"_%	c #117060",
":%	c #0B6455",
"<%	c #107463",
"[%	c #056252",
"}%	c #0F705F",
"|%	c #156F53",
"1%	c #0A513D",
"2%	c #166E60",
"3%	c #0A6858",
"4%	c #096355",
"5%	c #096455",
"6%	c #056150",
"7%	c #076353",
"8%	c #086758",
"9%	c #127061",
"0%	c #0E6C5D",
"a%	c #15796A",
"b%	c #146C5E",
"c%	c #066353",
"d%	c #177A69",
"e%	c #086654",
"f%	c #035749",
"g%	c #0F6156",
"h%	c #0B6859",
"i%	c #157061",
"j%	c #0A523E",
"k%	c #38714F",
"l%	c #0E5E48",
"m%	c #127A68",
"n%	c #035448",
"o%	c #197968",
"p%	c #0C6F5D",
"q%	c #065D4F",
"r%	c #02564A",
"s%	c #055647",
"t%	c #06604F",
"u%	c #0C5E51",
"v%	c #044B3E",
"w%	c #015545",
"x%	c #075F53",
"y%	c #106C5E",
"z%	c #06513F",
"A%	c #085D46",
"B%	c #3A6F50",
"C%	c #277858",
"D%	c #0B6554",
"E%	c #0D5E51",
"F%	c #034F40",
"G%	c #0C5F4F",
"H%	c #167465",
"I%	c #0B695A",
"J%	c #076758",
"K%	c #157768",
"L%	c #066559",
"M%	c #076558",
"N%	c #1B7E6F",
"O%	c #1B7B69",
"P%	c #035346",
"Q%	c #167567",
"R%	c #033B30",
"S%	c #13694C",
"T%	c #225D37",
"U%	c #0F6D5B",
"V%	c #0E6254",
"W%	c #056153",
"X%	c #075E4F",
"Y%	c #0D6E5E",
"Z%	c #187062",
"`%	c #0A6656",
" &	c #036554",
".&	c #08695B",
"+&	c #055E4F",
"@&	c #157266",
"#&	c #176E5E",
"$&	c #044B3C",
"%&	c #1C603B",
"&&	c #1C5431",
"*&	c #076B5C",
"=&	c #0C675A",
"-&	c #025F50",
";&	c #0D705F",
">&	c #0C5D4D",
",&	c #0A5D4F",
"'&	c #024E3D",
")&	c #065A4A",
"!&	c #0C6F5A",
"~&	c #1D6842",
"{&	c #2B6D44",
"]&	c #29744D",
"^&	c #116545",
"/&	c #0C6954",
"(&	c #177B6C",
"_&	c #124E42",
":&	c #0A5740",
"<&	c #105538",
"[&	c #1F663F",
"}&	c #357852",
"                      . + @ # $ % & * = -                       ",
"                  ; > , ' ) ! ~ { ] ^ / ( _ :                   ",
"              < [ } | 1 2 3 4 5 6 7 8 9 0 a b c d               ",
"            e f g h i j k l m n o p q r s t u v w x             ",
"        y z A B C D E F G H I J _ K L M N O P Q R S T U         ",
"        V W X Y Z `  ...+.@.#.$.%.&.*.=.-.;.>.,.'.).!.~.        ",
"      {.].^./.(._.:.<.[.}.|.1.2.3.4.5.6.7.8.9.0.a.b.c.d.e.      ",
"    f.g.h.i.2 j.k.l.m.n.o.p.q.r.s.t.u.v.w.x.y.z.A.B.C.D.E.F.    ",
"    G.H.I.J.K.L.M.N.O.P.Q.R.S.T.U.V.W.H X.Y.Z.`. +.+++@+#+$+    ",
"  %+R &+*+=+-+;+>+,+'+)+!+~+{+]+^+/+(+_+:+<+[+}+|+1+2+3+4+5+6+  ",
"  7+8+9+0+a+b+c+d+e+O f+g+h+i+j+k+l+m+n+o+p+q+r+s+t+u+v+w+x+y+  ",
"z+A+B+C+D+E+F+G+H+I+J+K+L+M+N+N+N+N+N+O+P+Q+R+S+T+U+V+W+X+Y+Z+`+",
" @.@+@@@#@$@4.e+%@&@*@=@-@N+N+N+N+;@>@N+,@'@)@!@~@{@]@^@/@(@_@:@",
"<@[@}@|@1@2@3@4@5@6@7@8@N+N+N+N+N+N+N+N+N+9@0@a@b@c@d@I e@f@V.g@",
"h@i@] j@k@l@m@'.n@o@p@N+q@N+N+N+N+N+N+N+N+N+r@s@t@u@v@w@x@y@z@A@",
"B@C@D@E@h F@G@H@I@J@K@N+N+N+L@M@N+N+N+N+N+N+N@O@P@Q@R@S@T@U@V@W@",
"X@Y@/+Z@`@ #.#+#@###$#N+N+N+N+N+N+N+N+N+N+N+%#&#*#=#-#;#>#,#] '#",
")#!#~#{#]#^#/#(#_#:#<#N+N+N+N+N+N+N+N+N+N+N+[#}#|#1#[#2#3#4#5#6#",
"7#8#9#;+0#a#b#c#d#e#f#N+g#N+N+N+N+N+N+N+h#N+i#j#k#l#2#m#n#o#p#q#",
"r#s#t#u#v#w#x#y#z#A#B#C#N+N+N+N+N+N+N+N+N+D#E#F#G#H#I#s#J#K#L#M#",
"N#O#P#Q#1+R#S#T#U#V#W#T.X#N+N+N+N+N+Y#N+Z#`#l# $.$+$@$v+#$$$%$&$",
"  *$=$-$;$>$( ,$'$)$!$~$T.{$N+N+N+N+N+]$r+^$/$($_$:$<$[$}$|$1$  ",
"  2$3$4$5$~$6$7$8$d@u#9$0$a$b$c$d$e$f$U+g$h$i$j$k$l$m$n$o$p$q$  ",
"    r$s$&+t$u$v$w$x$y$z$A$(.E B$C$D$E$F$2#G$H$I$J$K$T@;+L$M$    ",
"    N$O$k P$Q$R$S$T$U$V$W@W$X$Y$Z$`$ %y#.%+%@%#%$%%%&%*%=%-%    ",
"      ;%!./#W@>%,%'%/$)%!%o$~%Y+{%]%^%/%(%_%/@:%=$<%[%}%|%      ",
"        1%2%w+3%4%5%6%7%8%9%0%a%b%E c%d%e%f%D@g%h%i%##j%        ",
"        k%l%i$m%n%o%p%q%r%%%)+1#s%t%!.u%v%w%x%y%z%0#A%B%        ",
"            C%D%J@E%F%G%H%I%J%K%W+L%M%N%O%P%Q%/$R%S%            ",
"              T%U%V%!@3@W%%%X%Y%Z%`% &.&+&@&#&$&%&              ",
"                  &&Q l#*&=&-&;&>&[.,&'&)&!&~&                  ",
"                      {&]&^&/&(&_&:&<&[&}&                      "};
