/* XPM */
static char * connect_xpm[] = {
"32 32 6 1",
" 	c None",
".	c #000000",
"+	c #00FFFF",
"@	c #FFFFFF",
"#	c #808080",
"$	c #00FF00",
"                                ",
"                                ",
"                                ",
"  ............    ............  ",
"  .++++++++++.    .++++++++++.  ",
"  .++++++++++.    .++++++++++.  ",
"  .++++++++++.    .++++++++++.  ",
"  .++++++++++.    .++++++++++.  ",
"  .++++++++++.    .++++++++++.  ",
"  .++++++++++.    .++++++++++.  ",
"  .++++++++++.    .++++++++++.  ",
"  .++++++++++.    .++++++++++.  ",
"  .++++++++++.    .++++++++++.  ",
"  .++++++++++.    .++++++++++.  ",
"  ............    ............  ",
"     .@#@#.          .@#@#.     ",
"     .#@#@.          .#@#@.     ",
"     .@#@#.          .@#@#.     ",
"  ....#@#@....    ....#@#@....  ",
"  .#@#@#@#@#@.    .#@#@#@#@#@.  ",
"  ............    ............  ",
"       $$              $$       ",
"       $$              $$       ",
"       $$              $$       ",
"       $$              $$       ",
"       $$              $$       ",
"       $$              $$       ",
"       $$              $$       ",
"   $$$$$$$$$$$$$$$$$$$$$$$$$$   ",
"   $$$$$$$$$$$$$$$$$$$$$$$$$$   ",
"                                ",
"                                "};
