/* XPM */
static char * notready_xpm[] = {
"16 16 189 2",
"  	c None",
". 	c #CDCDCD",
"+ 	c #C9C9C9",
"@ 	c #C4C4C4",
"# 	c #C0C0C0",
"$ 	c #BBBBBB",
"% 	c #B6B6B6",
"& 	c #B0B0B0",
"* 	c #ABABAB",
"= 	c #CCCCCC",
"- 	c #DCDCDC",
"; 	c #E3E3E6",
"> 	c #DCDEE1",
", 	c #DCDCDF",
"' 	c #DBDCDF",
") 	c #DBDBDE",
"! 	c #ECECEE",
"~ 	c #A5A5A5",
"{ 	c #CBCBCB",
"] 	c #DFDFDF",
"^ 	c #EAEAEA",
"/ 	c #C9CACF",
"( 	c #C5C6CB",
"_ 	c #C3C4CA",
": 	c #C1C3C8",
"< 	c #C1C1C7",
"[ 	c #D8D9DC",
"} 	c #9E9E9E",
"| 	c #D6D6D6",
"1 	c #D3D3D3",
"2 	c #D0D0D0",
"3 	c #C8C8C8",
"4 	c #C3C3C3",
"5 	c #BFBFBF",
"6 	c #BABABA",
"7 	c #B5B5B5",
"8 	c #AAAAAA",
"9 	c #939394",
"0 	c #919192",
"a 	c #D6D7DB",
"b 	c #989898",
"c 	c #EFEFF1",
"d 	c #DFDFE2",
"e 	c #DEDFE1",
"f 	c #DDDEE1",
"g 	c #DCDDE0",
"h 	c #D9DBDE",
"i 	c #EBECED",
"j 	c #BEBFC5",
"k 	c #BBBDC3",
"l 	c #D5D6DA",
"m 	c #919191",
"n 	c #CECECE",
"o 	c #567BB0",
"p 	c #567BB1",
"q 	c #577CB1",
"r 	c #587DB2",
"s 	c #587EB3",
"t 	c #597FB4",
"u 	c #5A80B5",
"v 	c #4D72A7",
"w 	c #D7D8DC",
"x 	c #8D8D8D",
"y 	c #8A8A8A",
"z 	c #D4D5D9",
"A 	c #8B8B8B",
"B 	c #CACACA",
"C 	c #688EC4",
"D 	c #6A90C6",
"E 	c #6B92C8",
"F 	c #6D94CA",
"G 	c #6F96CC",
"H 	c #7098CE",
"I 	c #7E8C8F",
"J 	c #DCC277",
"K 	c #98958C",
"L 	c #B9BBC1",
"M 	c #B8B9C0",
"N 	c #D3D3D7",
"O 	c #848484",
"P 	c #C5C5C5",
"Q 	c #587DB3",
"R 	c #6B91C7",
"S 	c #6D93C9",
"T 	c #6E95CB",
"U 	c #7097CD",
"V 	c #7199CF",
"W 	c #799DCB",
"X 	c #C6AE66",
"Y 	c #EDDBAB",
"Z 	c #B7A36E",
"` 	c #A4C8A0",
" .	c #56A950",
"..	c #D1D3D7",
"+.	c #7E7E7E",
"@.	c #6F97CD",
"#.	c #729BD1",
"$.	c #749CD2",
"%.	c #A7AA96",
"&.	c #EBD7A4",
"*.	c #FBF4DC",
"=.	c #D2AC54",
"-.	c #61A33F",
";.	c #379437",
">.	c #D0D1D6",
",.	c #787878",
"'.	c #91AED8",
").	c #91AFD9",
"!.	c #9DAFC4",
"~.	c #D0AE5A",
"{.	c #F8EBB4",
"].	c #F8E68E",
"^.	c #EEDDB5",
"/.	c #C9AA6B",
"(.	c #B2B3B9",
"_.	c #CFD0D4",
":.	c #737373",
"<.	c #B4B4B4",
"[.	c #DDDDE0",
"}.	c #4E72A6",
"|.	c #A4966D",
"1.	c #ECD9AC",
"2.	c #F8E382",
"3.	c #C28833",
"4.	c #FAEDAC",
"5.	c #CF9E43",
"6.	c #B9AA92",
"7.	c #CECFD4",
"8.	c #6D6D6D",
"9.	c #AEAEAE",
"0.	c #E2E2E4",
"a.	c #D5D5D7",
"b.	c #D2D3D5",
"c.	c #CDCED1",
"d.	c #C7BBA4",
"e.	c #DFBD7B",
"f.	c #F9EAA2",
"g.	c #F6DC61",
"h.	c #C28731",
"i.	c #F7E177",
"j.	c #F0DEB6",
"k.	c #C5984E",
"l.	c #CDCBCB",
"m.	c #686868",
"n.	c #A7A7A7",
"o.	c #A2A2A2",
"p.	c #9C9C9C",
"q.	c #979797",
"r.	c #9F9E9C",
"s.	c #C49D54",
"t.	c #EFDBAB",
"u.	c #F7E074",
"v.	c #F5DA58",
"w.	c #F5DB5D",
"x.	c #F8E690",
"y.	c #E1C192",
"z.	c #D5B88E",
"A.	c #646464",
"B.	c #C6B18C",
"C.	c #E1C28E",
"D.	c #F9E897",
"E.	c #F5DB5B",
"F.	c #C28832",
"G.	c #F6DE6A",
"H.	c #F6E7B1",
"I.	c #BA8032",
"J.	c #726656",
"K.	c #929292",
"L.	c #D3D3D5",
"M.	c #CB994A",
"N.	c #F6ECDD",
"O.	c #F9EEBD",
"P.	c #F8EAAC",
"Q.	c #F8EAAB",
"R.	c #F8EAAD",
"S.	c #FBF3D4",
"T.	c #E4C8A4",
"U.	c #BE7B26",
"V.	c #838383",
"W.	c #BF8937",
"X.	c #C18632",
"Y.	c #C08431",
"Z.	c #C0822F",
"`.	c #C1812B",
" +	c #C07F29",
".+	c #BF7D28",
"++	c #BD7925",
"@+	c #BD7723",
"#+	c #BC7622",
"                . + @ # $ % & * ",
"              = - ; > , ' ) ! ~ ",
"            { ] ^ / ( _ : < [ } ",
"| 1 2 = 3 4 5 6 7 & 8 ~ 9 0 a b ",
"1 c d d e f g ' ) h i } j k l m ",
"n d o p q r s t u v w b x y z A ",
"B e q C D E F G H I J K L M N O ",
"P > Q R S T U V W X Y Z `  ...+.",
"# , t T @.V #.$.%.&.*.=.-.;.>.,.",
"6 ) u H '.).).!.~.{.].^./.(._.:.",
"<.[.v v v v }.|.1.2.3.4.5.6.7.8.",
"9.0.a.b.c._ d.e.f.g.h.i.j.k.l.m.",
"n.o.p.q.m r.s.t.u.v.v.w.x.y.z.A.",
"        A B.C.D.g.E.F.E.G.H.I.J.",
"      K.L.M.N.O.P.Q.Q.Q.R.S.T.U.",
"      V.+.W.X.Y.Z.`. +.+U.++@+#+"};
