/* XPM */
static char * app_xpm[] = {
"16 16 187 2",
"  	c None",
". 	c #4D8BC8",
"+ 	c #4F8CC8",
"@ 	c #4F8DC8",
"# 	c #4F8CC9",
"$ 	c #4F8BC7",
"% 	c #4B89C5",
"& 	c #3B76C4",
"* 	c #4985C4",
"= 	c #ECF2F7",
"- 	c #EEF4F8",
"; 	c #EDF4F8",
"> 	c #EDF3F8",
", 	c #ECF2F8",
"' 	c #D7E6F2",
") 	c #7DB2E2",
"! 	c #6594DB",
"~ 	c #4B88C5",
"{ 	c #F2F6FA",
"] 	c #C7E0FA",
"^ 	c #C9E1FB",
"/ 	c #C9E2FB",
"( 	c #C8E0FB",
"_ 	c #C5DFF9",
": 	c #C1DBF8",
"< 	c #B8D6F4",
"[ 	c #F8FBFF",
"} 	c #B4D8F6",
"| 	c #7DB0E1",
"1 	c #6492DB",
"2 	c #4C89C6",
"3 	c #F1F5F9",
"4 	c #CDE3FC",
"5 	c #CEE3FB",
"6 	c #CDE3FB",
"7 	c #CBE2FB",
"8 	c #C8E0F9",
"9 	c #C2DCF8",
"0 	c #BAD6F5",
"a 	c #F8FBFD",
"b 	c #CDE6FC",
"c 	c #C9E5FA",
"d 	c #84B6E2",
"e 	c #4279BF",
"f 	c #4B89C6",
"g 	c #CFE3FC",
"h 	c #D0E4FB",
"i 	c #CFE4FC",
"j 	c #CAE1FA",
"k 	c #C4DDF9",
"l 	c #BCD9F6",
"m 	c #DFE9F4",
"n 	c #F3F7FB",
"o 	c #E9EFF5",
"p 	c #457EC2",
"q 	c #F0F4F9",
"r 	c #D3E6FC",
"s 	c #D4E6FC",
"t 	c #D3E7FD",
"u 	c #D1E4FC",
"v 	c #C8E0FA",
"w 	c #BBD6F5",
"x 	c #B5D4F3",
"y 	c #B3D2F1",
"z 	c #F0F4F8",
"A 	c #4682C4",
"B 	c #4A88C6",
"C 	c #EFF4F9",
"D 	c #D7E7FE",
"E 	c #D6E7FD",
"F 	c #D5E7FD",
"G 	c #D4E6FD",
"H 	c #D2E6FC",
"I 	c #CCE1FB",
"J 	c #C7DFFA",
"K 	c #C2DBF6",
"L 	c #CDB78C",
"M 	c #D9B46A",
"N 	c #E7D0AA",
"O 	c #4683C6",
"P 	c #4988C6",
"Q 	c #EDF4F9",
"R 	c #D8E8FE",
"S 	c #D7E8FE",
"T 	c #D6E7FE",
"U 	c #D3E5FD",
"V 	c #CEBD9E",
"W 	c #ECC96F",
"X 	c #FBF3C9",
"Y 	c #E7BE63",
"Z 	c #6C8397",
"` 	c #4784C6",
" .	c #ECF3F9",
"..	c #D6E8FE",
"+.	c #D4C5A9",
"@.	c #EAC15E",
"#.	c #FBF0A3",
"$.	c #F0D480",
"%.	c #ECC77E",
"&.	c #D7A255",
"*.	c #4582C5",
"=.	c #EBF2F8",
"-.	c #D5E6FD",
";.	c #D9B678",
">.	c #F9EEA9",
",.	c #F8E67E",
"'.	c #F8E89A",
").	c #F0D17E",
"!.	c #F6E280",
"~.	c #D9983F",
"{.	c #4280C5",
"].	c #E8F1F8",
"^.	c #D5E5FE",
"/.	c #D3E5FC",
"(.	c #D4BC93",
"_.	c #F4DD89",
":.	c #F6E06A",
"<.	c #F7E273",
"[.	c #F6DF5F",
"}.	c #F6DA55",
"|.	c #CD7F38",
"1.	c #407CC4",
"2.	c #E6F0F7",
"3.	c #55B4F8",
"4.	c #56B4F7",
"5.	c #54B5F7",
"6.	c #53B4F8",
"7.	c #6EACCF",
"8.	c #C3AC6B",
"9.	c #D2B766",
"0.	c #F2D95E",
"a.	c #F6DB4E",
"b.	c #F7DD5B",
"c.	c #F5D855",
"d.	c #C87F33",
"e.	c #3C78C1",
"f.	c #E3EDF7",
"g.	c #6EC2FD",
"h.	c #A0D8FF",
"i.	c #9ED7FF",
"j.	c #B2C0B4",
"k.	c #D0A960",
"l.	c #F6E299",
"m.	c #F5DC53",
"n.	c #F6D946",
"o.	c #CA9340",
"p.	c #C58847",
"q.	c #D58E48",
"r.	c #586487",
"s.	c #3871BF",
"t.	c #DFEBF5",
"u.	c #68BFFD",
"v.	c #67BDFC",
"w.	c #65BEFB",
"x.	c #C9AF6A",
"y.	c #F8E6A1",
"z.	c #F2D238",
"A.	c #F6D647",
"B.	c #C99643",
"C.	c #7698A9",
"D.	c #66B7F0",
"E.	c #F5F3F2",
"F.	c #2D64B9",
"G.	c #3369BC",
"H.	c #EAF1F8",
"I.	c #DFECF7",
"J.	c #DEEBF6",
"K.	c #DEEAF6",
"L.	c #E2BB6D",
"M.	c #F9E986",
"N.	c #F5D94D",
"O.	c #CD9743",
"P.	c #CEBDAC",
"Q.	c #F3F7FC",
"R.	c #F4F8FC",
"S.	c #FDFEFE",
"T.	c #2A60B7",
"U.	c #3065BA",
"V.	c #3166BB",
"W.	c #3066BA",
"X.	c #817B73",
"Y.	c #C79A4F",
"Z.	c #B98849",
"`.	c #576686",
" +	c #2E65B9",
".+	c #2E64B9",
"++	c #2C62B7",
"    . + + + + @ # $ % &         ",
"  * = - ; > > > , = ' ) !       ",
"  ~ { ] ^ / ( _ : < [ } | 1     ",
"  2 3 4 5 6 7 8 9 0 a b c d e   ",
"  f 3 g h i 4 j k l m = n o p   ",
"  f q r s t u 6 v 9 w x y z A   ",
"  B C D E F G H I J K L M N O   ",
"  P Q R R S T U u I V W X Y Z   ",
"  `  ...S E E F U +.@.#.$.%.&.  ",
"  *.=.T E E E -.U ;.>.,.'.).!.~.",
"  {.].^.U U /./.u (._.:.<.[.}.|.",
"  1.2.3.4.5.6.7.8.9.0.a.b.c.d.  ",
"  e.f.g.h.i.j.k.l.m.n.o.p.q.r.  ",
"  s.t.u.v.w.x.y.z.A.B.C.D.E.F.  ",
"  G.H.I.J.K.L.M.N.O.P.Q.R.S.T.  ",
"    U.V.W.W.X.Y.Z.`. +.+.+++    "};
