/* XPM */
static char * appl_xpm[] = {
"32 32 258 2",
"  	c None",
". 	c #04E709",
"+ 	c #03E609",
"@ 	c #04E809",
"# 	c #03EB08",
"$ 	c #02EF06",
"% 	c #01F504",
"& 	c #00F702",
"* 	c #02F006",
"= 	c #03EC08",
"- 	c #05E809",
"; 	c #02EB06",
"> 	c #02EC06",
", 	c #03ED07",
"' 	c #02EE06",
") 	c #02EF05",
"! 	c #01F404",
"~ 	c #01F703",
"{ 	c #00F902",
"] 	c #00F901",
"^ 	c #01F702",
"/ 	c #02F005",
"( 	c #03EE07",
"_ 	c #02F305",
": 	c #01F503",
"< 	c #01F603",
"[ 	c #00F802",
"} 	c #00FB01",
"| 	c #00FC00",
"1 	c #00F305",
"2 	c #00F004",
"3 	c #02F105",
"4 	c #00F803",
"5 	c #00FA01",
"6 	c #00FC01",
"7 	c #00FD00",
"8 	c #00FE00",
"9 	c #00F801",
"0 	c #00F503",
"a 	c #00FF00",
"b 	c #00FB00",
"c 	c #01F403",
"d 	c #02F103",
"e 	c #00F603",
"f 	c #00F103",
"g 	c #00F204",
"h 	c #01FF00",
"i 	c #02FF00",
"j 	c #03FE00",
"k 	c #04FE00",
"l 	c #02ED06",
"m 	c #02FD00",
"n 	c #04FD00",
"o 	c #08FD00",
"p 	c #0BFD00",
"q 	c #0EFD00",
"r 	c #0CFD00",
"s 	c #09FE00",
"t 	c #05FE00",
"u 	c #01FE00",
"v 	c #02ED04",
"w 	c #02E907",
"x 	c #07FC00",
"y 	c #0EFB01",
"z 	c #17FB01",
"A 	c #1FFC01",
"B 	c #25FC01",
"C 	c #20FC01",
"D 	c #18FC01",
"E 	c #10FD00",
"F 	c #01F303",
"G 	c #02EE05",
"H 	c #03FD00",
"I 	c #08FC01",
"J 	c #11FA02",
"K 	c #20F903",
"L 	c #32F903",
"M 	c #43FA02",
"N 	c #4CFB02",
"O 	c #4DFB02",
"P 	c #44FA03",
"Q 	c #35FB02",
"R 	c #25FC02",
"S 	c #16FD01",
"T 	c #0BFE00",
"U 	c #01F402",
"V 	c #03EE05",
"W 	c #04E909",
"X 	c #02FE00",
"Y 	c #07FC01",
"Z 	c #23F704",
"` 	c #3CF505",
" .	c #58F605",
"..	c #70F704",
"+.	c #7EF903",
"@.	c #7FF903",
"#.	c #73F904",
"$.	c #5EF903",
"%.	c #44FA02",
"&.	c #2BFC01",
"*.	c #17FE00",
"=.	c #0AFE00",
"-.	c #0DFB01",
";.	c #1FF804",
">.	c #3BF406",
",.	c #5EF307",
"'.	c #82F307",
").	c #9FF605",
"!.	c #AEF704",
"~.	c #AFF804",
"{.	c #A3F804",
"].	c #8AF904",
"^.	c #69FA03",
"/.	c #46FC01",
"(.	c #27FD00",
"_.	c #12FE00",
":.	c #06FE00",
"<.	c #16FB02",
"[.	c #30F704",
"}.	c #55F307",
"|.	c #80F108",
"1.	c #A6F208",
"2.	c #C2F407",
"3.	c #D1F606",
"4.	c #D3F705",
"5.	c #C8F804",
"6.	c #B0F903",
"7.	c #8DFA02",
"8.	c #62FC01",
"9.	c #39FD00",
"0.	c #1BFE00",
"a.	c #01F604",
"b.	c #01F803",
"c.	c #1EFB02",
"d.	c #40F804",
"e.	c #6CF407",
"f.	c #9AF208",
"g.	c #C0F209",
"h.	c #D8F308",
"i.	c #E4F507",
"j.	c #E6F706",
"k.	c #DEF804",
"l.	c #CAFA03",
"m.	c #A7FB02",
"n.	c #78FD01",
"o.	c #48FE00",
"p.	c #23FE00",
"q.	c #0DFE00",
"r.	c #04FF00",
"s.	c #00F703",
"t.	c #0EFE00",
"u.	c #24FC01",
"v.	c #4BFA03",
"w.	c #7BF705",
"x.	c #AAF407",
"y.	c #CDF308",
"z.	c #E1F309",
"A.	c #EBF408",
"B.	c #EDF607",
"C.	c #E7F805",
"D.	c #D4F903",
"E.	c #B2FB02",
"F.	c #83FC01",
"G.	c #50FE00",
"H.	c #27FE00",
"I.	c #0FFE00",
"J.	c #26FD00",
"K.	c #7DF804",
"L.	c #ABF506",
"M.	c #E0F209",
"N.	c #E9F309",
"O.	c #E4F606",
"P.	c #D2F805",
"Q.	c #B0FA03",
"R.	c #81FB02",
"S.	c #4FFD00",
"T.	c #22FD00",
"U.	c #45FC01",
"V.	c #73F804",
"W.	c #9EF407",
"X.	c #BFF109",
"Y.	c #D3F00B",
"Z.	c #DEF10A",
"`.	c #E0F308",
" +	c #D8F407",
".+	c #C3F506",
"++	c #A1F805",
"@+	c #74FA03",
"#+	c #22FE00",
"$+	c #01F802",
"%+	c #1AFE00",
"&+	c #37FC01",
"*+	c #5DF804",
"=+	c #83F308",
"-+	c #A2EE0B",
";+	c #B9ED0D",
">+	c #C6EE0B",
",+	c #CAF109",
"'+	c #C0F308",
")+	c #A9F507",
"!+	c #87F705",
"~+	c #5EFA03",
"{+	c #02EB08",
"]+	c #11FE00",
"^+	c #41F804",
"/+	c #60F308",
"(+	c #7BEE0C",
"_+	c #92EC0D",
":+	c #A1EE0C",
"<+	c #A6F209",
"[+	c #9CF407",
"}+	c #85F606",
"|+	c #65F805",
"1+	c #43FA03",
"2+	c #27F903",
"3+	c #3CF506",
"4+	c #51F00A",
"5+	c #64EE0B",
"6+	c #73F00A",
"7+	c #77F407",
"8+	c #70F705",
"9+	c #5CF904",
"0+	c #2AFC01",
"a+	c #16FD00",
"b+	c #01EF07",
"c+	c #0AFD00",
"d+	c #14FB02",
"e+	c #20F804",
"f+	c #2DF506",
"g+	c #3AF307",
"h+	c #45F506",
"i+	c #48F804",
"j+	c #36FB02",
"k+	c #01EE07",
"l+	c #02E909",
"m+	c #08FD01",
"n+	c #0EFB02",
"o+	c #14FA03",
"p+	c #1BF903",
"q+	c #21FA03",
"r+	c #23FB02",
"s+	c #19FD00",
"t+	c #11FD00",
"u+	c #02F303",
"v+	c #00F903",
"w+	c #0AFC01",
"x+	c #0CFC01",
"y+	c #0DFD00",
"z+	c #0CFE00",
"A+	c #00F303",
"B+	c #02F204",
"C+	c #01F901",
"D+	c #01F902",
"E+	c #03F205",
"F+	c #02F205",
"G+	c #02F004",
"H+	c #02EC05",
"I+	c #04E707",
"                  . + @ # $ % & & % * = - @ .                   ",
"                ; > , ' ) ! ~ { ] ^ ! / $ ( > ;                 ",
"              * _ ! ! : < [ } | | } [ < : ! ! 1 2               ",
"            3 : 4 [ 5 5 } 6 7 8 8 7 6 } 5 5 9 4 0 3             ",
"          3 < { } | 7 7 7 8 8 8 8 8 8 7 7 7 | 6 ] < 3           ",
"        3 < { 6 7 8 8 a 8 a a 8 8 a a 8 a 8 8 7 b ] c d         ",
"      _ < ] } 7 8 8 8 8 a a 8 8 8 8 a a 8 8 8 8 7 b ] e f       ",
"    g 0 [ } 7 8 8 8 8 8 h i j k k j i h a a 8 a 8 7 6 9 0 2     ",
"  l 1 4 } 7 8 a a a 8 m n o p q q r s t j u a a a 8 7 } 9 f v   ",
"w ' ! ] | 8 8 a a u m x y z A B B C D E s k u a a 8 8 b ] F G w ",
"+ ( ! 5 7 8 a a 8 H I J K L M N O P Q R S T k u a a 8 7 5 U V + ",
"W $ : } 7 a a a X Y J Z `  ...+.@.#.$.%.&.*.=.j a a a 7 } : ' W ",
"# / ~ } 8 a a u n -.;.>.,.'.).!.~.{.].^./.(._.:.u a a 8 } ~ / # ",
"$ ! [ 6 8 a 8 X o <.[.}.|.1.2.3.4.5.6.7.8.9.0.=.X 8 a 8 6 [ ! ) ",
"a.b.} 7 a a 8 j p c.d.e.f.g.h.i.j.k.l.m.n.o.p.q.r.8 a a 7 } b.% ",
"s.{ 6 8 a 8 8 k t.u.v.w.x.y.z.A.B.C.D.E.F.G.H.I.r.h 8 a 8 6 { s.",
"s.{ 6 8 a 8 u k t.J.O K.L.y.M.N.A.O.P.Q.R.S.H.I.k u 8 a 8 6 { s.",
"a.4 } 7 a a 8 j q.T.U.V.W.X.Y.Z.`. +.+++@+/.#+q.j 8 a a 7 } 4 % ",
"$ ! $+6 8 a 8 X =.%+&+*+=+-+;+>+,+'+)+!+~+&+%+s X 8 a 8 6 [ ! $ ",
"{+/ ~ } 8 a a u :.]+B ^+/+(+_+:+<+[+}+|+1+B ]+:.u a a 7 } ~ / {+",
"@ ' : } 7 a a a j s S 2+3+4+5+6+7+8+9+1+0+a+s j a a a 7 } : ' @ ",
"+ b+a.5 7 8 a a u k c+d+e+f+g+h+i+1+j+B a+T k u a a 8 7 5 ! k++ ",
"l+' ! 5 | 8 8 a a u k m+n+o+p+q+r+C s+t+s k u a a 8 8 | ] ! ' l+",
"  $ u+v+} 7 8 a a a u X n Y w+x+y+z+s :.j u a a a 8 7 } 4 A+l   ",
"    B+: ] 6 7 8 a 8 a a h i X j j j i h a a 8 a 8 7 6 { : B+    ",
"      _ < C+6 7 8 8 8 8 a a 8 8 8 8 a a 8 8 8 8 7 6 D+< _       ",
"        3 a.{ 6 7 8 8 a 8 a a 8 8 a a 8 a 8 8 7 6 { a.3         ",
"          E+a.{ } | 7 7 7 8 8 8 8 8 8 7 7 7 | } { a.F+          ",
"            u+: 9 9 5 5 } 6 7 8 8 7 | b 5 5 9 4 : 3             ",
"              G+u+c ! : < [ } | | } $+~ < a.! u+G+              ",
"                ; H+, $ / ! ^ 5 5 ^ ! / $ ( ' l                 ",
"                  I++ @ # * % & & % $ = @ @ W                   "};
