/* XPM */
static char * app_xpm[] = {
"32 32 486 2",
"  	c None",
". 	c #B7B7B7",
"+ 	c #CDCDCD",
"@ 	c #CBCBCB",
"# 	c #C7C7C7",
"$ 	c #C3C3C3",
"% 	c #C0C0C0",
"& 	c #BBBBBB",
"* 	c #B8B8B8",
"= 	c #B4B4B4",
"- 	c #B0B0B0",
"; 	c #929292",
"> 	c #C8C8C8",
", 	c #DEDEDE",
"' 	c #DADAD9",
") 	c #BABCB9",
"! 	c #C5C7C4",
"~ 	c #C5C6C3",
"{ 	c #C0C2BF",
"] 	c #D1D1D0",
"^ 	c #E4E4E4",
"/ 	c #ABABAB",
"( 	c #8D8D8D",
"_ 	c #898989",
": 	c #868686",
"< 	c #828282",
"[ 	c #7E7E7E",
"} 	c #7B7B7B",
"| 	c #777777",
"1 	c #747474",
"2 	c #707070",
"3 	c #6C6C6C",
"4 	c #696969",
"5 	c #656565",
"6 	c #666666",
"7 	c #DDDDDD",
"8 	c #B4B5B2",
"9 	c #BAC9DA",
"0 	c #8FABCC",
"a 	c #80A0C7",
"b 	c #96B0CD",
"c 	c #C9CBC9",
"d 	c #D2D2D2",
"e 	c #E6E6E6",
"f 	c #FDFDFD",
"g 	c #FCFCFC",
"h 	c #FBFBFB",
"i 	c #FAFAFA",
"j 	c #F9F9F9",
"k 	c #636363",
"l 	c #C4C4C4",
"m 	c #BCBDBB",
"n 	c #C2CDD8",
"o 	c #ABC1DA",
"p 	c #E0E9F1",
"q 	c #D0DDEA",
"r 	c #A9C1DA",
"s 	c #95AECC",
"t 	c #ADAFAC",
"u 	c #D4D4D4",
"v 	c #E8E8E8",
"w 	c #AAAAAA",
"x 	c #8C8E89",
"y 	c #92948F",
"z 	c #A8AAA6",
"A 	c #CDCDCC",
"B 	c #E3E3E3",
"C 	c #5E5E5E",
"D 	c #C1C1C1",
"E 	c #B5B6B3",
"F 	c #8DA8C6",
"G 	c #D6E1EE",
"H 	c #DCE6EF",
"I 	c #D4DFEA",
"J 	c #ADC2D8",
"K 	c #6E92BD",
"L 	c #A9AAA8",
"M 	c #D5D5D5",
"N 	c #EAEAEA",
"O 	c #A9A9A9",
"P 	c #FEFEFE",
"Q 	c #F8F9F8",
"R 	c #E3E4E2",
"S 	c #ABADA9",
"T 	c #A2A4A0",
"U 	c #DBDBDA",
"V 	c #E5E5E5",
"W 	c #BEBEBE",
"X 	c #B6B7B4",
"Y 	c #92AAC4",
"Z 	c #ACC4DD",
"` 	c #C3D2E2",
" .	c #BECBDA",
"..	c #B2C2D4",
"+.	c #7493B9",
"@.	c #9D9F9B",
"#.	c #D7D7D7",
"$.	c #E9E8E7",
"%.	c #A99272",
"&.	c #B0775D",
"*.	c #5D738B",
"=.	c #AABCD0",
"-.	c #F8F9F9",
";.	c #DADCD9",
">.	c #8E8F8B",
",.	c #B6B6B6",
"'.	c #BDBDBD",
").	c #AFB0AF",
"!.	c #A7A8A5",
"~.	c #D3D7D5",
"{.	c #7697BE",
"].	c #96AFCB",
"^.	c #AEBFD0",
"/.	c #7D99BC",
"(.	c #AFBCCA",
"_.	c #A4A5A2",
":.	c #CFCDCA",
"<.	c #A89371",
"[.	c #CFB3AF",
"}.	c #EB4037",
"|.	c #949288",
"1.	c #6E94C0",
"2.	c #4B77AE",
"3.	c #E8EBEE",
"4.	c #D7D8D5",
"5.	c #959693",
"6.	c #E7E7E7",
"7.	c #5D5D5D",
"8.	c #989996",
"9.	c #989898",
"0.	c #AEAFAD",
"a.	c #C6C8C5",
"b.	c #B0C1D5",
"c.	c #A0B6D2",
"d.	c #C0C6C9",
"e.	c #A5A6A4",
"f.	c #C3C0B7",
"g.	c #A38751",
"h.	c #D4A650",
"i.	c #B28960",
"j.	c #9F856C",
"k.	c #C5D4E2",
"l.	c #BCCEE0",
"m.	c #7EA0C5",
"n.	c #4A77AC",
"o.	c #F5F6F6",
"p.	c #9B9E99",
"q.	c #A7A8A7",
"r.	c #5C5C5C",
"s.	c #A9ABA7",
"t.	c #949494",
"u.	c #A1A1A0",
"v.	c #AFB0AD",
"w.	c #9A9B99",
"x.	c #90918F",
"y.	c #B4B5B4",
"z.	c #C3BDB0",
"A.	c #B08F50",
"B.	c #D3A247",
"C.	c #A4761F",
"D.	c #7D6F57",
"E.	c #D9E4F0",
"F.	c #D1DFED",
"G.	c #C9D9EA",
"H.	c #A1BDDA",
"I.	c #678FBE",
"J.	c #AEBFD2",
"K.	c #DFE0DD",
"L.	c #E9E9E9",
"M.	c #5B5B5B",
"N.	c #D5D8D2",
"O.	c #AAACA9",
"P.	c #CFCFCF",
"Q.	c #B9B9B9",
"R.	c #BFBFBF",
"S.	c #AFA693",
"T.	c #B99450",
"U.	c #CE9B3B",
"V.	c #997023",
"W.	c #CEC6B7",
"X.	c #A2A2A2",
"Y.	c #D3DEE9",
"Z.	c #CCD8E4",
"`.	c #BCCCDC",
" +	c #92ACC7",
".+	c #80A0C2",
"++	c #5981B2",
"@+	c #EFF0EF",
"#+	c #6C6D6A",
"$+	c #C2C2C2",
"%+	c #5A5A5A",
"&+	c #ADAEAD",
"*+	c #DADADA",
"=+	c #B4A995",
"-+	c #C19C54",
";+	c #C79230",
">+	c #957332",
",+	c #C6C1B7",
"'+	c #F5F5F5",
")+	c #DBE5EF",
"!+	c #D6E1ED",
"~+	c #BACDE1",
"{+	c #AEC5DC",
"]+	c #A1BBD8",
"^+	c #406EA9",
"/+	c #E9EBE8",
"(+	c #61635F",
"_+	c #EBEBEB",
":+	c #595959",
"<+	c #A8A8A8",
"[+	c #E2E2E2",
"}+	c #D1CFCB",
"|+	c #B19A61",
"1+	c #D2BA79",
"2+	c #927743",
"3+	c #EDEBE6",
"4+	c #F8F8F8",
"5+	c #F6F6F6",
"6+	c #C4CFDB",
"7+	c #ABBACA",
"8+	c #A2B3C5",
"9+	c #9FB2C6",
"0+	c #87A2C0",
"a+	c #4D76AB",
"b+	c #D7D9D3",
"c+	c #61625F",
"d+	c #ECECEC",
"e+	c #F3F2F0",
"f+	c #655027",
"g+	c #7C5A21",
"h+	c #6F4F14",
"i+	c #A5A5A5",
"j+	c #988664",
"k+	c #A48F65",
"l+	c #B4A892",
"m+	c #E1E0DF",
"n+	c #EFEFEF",
"o+	c #A1A1A1",
"p+	c #C0CFE0",
"q+	c #C9D6E3",
"r+	c #C9D6E4",
"s+	c #C0D0E2",
"t+	c #7698C3",
"u+	c #869EB9",
"v+	c #B4B8B3",
"w+	c #898A88",
"x+	c #EDEDED",
"y+	c #E1DEDA",
"z+	c #846B3A",
"A+	c #C99D7A",
"B+	c #FFB8B8",
"C+	c #EB7A6A",
"D+	c #714E10",
"E+	c #808080",
"F+	c #A7A7A7",
"G+	c #A6A6A6",
"H+	c #8C887E",
"I+	c #A4A4A4",
"J+	c #9F9F9F",
"K+	c #A0A0A0",
"L+	c #A3A3A3",
"M+	c #838688",
"N+	c #93A1B0",
"O+	c #ABB7C3",
"P+	c #ACB8C4",
"Q+	c #88A0BD",
"R+	c #4873AA",
"S+	c #DCE0DE",
"T+	c #7A7D77",
"U+	c #A5A5A4",
"V+	c #D9D5CD",
"W+	c #7D6130",
"X+	c #C6AC9B",
"Y+	c #F4ACAC",
"Z+	c #FF6D6D",
"`+	c #FF3232",
" @	c #774A0F",
".@	c #606060",
"+@	c #A8A8A7",
"@@	c #737471",
"#@	c #91928F",
"$@	c #A5A7A3",
"%@	c #C2C3C1",
"&@	c #9FA8B1",
"*@	c #365B89",
"=@	c #6480A1",
"-@	c #8FA2B8",
";@	c #AFC3DA",
">@	c #7699C2",
",@	c #4A76AE",
"'@	c #D9DFE2",
")@	c #BFC1BE",
"!@	c #838481",
"~@	c #CAC3B5",
"{@	c #7E612A",
"]@	c #CDB7A0",
"^@	c #C2C0C0",
"/@	c #C0B6B6",
"(@	c #FB2929",
"_@	c #B43915",
":@	c #6B4B0E",
"<@	c #7F807D",
"[@	c #959792",
"}@	c #B0B0AF",
"|@	c #9B9B9B",
"1@	c #9A9A9A",
"2@	c #CDCFCB",
"3@	c #EBECEA",
"4@	c #EEF1F2",
"5@	c #94ACC8",
"6@	c #4D78AE",
"7@	c #3466A4",
"8@	c #5980B2",
"9@	c #A8BACE",
"0@	c #CDCECB",
"a@	c #656763",
"b@	c #B6B7B6",
"c@	c #9E927B",
"d@	c #826428",
"e@	c #D7B06A",
"f@	c #D9AE5F",
"g@	c #D2946D",
"h@	c #9D4B23",
"i@	c #6A490F",
"j@	c #878A84",
"k@	c #9EA09C",
"l@	c #919191",
"m@	c #A9AAA6",
"n@	c #868883",
"o@	c #B9BBB6",
"p@	c #E7E9E6",
"q@	c #FAFAF9",
"r@	c #FDFEFD",
"s@	c #F7F7F7",
"t@	c #DBDCD9",
"u@	c #888A87",
"v@	c #828380",
"w@	c #F1F1F1",
"x@	c #A79777",
"y@	c #927030",
"z@	c #DCB771",
"A@	c #D7A954",
"B@	c #CB9124",
"C@	c #BB7F29",
"D@	c #855C34",
"E@	c #684A0D",
"F@	c #878984",
"G@	c #A6A8A4",
"H@	c #ADADAD",
"I@	c #8A8A8A",
"J@	c #AEAEAE",
"K@	c #A3A4A0",
"L@	c #9E9F9B",
"M@	c #E1E1E1",
"N@	c #BFC0BE",
"O@	c #929490",
"P@	c #757773",
"Q@	c #696B67",
"R@	c #71736F",
"S@	c #959694",
"T@	c #CFCFCE",
"U@	c #EFEEED",
"V@	c #947F56",
"W@	c #A17E39",
"X@	c #DEB873",
"Y@	c #D4A449",
"Z@	c #CB9022",
"`@	c #AC7A1D",
" #	c #7E5F23",
".#	c #594B33",
"+#	c #888985",
"@#	c #BABCB7",
"##	c #B9BAB8",
"$#	c #848484",
"%#	c #959595",
"&#	c #AFAFAF",
"*#	c #9A9D99",
"=#	c #A3A4A1",
"-#	c #D9D9D9",
";#	c #B1B1B1",
">#	c #B3B3B3",
",#	c #B4B3B0",
"'#	c #7B6233",
")#	c #B08B43",
"!#	c #DDB770",
"~#	c #D29E3E",
"{#	c #CA8F22",
"]#	c #A1721A",
"^#	c #795D26",
"/#	c #D1C9BB",
"(#	c #4C4C4C",
"_#	c #878884",
":#	c #E1E3DE",
"<#	c #D6DAD2",
"[#	c #AFB0AE",
"}#	c #919490",
"|#	c #D1D1D1",
"1#	c #CCCCCC",
"2#	c #D6D6D6",
"3#	c #D8D8D8",
"4#	c #CECBC4",
"5#	c #7D6330",
"6#	c #C09951",
"7#	c #DCB56C",
"8#	c #CF9934",
"9#	c #C78D21",
"0#	c #966B1A",
"a#	c #7C622F",
"b#	c #DFDBD4",
"c#	c #BFC1BC",
"d#	c #E1E4DF",
"e#	c #BEC0BC",
"f#	c #90928D",
"g#	c #BDBEBC",
"h#	c #CECECE",
"i#	c #D3D3D3",
"j#	c #A09A8E",
"k#	c #775B25",
"l#	c #CCA45D",
"m#	c #DBB265",
"n#	c #CD952C",
"o#	c #C18920",
"p#	c #8D651B",
"q#	c #7D6536",
"r#	c #ECEAE7",
"s#	c #F4F4F4",
"t#	c #7C7E7A",
"u#	c #E2E3E2",
"v#	c #E0E0E0",
"w#	c #BCB2A1",
"x#	c #826429",
"y#	c #D4AE67",
"z#	c #D9AD5C",
"A#	c #CC9226",
"B#	c #BA841F",
"C#	c #876420",
"D#	c #98845D",
"E#	c #F4F4F3",
"F#	c #B5B1AB",
"G#	c #7C5F26",
"H#	c #DAB76F",
"I#	c #D6A852",
"J#	c #CB9023",
"K#	c #AF7C1D",
"L#	c #7C5C1F",
"M#	c #998B6D",
"N#	c #C5C5C5",
"O#	c #EEEEEE",
"P#	c #F0F0F0",
"Q#	c #8C7547",
"R#	c #CAB579",
"S#	c #E7E1B7",
"T#	c #D4AB52",
"U#	c #A5751B",
"V#	c #7A5D25",
"W#	c #CAC2AF",
"X#	c #575757",
"Y#	c #A7A091",
"Z#	c #907132",
"`#	c #E1CF95",
" $	c #E1D198",
".$	c #AC8C44",
"+$	c #755A26",
"@$	c #B6B1A7",
"#$	c #545454",
"$$	c #ECECEB",
"%$	c #7E6533",
"&$	c #BFB090",
"*$	c #A17F3A",
"=$	c #7E622C",
"-$	c #A59371",
";$	c #E9E7E3",
">$	c #515151",
",$	c #9A8968",
"'$	c #5C410C",
")$	c #7E6536",
"!$	c #B5AA97",
"~$	c #D8D8D7",
"{$	c #DCDCDC",
"]$	c #535353",
"^$	c #A59679",
"/$	c #DEDAD2",
"($	c #F3F3F3",
"_$	c #525252",
":$	c #585858",
"<$	c #333333",
"                                                                ",
"    . + + @ # $ % & * = - ;                                     ",
"    > , ' ) ! ~ { ] ^ ^ ^ / ( _ : < [ } | 1 2 3 4 5 6           ",
"    # 7 8 9 0 a b c & d e / f g g g h h h h i i i j j k         ",
"    l m n o p q r s t u v w x y z A B ^ ^ ^ ^ ^ ^ B j C         ",
"    D E F G H I J K L M N O P Q R S T U V V V V V V j C         ",
"    W X Y Z `  ...+.@.#.$.%.&.*.=.-.;.>.,.'.'.% e e j C         ",
"    ).!.~.{.].^./.(._.:.<.[.}.|.1.2.3.4.5.e 6.6.6.6.j 7.        ",
"    8.9.0.a.b.c.d.e.f.g.h.i.j.k.l.m.n.o.p.q.W D v v j r.        ",
"  s.t.u.v.@ w.x.y.z.A.B.C.D.E.F.G.H.I.J.K.5.L.L.L.L.j M.        ",
"  N.O.0.P.l Q.R.S.T.U.V.W.X.Y.Z.`. +.+++@+#+R.$+N N j %+        ",
"    &+V ^ *+P.=+-+;+>+,+'+X.)+!+~+{+]+^+/+(+_+_+_+_+j :+        ",
"    <+v N [+}+|+1+2+3+4+5+X.6+7+8+9+0+a+b+c+R.$ d+d+e+f+g+h+    ",
"    i+v N d+j+k+l+m+e _+n+o+p+q+r+s+t+u+v+w+x+x+x+y+z+A+B+C+D+  ",
"    E+F+F+G+H+I+o+J+K+L+G+M+N+O+P+Q+R+S+T+U+% l V+W+X+Y+Z+`+ @  ",
"        .@+@@@#@$@%@&@*@=@-@..;@>@,@'@)@!@n+n+~@{@]@^@/@(@_@:@  ",
"        <@[@}@|@1@2@3@4@5@6@7@8@9@Q 0@a@b@D c@d@e@f@g@,.h@i@    ",
"      j@k@- l@: / m@n@o@p@q@r@s@t@u@v@[+w@x@y@z@A@B@C@D@E@      ",
"    F@G@H@I@( J@K@L@M@N@O@P@Q@R@S@T@w@U@V@W@X@Y@Z@`@ #.#        ",
"  +#@###$#%#&#*#=#*+-#= - ;#>#= . * ,#'#)#!#~#{#]#^#/#(#        ",
"  _#:#<#0.[#}#S@A |#1#@ @ 1#|#2#3#4#5#6#7#8#9#0#a#b#4+(#        ",
"  j@c#d#e#f#g##.h#i#P.w G+O w H@j#k#l#m#n#o#p#q#r#s#4+(#        ",
"    j@F@t#u#B M@*+[+7 7 , v#B w#x#y#z#A#B#C#D#E#5+'+4+(#        ",
"        C i v L.V n+d+$ % D F#G#H#I#J#K#L#M#N#> s@'+4+(#        ",
"        %+j v L.V n+d+x+O#P#Q#R#S#T#U#V#W#j j 4+s@5+4+(#        ",
"        X#j v L.V n+d+$ % Y#Z#`# $.$+$@$4+j j 4+s@5+4+(#        ",
"        #$j v L.V n+d+x+$$%$&$*$=$-$;$5+s@4+4+4+s@5+4+(#        ",
"        >$j v L.V n+d+x+,$'$)$!$~$2#i#d u #.{$M@e N s#(#        ",
"        ]$4+5+s@s#4+s@E#^$/$($P#d+L.6.6.v L.d+P#($5+4+_$        ",
"          X#:$:$:$:$:$:$:$:$:$:$:$:$:$:$:$:$:$:$:$:$:$<$        ",
"                                                                ",
"                                                                "};
