/* XPM */
static char * app_xpm[] = {
"32 32 62 1",
" 	c None",
".	c #4CB6AD",
"+	c #4DB6AC",
"@	c #4DB6AD",
"#	c #5EBDB4",
"$	c #71C5BD",
"%	c #6DC3BB",
"&	c #50B7AD",
"*	c #4CB7AC",
"=	c #7ECAC3",
"-	c #B4E0DC",
";	c #94D3CD",
">	c #98D5CF",
",	c #BCE4E0",
"'	c #B6E1DD",
")	c #4FB7AD",
"!	c #ABDDD8",
"~	c #5ABBB2",
"{	c #B8E2DE",
"]	c #A8DBD7",
"^	c #5CBCB3",
"/	c #4DB5AD",
"(	c #63BFB6",
"_	c #4EB6AD",
":	c #78C8C0",
"<	c #7FCBC3",
"[	c #5BBCB3",
"}	c #4EB6AC",
"|	c #81CBC4",
"1	c #8ACFC8",
"2	c #64BFB7",
"3	c #57BAB1",
"4	c #C6E8E4",
"5	c #55B9B0",
"6	c #6CC3BB",
"7	c #65C0B7",
"8	c #C3E6E3",
"9	c #61BEB5",
"0	c #9DD7D1",
"a	c #90D1CB",
"b	c #58BBB1",
"c	c #C4E7E3",
"d	c #A9DCD7",
"e	c #96D4CE",
"f	c #A3D9D4",
"g	c #79C8C1",
"h	c #86CDC6",
"i	c #76C7BF",
"j	c #6CC3BA",
"k	c #95D3CE",
"l	c #74C6BE",
"m	c #C4E7E4",
"n	c #60BEB5",
"o	c #85CDC6",
"p	c #93D3CD",
"q	c #6BC2BA",
"r	c #51B8AE",
"s	c #9AD6D0",
"t	c #AFDEDA",
"u	c #A1D9D3",
"v	c #52B8AE",
"w	c #56BAB0",
"                                ",
"             .++++.             ",
"          ++++++++++++          ",
"        +++++++++++++++@        ",
"       ++++++++++++++++++       ",
"      ++++++++++++++++++++      ",
"     ++++++++++++++++++++++     ",
"    +++++#$$$$$$$$$$$%&+++++    ",
"   *++++=-;;;;;;;;;;;>,++++++   ",
"   +++++')++++++++++++!~+++++   ",
"  ++++++{+++++++++++++]^+++++/  ",
"  ++++++{+++++++++++++]^++++++  ",
"  ++++++{++-,,,,,,,,(+]^++++++  ",
" .++++++{+++++++++++++]^++++++_ ",
" /++++++{++:<<<<<<<<[+]^+++++++ ",
" }++++++{++|11111111#+]^+++++++ ",
" }++++++{+++++++++++++]^+++++++ ",
" /++++++{++-,,,,,,,,2+]^+++++++ ",
" .++++++{++++++++++++34567++++_ ",
"  ++++++{+++++++++++38790a7+++  ",
"  ++++++{++++++++++bc7:def7+++  ",
"  ++++++{+++++++++bc2gh5d^++++  ",
"   +++++{}+++++++~c9ih+aj++++   ",
"   +++++k;$$$$$$lmnih+aj+++++   ",
"    +++++|;;;;;;;#go+pq+++++    ",
"     ++++++++++++rs+pq+++++     ",
"      +++++++++++7tuq+++++      ",
"       ++++++++++vw++++++       ",
"        *+++++++++++++++        ",
"          /++++++++++/          ",
"             ++}}++             ",
"                                "};
