<?xml version="1.0" ?><!DOCTYPE svg  PUBLIC '-//W3C//DTD SVG 1.1//EN'  'http://www.w3.org/Graphics/SVG/1.1/DTD/svg11.dtd'><svg enable-background="new 0 0 800 800" id="Layer_1" version="1.1" viewBox="0 0 800 800" xml:space="preserve" xmlns="http://www.w3.org/2000/svg" xmlns:xlink="http://www.w3.org/1999/xlink"><path d="M771.9,400c0,205.3-166.6,371.9-371.9,371.9S28.1,605.3,28.1,400S194.7,28.1,400,28.1S771.9,194.7,771.9,400  z" fill="#4DB6AC"/><path d="M538.3,202.5H248.8c-17.2,0-31.3,14.1-31.3,31.3  v337.7c0,17.2,14.1,31.3,31.3,31.3h173.9l146.9-144.8V233.8C569.5,216.6,555.5,202.5,538.3,202.5z" fill="none" stroke="#FFFFFF" stroke-miterlimit="10" stroke-width="15"/><polygon fill="#FFFFFF" points="276.7,305.9 505.2,305.9 505.2,321.4 276.7,321.4 "/><rect fill="#FFFFFF" height="15.5" width="228.6" x="276.7" y="434.5"/><rect fill="#FFFFFF" height="15.5" width="228.6" x="278.4" y="368"/><g><g><path d="M497.7,659.8l118.3-118.3l-34.2-34.2l0,0    L463.4,625.6l-8.3,8.4l-4.7,38.8l38.8-4.7L497.7,659.8" fill="none" stroke="#FFFFFF" stroke-miterlimit="10" stroke-width="10"/></g><g><path d="M624.1,469.7c-2.5,0-5.2,0.9-7,3l-18.4,18.4    l34.2,34.2l18.4-18.4c3.9-3.9,3.9-10.2,0-14.1l-20.2-20.2C629.1,470.8,626.6,469.7,624.1,469.7L624.1,469.7z" fill="none" stroke="#FFFFFF" stroke-miterlimit="10" stroke-width="10"/></g></g></svg>