/* XPM */
static char * appl_xpm[] = {
"32 32 252 2",
"  	c None",
". 	c #000000",
"+ 	c #FFFFFF",
"@ 	c #F0F0F0",
"# 	c #F4E2BC",
"$ 	c #F4D597",
"% 	c #AFAFAF",
"& 	c #DFDFDF",
"* 	c #B2B2B2",
"= 	c #272726",
"- 	c #70706F",
"; 	c #686867",
"> 	c #151514",
", 	c #969696",
"' 	c #ADADAD",
") 	c #DBDBDB",
"! 	c #B1B1B1",
"~ 	c #AFAEAE",
"{ 	c #ADADAC",
"] 	c #AAACAA",
"^ 	c #A9A9A8",
"/ 	c #A6A6A6",
"( 	c #A4A4A4",
"_ 	c #A1A3A3",
": 	c #A0A0A0",
"< 	c #9E9E9F",
"[ 	c #9B9B9B",
"} 	c #9A9A9A",
"| 	c #979797",
"1 	c #959696",
"2 	c #949494",
"3 	c #919191",
"4 	c #8F9090",
"5 	c #909090",
"6 	c #8F8F8F",
"7 	c #8D8D8D",
"8 	c #8B8B8B",
"9 	c #868484",
"0 	c #838383",
"a 	c #AAAAAA",
"b 	c #D7D6D6",
"c 	c #9D9C9C",
"d 	c #434343",
"e 	c #F4F4F5",
"f 	c #F4F3F4",
"g 	c #F3F4F4",
"h 	c #F3F3F3",
"i 	c #F2F3F3",
"j 	c #F2F2F2",
"k 	c #F2F2F1",
"l 	c #F1F1F1",
"m 	c #F1F0F0",
"n 	c #EFF0EF",
"o 	c #F0F0EF",
"p 	c #EFEFF0",
"q 	c #EFEFEF",
"r 	c #EFEFEE",
"s 	c #555555",
"t 	c #F4F4F4",
"u 	c #F3F2F3",
"v 	c #F2F2F3",
"w 	c #F1F1F0",
"x 	c #F0F1F1",
"y 	c #F0EFF0",
"z 	c #BABABA",
"A 	c #656565",
"B 	c #F4F3F3",
"C 	c #9E9E9E",
"D 	c #9E9E9D",
"E 	c #9E9D9D",
"F 	c #9D9D9D",
"G 	c #9D9C9D",
"H 	c #9C9D9D",
"I 	c #9C9C9D",
"J 	c #9C9D9C",
"K 	c #9C9C9C",
"L 	c #9B9B9C",
"M 	c #9B9C9C",
"N 	c #9A9A9B",
"O 	c #EEEFEF",
"P 	c #EEEEEE",
"Q 	c #595959",
"R 	c #777777",
"S 	c #F2F1F2",
"T 	c #F1F0F1",
"U 	c #F0F0F1",
"V 	c #D7D7D7",
"W 	c #A5A5A5",
"X 	c #EEEEEF",
"Y 	c #EFEEEE",
"Z 	c #EEEDEE",
"` 	c #EEEEED",
" .	c #BEBDBE",
"..	c #626262",
"+.	c #9D9D9E",
"@.	c #9C9B9C",
"#.	c #8B8B8C",
"$.	c #EEEAC6",
"%.	c #CFAD71",
"&.	c #989898",
"*.	c #EDEDED",
"=.	c #EDEEED",
"-.	c #C9C9C9",
";.	c #787878",
">.	c #F3F2F2",
",.	c #F2F3F2",
"'.	c #F0F1F0",
").	c #D6D6D6",
"!.	c #EFEBC7",
"~.	c #D2AC6A",
"{.	c #A18456",
"].	c #E2E2E1",
"^.	c #7C7C7C",
"/.	c #A7A7A7",
"(.	c #F3F3F2",
"_.	c #A48757",
":.	c #979796",
"<.	c #DADADA",
"[.	c #EDECED",
"}.	c #D6D6D5",
"|.	c #818181",
"1.	c #EFF0F0",
"2.	c #CFAA69",
"3.	c #A28458",
"4.	c #ECEDEC",
"5.	c #D5D5D5",
"6.	c #CFCFCF",
"7.	c #F1F1F2",
"8.	c #F0EFEF",
"9.	c #EEE8C6",
"0.	c #CEA668",
"a.	c #A18458",
"b.	c #A1A0A0",
"c.	c #ABABAB",
"d.	c #C5C5C5",
"e.	c #E2E3E3",
"f.	c #ECECEC",
"g.	c #EBECEC",
"h.	c #D5D5D4",
"i.	c #E6E6E6",
"j.	c #F1F2F1",
"k.	c #9C9C9B",
"l.	c #616161",
"m.	c #737373",
"n.	c #858585",
"o.	c #999999",
"p.	c #99999A",
"q.	c #EBECEB",
"r.	c #E2E3E2",
"s.	c #B3B3B3",
"t.	c #CDCECD",
"u.	c #E3E2E2",
"v.	c #ECECED",
"w.	c #ECEBEB",
"x.	c #E2E2E2",
"y.	c #9A9B9B",
"z.	c #8B8B8A",
"A.	c #9E8255",
"B.	c #666666",
"C.	c #717171",
"D.	c #7F807F",
"E.	c #939393",
"F.	c #989999",
"G.	c #EBEBEB",
"H.	c #CDAB6F",
"I.	c #A28556",
"J.	c #A3A3A3",
"K.	c #B4B4B3",
"L.	c #CBCCCC",
"M.	c #E0DFDF",
"N.	c #E9E9E9",
"O.	c #EBEBEA",
"P.	c #E1E1E1",
"Q.	c #9B9B9A",
"R.	c #8A8A8B",
"S.	c #EDE6C5",
"T.	c #CBA165",
"U.	c #A28555",
"V.	c #696A6A",
"W.	c #767676",
"X.	c #878686",
"Y.	c #999998",
"Z.	c #E1E2E2",
"`.	c #EAEAEB",
" +	c #2F2F2F",
".+	c #EDEDEE",
"++	c #EDE5C4",
"@+	c #C89F64",
"#+	c #9F8154",
"$+	c #A1A1A1",
"%+	c #B6B6B5",
"&+	c #D0D0D0",
"*+	c #EAEAEA",
"=+	c #EBEBEC",
"-+	c #EAEBEA",
";+	c #EBEAEA",
">+	c #D3D2D2",
",+	c #9B9A9B",
"'+	c #585858",
")+	c #705B39",
"!+	c #C2AB8A",
"~+	c #A38555",
"{+	c #696869",
"]+	c #757575",
"^+	c #868686",
"/+	c #939392",
"(+	c #999899",
"_+	c #989899",
":+	c #D9D9D9",
"<+	c #E9EAE9",
"[+	c #C6C6C6",
"}+	c #EFEEEF",
"|+	c #EBEAEB",
"1+	c #4C4226",
"2+	c #6B5736",
"3+	c #B4B5B4",
"4+	c #EAE9EA",
"5+	c #EAEBEB",
"6+	c #B8B8B8",
"7+	c #A1A2A1",
"8+	c #B4B4B4",
"9+	c #E9EAEA",
"0+	c #E9E8E9",
"a+	c #D3D3D3",
"b+	c #747474",
"c+	c #DCDDDC",
"d+	c #BCBCBC",
"e+	c #A8A8A8",
"f+	c #B9B9B9",
"g+	c #E9E9EA",
"h+	c #EAEAE9",
"i+	c #DDDCDD",
"j+	c #C2C3C2",
"k+	c #BBBBBC",
"l+	c #CBCBCB",
"m+	c #D8D8D8",
"n+	c #E4E3E3",
"o+	c #E8E9E9",
"p+	c #E8E8E8",
"q+	c #848484",
"r+	c #EDEEEE",
"s+	c #E5E5E5",
"t+	c #DCDCDC",
"u+	c #E3E2E3",
"v+	c #E9E8E8",
"w+	c #EAE9E9",
"x+	c #E8E9E8",
"y+	c #E7E8E8",
"z+	c #EEEDED",
"A+	c #FEFEFE",
"B+	c #FDFDFD",
"C+	c #B5B5B5",
"          .   .   .   .   .   .   .   .   .   .   .             ",
"    . . . + . + . + . + . + . + . + . + . + . + . + . . .       ",
"    . @ . # . $ . $ . $ . $ . $ . $ . $ . $ . $ . $ . % .       ",
"    . & * = - = - = - = - = - = - = - = - = ; > - = , ' .       ",
"    . ) ! ~ { ] ^ / ( _ : < [ } | 1 2 3 4 5 6 7 8 9 0 a .       ",
"    . b b b b b b b b b b b b b b b b b b b b b b b b c .       ",
"    d + e e f g g h h i j j j k l l l m @ @ n o p q r % d       ",
"    s + t t g h h u v j j j l l w x @ @ @ p y n q r r z s       ",
"    A + g B C C D E F G H I J K K K K K L M [ [ N O P % Q       ",
"    R f B h h v v j k S S l T U @ @ @ V . . W X Y Z `  ...      ",
"    3 h h h C +.F c G H K K K K @.M #.. $.%.. &.} *.=.-.;.      ",
"  . , h i >.,.S j l l '.m @ @ @ q ).. !.~.{.. ].=.*.*.-.^..     ",
"  . /.(.,.j F F K K K K '.y y p b . !.~._.. :.<.*.*.[.}.|..     ",
"  . z j j k j l T x x @ 1.p @ ).. $.2.3.. #.z ) *.*.4.5.5 .     ",
"  . 6.k l 7.l l m @ @ p 8.8.V . 9.0.a.. b.c.d.e.f.f.g.h., .     ",
"  . i.j.7.l K K K K M k.[ 8 . !.~._.. l.m.n., o.p.f.q.r.C .     ",
"  . + l w '.@ @ @ q q q ).. $.2.3.. } s.t.u.v.f.f.q.w.x.% .     ",
"  . + l '.U K M k.[ y.z.. 9.0.A.. B.C.D.E.o.o.o.F.G.G.x.% .     ",
"  . + '.U y p n q q 5.. 9.H.I.. J.K.L.M.N.q.w.q.G.O.G.'.% .     ",
"  . + o p P.[ [ Q.R.. S.T.U.. V.W.X.3 | &.&.Y.&.&.Z.`.o % .     ",
"   ++ @ 1.p O Y .+. ++@+#+. $+%+&+x.*+=+G.G.G.-+;+*+*+@ %  +    ",
"  A + 8.1.>+,+o.'+)+!+~+. {+]+^+/+| (+_+&.&.&.&.&.:+<+8.[+Q     ",
"  A + r X }+P |+. 1+2+. $+3+6.].4+G.G.5+G.5+*+*+4+<+N.r [+Q     ",
"  A + q q 6+o.2 . . m.7+8+6.Z.4+G.G.O.|+*+*+*+9+N.N.0+q a+Q     ",
"  b++ P Z P G.c+d+e+c.f+&+P.g+G.O.G.|+*+*+*+h+g+N.N.0+P a+B.    ",
"  b++ P P Z G.i+j+k+l+m+n+;+G.`.G.-+*+h+9+h+N.0+N.o+p+P P.B.    ",
"  q+Z r+=.*.g.s+t+) u+v+`.G.G.|+`.*+*+w+h+N.N.x+p+p+y+r+P.b+    ",
". ^+z++ + + + A+B+B+A++ + + + + + + + + + + + + + + + + M.W.    ",
"  . C+C+C+C+C+C+C+C+C+C+C+C+C+C+C+C+C+C+C+C+C+C+C+C+C+C+a .     ",
"  . . . . . . . . . . . . . . . . . . . . . . . . . . . . .     ",
"                                                                ",
"                                                                "};
