/* XPM */
static char * appl_xpm[] = {
"32 16 227 2",
"  	c None",
". 	c #000000",
"+ 	c #010101",
"@ 	c #020000",
"# 	c #0C0000",
"$ 	c #0F0000",
"% 	c #050000",
"& 	c #090000",
"* 	c #010000",
"= 	c #040000",
"- 	c #280000",
"; 	c #851717",
"> 	c #A53C3C",
", 	c #3A0000",
"' 	c #0B0000",
") 	c #120000",
"! 	c #470000",
"~ 	c #7C0707",
"{ 	c #680404",
"] 	c #1C0000",
"^ 	c #1F0101",
"/ 	c #AC2626",
"( 	c #BF2222",
"_ 	c #BD2B2B",
": 	c #AB2121",
"< 	c #380606",
"[ 	c #160000",
"} 	c #060000",
"| 	c #540303",
"1 	c #CE3838",
"2 	c #AD1212",
"3 	c #C62F2F",
"4 	c #4A0808",
"5 	c #150000",
"6 	c #0E0000",
"7 	c #140000",
"8 	c #1A0000",
"9 	c #190000",
"0 	c #1B0000",
"a 	c #070000",
"b 	c #650404",
"c 	c #E36E6E",
"d 	c #6A0909",
"e 	c #5D1212",
"f 	c #7B1212",
"g 	c #5F0E0E",
"h 	c #9A1E1E",
"i 	c #390000",
"j 	c #9C1919",
"k 	c #E26C6C",
"l 	c #751515",
"m 	c #860808",
"n 	c #AB1E1E",
"o 	c #A63B3B",
"p 	c #570000",
"q 	c #9A2525",
"r 	c #870404",
"s 	c #B93A3A",
"t 	c #A21212",
"u 	c #B43434",
"v 	c #3E0000",
"w 	c #550000",
"x 	c #AF2626",
"y 	c #912020",
"z 	c #840E0E",
"A 	c #DC5858",
"B 	c #DC5757",
"C 	c #9C2020",
"D 	c #B73636",
"E 	c #8D1515",
"F 	c #B31D1D",
"G 	c #F79292",
"H 	c #870909",
"I 	c #170404",
"J 	c #080000",
"K 	c #6A0606",
"L 	c #EF6262",
"M 	c #B32D2D",
"N 	c #550101",
"O 	c #900A0A",
"P 	c #E06161",
"Q 	c #B71C1C",
"R 	c #DB4545",
"S 	c #D00A0A",
"T 	c #F99595",
"U 	c #DC1D1D",
"V 	c #E96E6E",
"W 	c #830A0A",
"X 	c #CF2E2E",
"Y 	c #E33C3C",
"Z 	c #C93535",
"` 	c #A41717",
" .	c #C11F1F",
"..	c #DE5B5B",
"+.	c #CB3939",
"@.	c #AD1515",
"#.	c #E76060",
"$.	c #B62F2F",
"%.	c #D34949",
"&.	c #D74F4F",
"*.	c #7D2E2E",
"=.	c #1A0C0C",
"-.	c #0A0000",
";.	c #220000",
">.	c #A31F1F",
",.	c #E96262",
"'.	c #5C0F0F",
").	c #2E0202",
"!.	c #B52929",
"~.	c #E74F4F",
"{.	c #C41A1A",
"].	c #C51E1E",
"^.	c #E36D6D",
"/.	c #CB3C3C",
"(.	c #D64141",
"_.	c #C21F1F",
":.	c #F68B8B",
"<.	c #C40D0D",
"[.	c #9A0A0A",
"}.	c #E96363",
"|.	c #910101",
"1.	c #D95757",
"2.	c #AA2E2E",
"3.	c #830C0C",
"4.	c #EC7D7D",
"5.	c #941414",
"6.	c #E27171",
"7.	c #9F1111",
"8.	c #572C2C",
"9.	c #430909",
"0.	c #5F0B0B",
"a.	c #230000",
"b.	c #650909",
"c.	c #D95353",
"d.	c #732A2A",
"e.	c #8F1C1C",
"f.	c #F26565",
"g.	c #A40F0F",
"h.	c #D34F4F",
"i.	c #BA2F2F",
"j.	c #D25656",
"k.	c #D92A2A",
"l.	c #E23232",
"m.	c #EB6363",
"n.	c #B00D0D",
"o.	c #B50707",
"p.	c #F58989",
"q.	c #EE6E6E",
"r.	c #BD2626",
"s.	c #A71010",
"t.	c #F28484",
"u.	c #B20808",
"v.	c #EE7A7A",
"w.	c #B70F0F",
"x.	c #790E0E",
"y.	c #100000",
"z.	c #711A1A",
"A.	c #D24848",
"B.	c #961212",
"C.	c #A51616",
"D.	c #A32323",
"E.	c #441F1F",
"F.	c #110101",
"G.	c #881919",
"H.	c #DB5656",
"I.	c #812929",
"J.	c #A53434",
"K.	c #710C0C",
"L.	c #A03131",
"M.	c #B62828",
"N.	c #A81D1D",
"O.	c #D34C4C",
"P.	c #A62828",
"Q.	c #730808",
"R.	c #CE4949",
"S.	c #C93131",
"T.	c #C83F3F",
"U.	c #A43434",
"V.	c #891414",
"W.	c #C44545",
"X.	c #971515",
"Y.	c #C14545",
"Z.	c #AF2929",
"`.	c #421010",
" +	c #0C0505",
".+	c #1D0000",
"++	c #691212",
"@+	c #851919",
"#+	c #650A0A",
"$+	c #420D0D",
"%+	c #320808",
"&+	c #420000",
"*+	c #AA1414",
"=+	c #841919",
"-+	c #371E1E",
";+	c #180000",
">+	c #1D0A0A",
",+	c #1B0101",
"'+	c #2A0F0F",
")+	c #240A0A",
"!+	c #2F0707",
"~+	c #2D1717",
"{+	c #190808",
"]+	c #250101",
"^+	c #3C1818",
"/+	c #321111",
"(+	c #2F1D1D",
"_+	c #1B0404",
":+	c #270606",
"<+	c #291313",
"[+	c #210000",
"}+	c #2C1717",
"|+	c #0E0909",
"1+	c #120505",
"2+	c #140606",
"3+	c #510909",
"4+	c #C75757",
"5+	c #CB3333",
"6+	c #860A0A",
"7+	c #371818",
"8+	c #090707",
"9+	c #030000",
"0+	c #2C0000",
"a+	c #7E1C1C",
"b+	c #610F0F",
"c+	c #2D1111",
"d+	c #090101",
". . . . . . . . . . . . . . . . . . . . . . . . . . . + . . . . ",
". . . . . . . . . . . . . . . . . . . . . . . . . . . . . . . . ",
". . . . . . . . . . . . . . . . . . . . . . . @ # $ % . . . . . ",
". . . . . % # & * . . . . . . . . . . . . . = - ; > , ' . . . . ",
". . . . ) ! ~ { ] * . . . . . . . . . * . + ^ / ( _ : < [ ' . . ",
". . . } | 1 2 3 4 5 6 5 7 8 9 9 ' ' 0 7 a 7 b c d e f g h i % . ",
". . . $ j k l m n o p q r s t u v w x y i z A B C D E F G H I . ",
". . . J K L M N O P Q R S T U V W X Y Z `  ...+.@.#.$.%.&.*.=.. ",
". . } -.;.>.,.'.).!.~.{.].^./.(._.:.<.[.}.|.1.2.3.4.5.6.7.8.a . ",
". % 9.0.a.b.c.d.) e.f.g.h.i.j.k.l.m.n.o.p.{.q.r.s.t.u.v.w.x.y.. ",
". J z.A.B.C.D.E.F.G.H.I.J.K.L.M.N.O.P.Q.R.S.T.U.V.W.X.Y.Z.`. +. ",
". @ .+++@+#+$+%+&+*+=+-+;+>+,+'+)+!+~+{+]+^+/+(+_+:+<+[+}+|+. . ",
". . @ J 1+2+3+4+5+6+7+8+. . * . . . . * . * . . * . * * * . . . ",
". . . . . 9+0+a+b+c+8+. . . . . . . . . . . . . . . . . . . . . ",
". . . . . . 9+d+|++ . . . . . . . . . . . . . . . . . . . . . . ",
". . . . . . . . . . . . . . . . . . . . . . . . . . . . . . . . "};
