/* XPM */
static char * appl_xpm[] = {
"32 32 186 2",
"  	c None",
". 	c #00FB00",
"+ 	c #00FA00",
"@ 	c #00FC00",
"# 	c #00FD00",
"$ 	c #00FE00",
"% 	c #00FF00",
"& 	c #00FD01",
"* 	c #00FB01",
"= 	c #00FB02",
"- 	c #00FC01",
"; 	c #00FA03",
"> 	c #00F805",
", 	c #00F507",
"' 	c #00F309",
") 	c #00F20A",
"! 	c #00F409",
"~ 	c #00F606",
"{ 	c #00F904",
"] 	c #00FC02",
"^ 	c #00EC10",
"/ 	c #00E516",
"( 	c #00E01B",
"_ 	c #00DF1C",
": 	c #00E218",
"< 	c #00E813",
"[ 	c #00F00C",
"} 	c #00F607",
"| 	c #00F706",
"1 	c #00EE0D",
"2 	c #00D425",
"3 	c #00C731",
"4 	c #00BE39",
"5 	c #00BC3B",
"6 	c #00C236",
"7 	c #00CE2A",
"8 	c #00DD1D",
"9 	c #00EA11",
"0 	c #00F408",
"a 	c #00EF0E",
"b 	c #00C930",
"c 	c #00B245",
"d 	c #009E57",
"e 	c #009163",
"f 	c #008E65",
"g 	c #00975D",
"h 	c #00A94C",
"i 	c #00C037",
"j 	c #00D722",
"k 	c #00E912",
"l 	c #00FB03",
"m 	c #00F30A",
"n 	c #00E318",
"o 	c #00C92F",
"p 	c #008A69",
"q 	c #007180",
"r 	c #00628E",
"s 	c #006091",
"t 	c #006A87",
"u 	c #007F73",
"v 	c #00DB1F",
"w 	c #00EE0E",
"x 	c #00F905",
"y 	c #00D525",
"z 	c #008B69",
"A 	c #00668B",
"B 	c #004CA4",
"C 	c #013DB1",
"D 	c #013BB3",
"E 	c #0145AA",
"F 	c #015B95",
"G 	c #007D76",
"H 	c #00A551",
"I 	c #00CB2F",
"J 	c #00E615",
"K 	c #00F508",
"L 	c #00C831",
"M 	c #007181",
"N 	c #004BA5",
"O 	c #0032BC",
"P 	c #0026C8",
"Q 	c #0125C9",
"R 	c #012EC0",
"S 	c #0142AD",
"T 	c #01648E",
"U 	c #009065",
"V 	c #00BC3C",
"W 	c #00DF1D",
"X 	c #00BF3A",
"Y 	c #009164",
"Z 	c #006290",
"` 	c #003CB3",
" .	c #0025CA",
"..	c #011BD4",
"+.	c #011AD4",
"@.	c #0123CC",
"#.	c #0136BA",
"$.	c #01579B",
"%.	c #008471",
"&.	c #00B444",
"*.	c #00DA21",
"=.	c #00BD3C",
"-.	c #008F66",
";.	c #005F92",
">.	c #0039B6",
",.	c #0022CD",
"'.	c #0018D6",
").	c #0119D6",
"!.	c #0122CD",
"~.	c #0135BB",
"{.	c #01579C",
"].	c #008472",
"^.	c #00B445",
"/.	c #00DA22",
"(.	c #00F00D",
"_.	c #00E219",
":.	c #00C235",
"<.	c #006987",
"[.	c #0043AB",
"}.	c #002BC3",
"|.	c #0020CE",
"1.	c #0120CE",
"2.	c #012BC4",
"3.	c #0141B0",
"4.	c #016490",
"5.	c #009067",
"6.	c #00BC3E",
"7.	c #00DE1E",
"8.	c #00F20B",
"9.	c #00F707",
"0.	c #00E913",
"a.	c #00CF29",
"b.	c #00AA4A",
"c.	c #008070",
"d.	c #005B92",
"e.	c #0041AC",
"f.	c #0035B9",
"g.	c #0135B9",
"h.	c #0141AE",
"i.	c #015998",
"j.	c #017C78",
"k.	c #01A453",
"l.	c #00CA30",
"m.	c #00E616",
"n.	c #00DE1C",
"o.	c #00C134",
"p.	c #00A051",
"q.	c #007F6F",
"r.	c #006686",
"s.	c #005893",
"t.	c #005894",
"u.	c #016589",
"v.	c #017D74",
"w.	c #019C59",
"x.	c #00BE3B",
"y.	c #00DA20",
"z.	c #00EB10",
"A.	c #00D81F",
"B.	c #00C033",
"C.	c #00A849",
"D.	c #00935B",
"E.	c #008766",
"F.	c #00925E",
"G.	c #00A64E",
"H.	c #00D624",
"I.	c #00EA10",
"J.	c #00DC1B",
"K.	c #00CD28",
"L.	c #00BF34",
"M.	c #00B73A",
"N.	c #00B73B",
"O.	c #00BE35",
"P.	c #00CB2B",
"Q.	c #00DB1E",
"R.	c #00EF0C",
"S.	c #00E712",
"T.	c #00E018",
"U.	c #00DB1B",
"V.	c #00DF18",
"W.	c #00E613",
"X.	c #00F308",
"Y.	c #00F109",
"Z.	c #00F208",
"`.	c #00F506",
" +	c #00F804",
".+	c #00FA02",
"                  . . + @ # # $ $ # # @ + . .                   ",
"                # @ . @ @ # # $ $ # # @ # @ @ #                 ",
"              . # $ $ $ # $ $ $ $ $ # # $ $ $ # .               ",
"            # $ % $ $ # $ $ $ % % $ $ $ $ $ $ % $ #             ",
"          + @ $ % $ % $ % % % $ $ % % $ $ % $ % $ @ +           ",
"        + @ $ % % % % % $ % % $ $ % % $ % % % % % $ @ +         ",
"      # $ $ $ % $ $ $ % % % # # # # % % % $ $ $ % $ $ $ #       ",
"    % $ $ $ % % % $ % $ $ & * = = = & $ $ $ $ % % % $ $ $ %     ",
"  # # % % % % % % % # - ; > , ' ) ! ~ { ] # % % % % % % % # #   ",
"# # $ % $ % % % % # ] > ) ^ / ( _ : < [ } ; & % % % % $ % $ # # ",
". $ $ $ % % % % $ ] | 1 : 2 3 4 5 6 7 8 9 0 ; & % % % % $ $ $ . ",
". @ $ % % % % % - > a _ b c d e f g h i j k , = % % % % % $ @ . ",
"@ # $ $ % % % # l m n o h p q r s t u d 4 v w x & % % % $ $ # @ ",
"# # $ $ % % $ & > ^ y c z A B C D E F G H I J K ] $ % % $ $ # # ",
"$ $ % % % % $ ] K / L d M N O P Q R S T U V W ) l $ % % % % $ $ ",
"$ $ % % % $ $ l m ( X Y Z `  ...+.@.#.$.%.&.*.[ ; $ $ % % % $ $ ",
"$ $ % % % $ $ l m _ =.-.;.>.,.'.).!.~.{.].^./.(.; $ $ % % % $ $ ",
"$ $ % % % % $ = ! _.:.g <.[.}.|.1.2.3.4.5.6.7.8.l $ % % % % $ $ ",
"# # $ $ % % $ - 9.0.a.b.c.d.e.f.g.h.i.j.k.l.m.K ] $ % % $ $ # # ",
"@ # $ $ % % % & { [ n.o.p.q.r.s.t.u.v.w.x.y.w x & % % % $ $ # @ ",
". @ $ % % % % % ] ~ z.A.B.C.D.E.E.F.G.4 H.0.K = % % % % % $ @ . ",
". @ $ $ % % % % # l , I.J.K.L.M.N.O.P.Q.k ! ; & % % % % $ $ @ . ",
"# # $ % $ % % % % & ; ~ R.S.T.J.U.V.W.1 , ; & % % % % $ % $ # # ",
"  # # % % % % % % % # = { ~ X.Y.Y.Z.`. += & % % % % % % % # #   ",
"    % $ $ $ % % % $ $ $ # & = .+.+= & # $ $ $ % % % $ $ $ %     ",
"      # $ $ $ % $ $ $ % % $ # # # # $ % % $ $ $ % $ $ $ #       ",
"        ] @ $ % % % % % $ % % $ $ % % $ % % % % % $ @ ]         ",
"          .+$ $ % $ % $ $ $ % $ $ % % $ $ % $ % $ $ .+          ",
"            # $ % $ $ $ $ $ $ % % $ $ $ $ $ $ % $ #             ",
"              # # $ $ $ # $ $ $ $ $ # # $ $ $ # #               ",
"                # @ @ # @ # # $ $ # # @ # @ @ #                 ",
"                  . . + @ # # $ $ # # # . . .                   "};
