/* XPM */
static char * appl_xpm[] = {
"32 32 734 2",
"  	c None",
". 	c #1C5541",
"+ 	c #287158",
"@ 	c #1B624B",
"# 	c #0D5B47",
"$ 	c #0F6856",
"% 	c #046355",
"& 	c #095646",
"* 	c #24775B",
"= 	c #246D50",
"- 	c #226341",
"; 	c #0F5642",
"> 	c #07695A",
", 	c #056050",
"' 	c #145B4F",
") 	c #094D41",
"! 	c #07624F",
"~ 	c #127365",
"{ 	c #0F6355",
"] 	c #0E6555",
"^ 	c #1E7A6B",
"/ 	c #1E7F6F",
"( 	c #045C4D",
"_ 	c #147462",
": 	c #185B3E",
"< 	c #276D4B",
"[ 	c #04584B",
"} 	c #0B6B5B",
"| 	c #086B5C",
"1 	c #066152",
"2 	c #0A6453",
"3 	c #0E6757",
"4 	c #1F7D70",
"5 	c #136C5D",
"6 	c #034C3E",
"7 	c #1A7565",
"8 	c #0F6A5E",
"9 	c #0E7061",
"0 	c #035E4F",
"a 	c #0F7563",
"b 	c #025648",
"c 	c #025A4A",
"d 	c #1C6747",
"e 	c #155F45",
"f 	c #0D6E5C",
"g 	c #065649",
"h 	c #0D6355",
"i 	c #055D51",
"j 	c #035B4E",
"k 	c #035B4D",
"l 	c #197567",
"m 	c #0A695A",
"n 	c #034A3C",
"o 	c #12695A",
"p 	c #0B6D5D",
"q 	c #107466",
"r 	c #05685A",
"s 	c #046655",
"t 	c #086859",
"u 	c #025244",
"v 	c #045E4C",
"w 	c #066659",
"x 	c #106749",
"y 	c #2B623F",
"z 	c #10624D",
"A 	c #197263",
"B 	c #045549",
"C 	c #086051",
"D 	c #055D4E",
"E 	c #086453",
"F 	c #036454",
"G 	c #056659",
"H 	c #046455",
"I 	c #0A6153",
"J 	c #085748",
"K 	c #0C6557",
"L 	c #0A6053",
"M 	c #045F4E",
"N 	c #025546",
"O 	c #075D4E",
"P 	c #024C3E",
"Q 	c #045543",
"R 	c #096859",
"S 	c #167B6C",
"T 	c #0E604C",
"U 	c #29603A",
"V 	c #177663",
"W 	c #04604F",
"X 	c #0C6D5C",
"Y 	c #05584B",
"Z 	c #147564",
"` 	c #085E4F",
" .	c #025444",
"..	c #106D5C",
"+.	c #076556",
"@.	c #035A4D",
"#.	c #127363",
"$.	c #146B5D",
"%.	c #093E2F",
"&.	c #025548",
"*.	c #0F6E5C",
"=.	c #065D4E",
"-.	c #004D3E",
";.	c #146A5C",
">.	c #0D695B",
",.	c #096557",
"'.	c #045F4F",
").	c #035A4B",
"!.	c #085C4D",
"~.	c #116A56",
"{.	c #1C7459",
"].	c #0C6152",
"^.	c #015748",
"/.	c #06594C",
"(.	c #035B4C",
"_.	c #035D4D",
":.	c #065E50",
"<.	c #045B4E",
"[.	c #0A6352",
"}.	c #034B3E",
"|.	c #036552",
"1.	c #0F7262",
"2.	c #0D5747",
"3.	c #065745",
"4.	c #147667",
"5.	c #0F5C4B",
"6.	c #0A6254",
"7.	c #126B5B",
"8.	c #0D6050",
"9.	c #0E6253",
"0.	c #025E4E",
"a.	c #106C5F",
"b.	c #137566",
"c.	c #0A6758",
"d.	c #02594B",
"e.	c #106348",
"f.	c #196043",
"g.	c #145F4F",
"h.	c #033F31",
"i.	c #045B4A",
"j.	c #065A4B",
"k.	c #09594B",
"l.	c #096656",
"m.	c #055345",
"n.	c #046351",
"o.	c #056054",
"p.	c #0C7163",
"q.	c #0D7262",
"r.	c #065746",
"s.	c #27806F",
"t.	c #0A554A",
"u.	c #0D614F",
"v.	c #116E62",
"w.	c #086052",
"x.	c #0D6453",
"y.	c #0B6453",
"z.	c #0F695B",
"A.	c #117566",
"B.	c #0F6855",
"C.	c #063F36",
"D.	c #035647",
"E.	c #036251",
"F.	c #1A603F",
"G.	c #0A6755",
"H.	c #034136",
"I.	c #03614F",
"J.	c #0E6D5D",
"K.	c #0C6052",
"L.	c #0B6052",
"M.	c #157565",
"N.	c #056859",
"O.	c #086856",
"P.	c #0C6254",
"Q.	c #046253",
"R.	c #187669",
"S.	c #258879",
"T.	c #045445",
"U.	c #0C5346",
"V.	c #064E41",
"W.	c #187E6B",
"X.	c #056351",
"Y.	c #0B6355",
"Z.	c #0D695C",
"`.	c #137467",
" +	c #127768",
".+	c #034635",
"++	c #065243",
"@+	c #036754",
"#+	c #19796C",
"$+	c #339688",
"%+	c #17614C",
"&+	c #025C4B",
"*+	c #046556",
"=+	c #026152",
"-+	c #1C7B6C",
";+	c #0D6A5A",
">+	c #18796B",
",+	c #096B5E",
"'+	c #025E4F",
")+	c #096152",
"!+	c #096958",
"~+	c #1B816F",
"{+	c #136256",
"]+	c #013D32",
"^+	c #055F4E",
"/+	c #147A6A",
"(+	c #137263",
"_+	c #015A4A",
":+	c #126E5F",
"<+	c #0B6457",
"[+	c #258779",
"}+	c #17725F",
"|+	c #094739",
"1+	c #054B3D",
"2+	c #02584A",
"3+	c #086B5D",
"4+	c #1D8272",
"5+	c #116C5D",
"6+	c #195531",
"7+	c #0A6F5C",
"8+	c #0D675A",
"9+	c #0D6A5B",
"0+	c #0D6858",
"a+	c #107260",
"b+	c #1A7465",
"c+	c #126D5F",
"d+	c #076959",
"e+	c #096B5D",
"f+	c #065548",
"g+	c #0C6959",
"h+	c #066A59",
"i+	c #0E6559",
"j+	c #035445",
"k+	c #117567",
"l+	c #28897C",
"m+	c #075F50",
"n+	c #1C7467",
"o+	c #055D4D",
"p+	c #0E6E5F",
"q+	c #116F61",
"r+	c #065C4C",
"s+	c #065040",
"t+	c #0D6C59",
"u+	c #0C695A",
"v+	c #127668",
"w+	c #136F60",
"x+	c #084D41",
"y+	c #085344",
"z+	c #2C6446",
"A+	c #187B69",
"B+	c #0D6757",
"C+	c #0A6958",
"D+	c #0E695A",
"E+	c #176F5F",
"F+	c #0E6F60",
"G+	c #15796C",
"H+	c #056456",
"I+	c #076455",
"J+	c #015041",
"K+	c #085D4E",
"L+	c #1B7E6E",
"M+	c #05615D",
"N+	c #094599",
"O+	c #0317DC",
"P+	c #0003FB",
"Q+	c #061ADF",
"R+	c #023591",
"S+	c #18746B",
"T+	c #025849",
"U+	c #18796A",
"V+	c #095E52",
"W+	c #1B7363",
"X+	c #054E3F",
"Y+	c #197B6D",
"Z+	c #08685A",
"`+	c #137567",
" @	c #117464",
".@	c #0A6959",
"+@	c #177B6D",
"@@	c #2A6749",
"#@	c #1B6545",
"$@	c #0A6A5B",
"%@	c #054B3F",
"&@	c #0C6C5C",
"*@	c #117263",
"=@	c #0D5F4E",
"-@	c #02594A",
";@	c #045849",
">@	c #004D40",
",@	c #15705F",
"'@	c #0C596A",
")@	c #0004F6",
"!@	c #054580",
"~@	c #0016D0",
"{@	c #052BBC",
"]@	c #0013CE",
"^@	c #084781",
"/@	c #0004F7",
"(@	c #045747",
"_@	c #0C6355",
":@	c #0E675B",
"<@	c #106E5E",
"[@	c #035948",
"}@	c #146E61",
"|@	c #035343",
"1@	c #11594A",
"2@	c #024E41",
"3@	c #0C685A",
"4@	c #106D5D",
"5@	c #104D2F",
"6@	c #20785D",
"7@	c #187B6A",
"8@	c #08574C",
"9@	c #1C8474",
"0@	c #0F6E60",
"a@	c #095B4B",
"b@	c #09695A",
"c@	c #03594B",
"d@	c #065345",
"e@	c #0B5B4D",
"f@	c #0A6759",
"g@	c #035A59",
"h@	c #000EE4",
"i@	c #032DB6",
"j@	c #0000FF",
"k@	c #0013CB",
"l@	c #0327B0",
"m@	c #0005F7",
"n@	c #0B6B61",
"o@	c #106E5F",
"p@	c #0F6758",
"q@	c #034133",
"r@	c #055748",
"s@	c #0C6354",
"t@	c #066655",
"u@	c #1D7565",
"v@	c #165A43",
"w@	c #166B59",
"x@	c #044A39",
"y@	c #0D6C60",
"z@	c #035B4A",
"A@	c #096253",
"B@	c #107163",
"C@	c #055949",
"D@	c #0E6457",
"E@	c #01584A",
"F@	c #084399",
"G@	c #073BAC",
"H@	c #05428D",
"I@	c #020EE9",
"J@	c #0311E9",
"K@	c #0B4D9A",
"L@	c #0A5A79",
"M@	c #06348B",
"N@	c #0E5F51",
"O@	c #086151",
"P@	c #075B4C",
"Q@	c #096456",
"R@	c #228876",
"S@	c #0C5D4F",
"T@	c #10584C",
"U@	c #17695B",
"V@	c #117261",
"W@	c #177365",
"X@	c #066855",
"Y@	c #0A5E50",
"Z@	c #025B4D",
"`@	c #0C6D5D",
" #	c #0F6F60",
".#	c #095D4F",
"+#	c #0C6353",
"@#	c #0C5C4E",
"##	c #0A6353",
"$#	c #096351",
"%#	c #0015D7",
"&#	c #08409F",
"*#	c #0114CC",
"=#	c #020DE8",
"-#	c #000AE5",
";#	c #08428E",
">#	c #0014CE",
",#	c #0212DA",
"'#	c #05473B",
")#	c #086152",
"!#	c #0D6C5D",
"~#	c #0C6657",
"{#	c #1C7866",
"]#	c #054339",
"^#	c #045C4C",
"/#	c #0F695C",
"(#	c #025344",
"_#	c #075D4D",
":#	c #0E7062",
"<#	c #0E7364",
"[#	c #268777",
"}#	c #076052",
"|#	c #055F50",
"1#	c #096757",
"2#	c #1E7D6D",
"3#	c #055848",
"4#	c #095A4C",
"5#	c #0A6355",
"6#	c #0002FB",
"7#	c #0003F9",
"8#	c #0008E1",
"9#	c #024068",
"0#	c #010FE6",
"a#	c #000CE6",
"b#	c #0F6F5F",
"c#	c #0E7161",
"d#	c #187A6C",
"e#	c #0F6655",
"f#	c #0C594A",
"g#	c #0D6454",
"h#	c #076A59",
"i#	c #218275",
"j#	c #04564A",
"k#	c #187761",
"l#	c #1A7B6B",
"m#	c #0F6556",
"n#	c #096554",
"o#	c #065C4D",
"p#	c #065242",
"q#	c #055A4B",
"r#	c #0B685A",
"s#	c #0D6154",
"t#	c #065B4B",
"u#	c #0D7261",
"v#	c #0115DA",
"w#	c #0316DC",
"x#	c #000DE5",
"y#	c #0C3FA5",
"z#	c #031CD6",
"A#	c #0216DA",
"B#	c #095A4B",
"C#	c #03463A",
"D#	c #147262",
"E#	c #034C3F",
"F#	c #076051",
"G#	c #127262",
"H#	c #187566",
"I#	c #024535",
"J#	c #0B6353",
"K#	c #2B8569",
"L#	c #096E5F",
"M#	c #136F61",
"N#	c #045243",
"O#	c #045446",
"P#	c #1E7E6F",
"Q#	c #208374",
"R#	c #0A6557",
"S#	c #0E6556",
"T#	c #147767",
"U#	c #1554A7",
"V#	c #053C79",
"W#	c #03408C",
"X#	c #0D5B80",
"Y#	c #021CD3",
"Z#	c #0D528F",
"`#	c #0E4A9F",
" $	c #0B705D",
".$	c #1F7F70",
"+$	c #137768",
"@$	c #056152",
"#$	c #045E4F",
"$$	c #086858",
"%$	c #076252",
"&$	c #034C3D",
"*$	c #13604C",
"=$	c #1A5A39",
"-$	c #056151",
";$	c #056254",
">$	c #045748",
",$	c #0B5C4C",
"'$	c #106B5D",
")$	c #0E7060",
"!$	c #096B5B",
"~$	c #066355",
"{$	c #0E6F61",
"]$	c #046658",
"^$	c #025756",
"/$	c #0003F6",
"($	c #022BB2",
"_$	c #044692",
":$	c #020EE6",
"<$	c #064590",
"[$	c #0733BC",
"}$	c #0005F8",
"|$	c #0C6760",
"1$	c #107063",
"2$	c #0E7163",
"3$	c #0F7162",
"4$	c #095F50",
"5$	c #005143",
"6$	c #096C5D",
"7$	c #09685B",
"8$	c #066657",
"9$	c #185D49",
"0$	c #2A6540",
"a$	c #045F4D",
"b$	c #034D3D",
"c$	c #044136",
"d$	c #0C5D4C",
"e$	c #0E6858",
"f$	c #085B4E",
"g$	c #015948",
"h$	c #055344",
"i$	c #025848",
"j$	c #054E5D",
"k$	c #03486F",
"l$	c #054884",
"m$	c #051CD6",
"n$	c #023729",
"o$	c #0118D2",
"p$	c #0E5492",
"q$	c #004D62",
"r$	c #046151",
"s$	c #025F4F",
"t$	c #066050",
"u$	c #03493A",
"v$	c #045547",
"w$	c #0C7162",
"x$	c #0F6959",
"y$	c #076C5B",
"z$	c #1E5645",
"A$	c #086355",
"B$	c #035F51",
"C$	c #1B7F6D",
"D$	c #1C7F6D",
"E$	c #0B6050",
"F$	c #085B4F",
"G$	c #046050",
"H$	c #045B4D",
"I$	c #045A4B",
"J$	c #075C4D",
"K$	c #0A625F",
"L$	c #1250A5",
"M$	c #0115D6",
"N$	c #0001FA",
"O$	c #0015DA",
"P$	c #06449A",
"Q$	c #0A615E",
"R$	c #0C705D",
"S$	c #096756",
"T$	c #045647",
"U$	c #04473A",
"V$	c #0D5E50",
"W$	c #046554",
"X$	c #0B6D5E",
"Y$	c #116A5D",
"Z$	c #106759",
"`$	c #055142",
" %	c #1C6A45",
".%	c #107768",
"+%	c #1C7E6F",
"@%	c #06594A",
"#%	c #045C4E",
"$%	c #096858",
"%%	c #096959",
"&%	c #076756",
"*%	c #0D6E60",
"=%	c #177D6E",
"-%	c #147568",
";%	c #044C3B",
">%	c #075B4D",
",%	c #015F51",
"'%	c #066A5A",
")%	c #0A5E4F",
"!%	c #0B705C",
"~%	c #08594D",
"{%	c #044F43",
"]%	c #066554",
"^%	c #0A6D5E",
"/%	c #0A6156",
"(%	c #066455",
"_%	c #127462",
":%	c #0C584B",
"<%	c #1C654C",
"[%	c #076356",
"}%	c #086255",
"|%	c #157260",
"1%	c #05584C",
"2%	c #107767",
"3%	c #127366",
"4%	c #137767",
"5%	c #0D6051",
"6%	c #0F6B5A",
"7%	c #197A69",
"8%	c #045545",
"9%	c #025647",
"0%	c #026656",
"a%	c #056A5A",
"b%	c #065D50",
"c%	c #0B5D4E",
"d%	c #0B5A4C",
"e%	c #0B5E4F",
"f%	c #197163",
"g%	c #035748",
"h%	c #116C5A",
"i%	c #085E4D",
"j%	c #246A43",
"k%	c #076A58",
"l%	c #0B6C5E",
"m%	c #076155",
"n%	c #1B7769",
"o%	c #106353",
"p%	c #044C3C",
"q%	c #126759",
"r%	c #075B4B",
"s%	c #0F6152",
"t%	c #0B6556",
"u%	c #004639",
"v%	c #0C6656",
"w%	c #056154",
"x%	c #036052",
"y%	c #177C6D",
"z%	c #187A69",
"A%	c #0C584A",
"B%	c #0C6553",
"C%	c #045344",
"D%	c #076454",
"E%	c #036253",
"F%	c #025C4F",
"G%	c #156F61",
"H%	c #236643",
"I%	c #146646",
"J%	c #0B6B59",
"K%	c #04493E",
"L%	c #197464",
"M%	c #055C4E",
"N%	c #04604E",
"O%	c #085C4E",
"P%	c #278776",
"Q%	c #0B6153",
"R%	c #1D8474",
"S%	c #24877A",
"T%	c #1C8271",
"U%	c #117060",
"V%	c #0B6455",
"W%	c #107463",
"X%	c #056252",
"Y%	c #0F705F",
"Z%	c #156F53",
"`%	c #0A513D",
" &	c #166E60",
".&	c #0A6858",
"+&	c #096355",
"@&	c #096455",
"#&	c #056150",
"$&	c #076353",
"%&	c #086758",
"&&	c #127061",
"*&	c #0E6C5D",
"=&	c #15796A",
"-&	c #146C5E",
";&	c #066353",
">&	c #177A69",
",&	c #086654",
"'&	c #035749",
")&	c #0F6156",
"!&	c #0B6859",
"~&	c #157061",
"{&	c #0A523E",
"]&	c #38714F",
"^&	c #0E5E48",
"/&	c #127A68",
"(&	c #035448",
"_&	c #197968",
":&	c #0C6F5D",
"<&	c #065D4F",
"[&	c #02564A",
"}&	c #055647",
"|&	c #06604F",
"1&	c #0C5E51",
"2&	c #044B3E",
"3&	c #015545",
"4&	c #075F53",
"5&	c #106C5E",
"6&	c #06513F",
"7&	c #085D46",
"8&	c #3A6F50",
"9&	c #277858",
"0&	c #0B6554",
"a&	c #0D5E51",
"b&	c #034F40",
"c&	c #0C5F4F",
"d&	c #167465",
"e&	c #0B695A",
"f&	c #076758",
"g&	c #157768",
"h&	c #066559",
"i&	c #076558",
"j&	c #1B7E6F",
"k&	c #1B7B69",
"l&	c #035346",
"m&	c #167567",
"n&	c #033B30",
"o&	c #13694C",
"p&	c #225D37",
"q&	c #0F6D5B",
"r&	c #0E6254",
"s&	c #056153",
"t&	c #075E4F",
"u&	c #0D6E5E",
"v&	c #187062",
"w&	c #0A6656",
"x&	c #036554",
"y&	c #08695B",
"z&	c #055E4F",
"A&	c #157266",
"B&	c #176E5E",
"C&	c #044B3C",
"D&	c #1C603B",
"E&	c #1C5431",
"F&	c #076B5C",
"G&	c #0C675A",
"H&	c #025F50",
"I&	c #0D705F",
"J&	c #0C5D4D",
"K&	c #0A5D4F",
"L&	c #024E3D",
"M&	c #065A4A",
"N&	c #0C6F5A",
"O&	c #1D6842",
"P&	c #2B6D44",
"Q&	c #29744D",
"R&	c #116545",
"S&	c #0C6954",
"T&	c #177B6C",
"U&	c #124E42",
"V&	c #0A5740",
"W&	c #105538",
"X&	c #1F663F",
"Y&	c #357852",
"                      . + @ # $ % & * = -                       ",
"                  ; > , ' ) ! ~ { ] ^ / ( _ :                   ",
"              < [ } | 1 2 3 4 5 6 7 8 9 0 a b c d               ",
"            e f g h i j k l m n o p q r s t u v w x             ",
"        y z A B C D E F G H I J _ K L M N O P Q R S T U         ",
"        V W X Y Z `  ...+.@.#.$.%.&.*.=.-.;.>.,.'.).!.~.        ",
"      {.].^./.(._.:.<.[.}.|.1.2.3.4.5.6.7.8.9.0.a.b.c.d.e.      ",
"    f.g.h.i.2 j.k.l.m.n.o.p.q.r.s.t.u.v.w.x.y.z.A.B.C.D.E.F.    ",
"    G.H.I.J.K.L.M.N.O.P.Q.R.S.T.U.V.W.H X.Y.Z.`. +.+++@+#+$+    ",
"  %+R &+*+=+-+;+>+,+'+)+!+~+{+]+^+/+(+_+:+<+[+}+|+1+2+3+4+5+6+  ",
"  7+8+9+0+a+b+c+d+e+O f+g+h+i+j+k+l+m+n+o+p+q+r+s+t+u+v+w+x+y+  ",
"z+A+B+C+D+E+F+G+H+I+J+K+L+M+N+O+P+Q+R+S+T+U+V+W+X+Y+Z+`+ @.@+@@@",
"#@$@%@&@*@=@4.e+-@;@>@,@'@)@!@~@{@]@^@/@(@_@:@<@[@}@|@1@2@3@4@5@",
"6@7@8@9@0@a@b@c@d@e@f@g@h@i@j@j@j@k@j@l@m@n@o@p@q@r@s@I t@u@V.v@",
"w@x@] y@z@A@B@'.C@D@E@F@G@j@H@I@J@K@j@j@L@M@N@O@P@Q@R@S@T@U@V@W@",
"X@Y@Z@`@h  #.#+#@###$#%#&#j@*#=#j@-#;#j@>#,#'#)#!#~#{#]#^#/#(#_#",
":#<#/+[#}#|#1#2#3#4#5#6#7#8#j@j@9#j@0#j@7#a#b#c#d#e#f#g#h#i#] j#",
"k#l#m#n#o#p#q#r#s#t#u#v#w#x#j@j@j@j@y#j@z#A#B#C#D#E#B#F#G#H#I#J#",
"K#L#M#;+N#O#P#Q#R#S#T#U#V#W#j@j@j@j@X#Y#Z#`# $.$+$@$F##$$$%$&$*$",
"=$-$;$>$,$'$)$!$~${$]$^$/$($_$j@:$<$j@[$}$|$1$2$3$4$5$-$6$7$8$9$",
"0$a$b$c$1+d$e$f$g$h$i$T.j$k$l$m$n$o$p$m@q$r$@$s$t$u$v$v+w$x$y$z$",
"  A$B$C$D$E$( F$G$H$I$J$T.K$L$M$N$O$P$Q$r+R$S$T$U$V$W$X$Y$Z$`$  ",
"   %.%+%@%J$#%$%%%s@>$&%*%=%-%;%>%,%'%Y+)%!%~%{%]%^%/%(%_%:%<%  ",
"    [%}%&+|%1%2%3%4%5%6%7%(.E 8%9%0%a%b%F#c%d%e%f%g%^#;+h%i%    ",
"    j%k%k l%m%n%o%p%q%r%_#s%t%u%v%w%x%!$y%z%A%B%C%D%E%F%G%H%    ",
"      I%!.q#_#J%K%L%S$M%N%_%O%.@P%Q%R%S%T%U%2@V%B$W%X%Y%Z%      ",
"        `% &w+.&+&@&#&$&%&&&*&=&-&E ;&>&,&'&Z@)&!&~&4#{&        ",
"        ]&^&~%/&(&_&:&<&[&D%)+E#}&|&!.1&2&3&4&5&6&N#7&8&        ",
"            9&0&##a&b&c&d&e&f&g&`+h&i&j&k&l&m&S$n&o&            ",
"              p&q&r&<@b@s&D%t&u&v&w&x&y&z&A&B&C&D&              ",
"                  E&Q @$F&G&H&I&J&[.K&L&M&N&O&                  ",
"                      P&Q&R&S&T&U&V&W&X&Y&                      "};
