/* XPM */
static char * appl_xpm[] = {
"32 32 203 2",
"  	c None",
". 	c #06D30F",
"+ 	c #02F505",
"@ 	c #01FA02",
"# 	c #00FC01",
"$ 	c #00FD00",
"% 	c #00FD01",
"& 	c #01F505",
"* 	c #08D70F",
"= 	c #02F603",
"- 	c #01F903",
"; 	c #01FC01",
"> 	c #00FE01",
", 	c #00FE00",
"' 	c #01FA03",
") 	c #00F603",
"! 	c #02F306",
"~ 	c #00FC02",
"{ 	c #00FF00",
"] 	c #02F205",
"^ 	c #14B21D",
"/ 	c #02F902",
"( 	c #13B21B",
"_ 	c #01FB01",
": 	c #00FB01",
"< 	c #00FF01",
"[ 	c #02F204",
"} 	c #00FD02",
"| 	c #00FC03",
"1 	c #00F905",
"2 	c #00F608",
"3 	c #00F40A",
"4 	c #00F30B",
"5 	c #00FC00",
"6 	c #02F503",
"7 	c #00F409",
"8 	c #00EE0F",
"9 	c #00E616",
"0 	c #00E11B",
"a 	c #00DF1D",
"b 	c #00ED0F",
"c 	c #00F502",
"d 	c #01FD01",
"e 	c #00F906",
"f 	c #00F10C",
"g 	c #00E617",
"h 	c #00D724",
"i 	c #00C931",
"j 	c #01BE3B",
"k 	c #01BA3F",
"l 	c #01C931",
"m 	c #0BD711",
"n 	c #00FA05",
"o 	c #00F10D",
"p 	c #00E21B",
"q 	c #00CC2E",
"r 	c #01BE3A",
"s 	c #02B541",
"t 	c #0153A1",
"u 	c #0009F3",
"v 	c #0455A3",
"w 	c #00B23F",
"x 	c #01CC2E",
"y 	c #0AD811",
"z 	c #03F404",
"A 	c #01F902",
"B 	c #00F509",
"C 	c #01C138",
"D 	c #0011E7",
"E 	c #054580",
"F 	c #0016D0",
"G 	c #052BBC",
"H 	c #0013CE",
"I 	c #084781",
"J 	c #0011E8",
"K 	c #01F403",
"L 	c #00D725",
"M 	c #001BD5",
"N 	c #032DB6",
"O 	c #0000FF",
"P 	c #0013CB",
"Q 	c #0327B0",
"R 	c #0012E8",
"S 	c #00E716",
"T 	c #00C932",
"U 	c #01B441",
"V 	c #073BAC",
"W 	c #05428D",
"X 	c #020EE9",
"Y 	c #0311E9",
"Z 	c #0B4D9A",
"` 	c #0A5A79",
" .	c #01B13F",
"..	c #01C832",
"+.	c #00F30A",
"@.	c #00E11C",
"#.	c #01BE3C",
"$.	c #00529E",
"%.	c #08409F",
"&.	c #0114CC",
"*.	c #020DE8",
"=.	c #000AE5",
"-.	c #08428E",
";.	c #0014CE",
">.	c #004FA0",
",.	c #01BD3C",
"'.	c #00E01C",
").	c #00FB03",
"!.	c #00DE1E",
"~.	c #0008F3",
"{.	c #0003F9",
"].	c #0008E1",
"^.	c #024068",
"/.	c #010FE6",
"(.	c #0011DF",
"_.	c #01BA41",
":.	c #00E01B",
"<.	c #01BD3B",
"[.	c #0052A0",
"}.	c #0316DC",
"|.	c #000DE5",
"1.	c #0C3FA5",
"2.	c #031CD6",
"3.	c #01C930",
"4.	c #03B742",
"5.	c #053C79",
"6.	c #03408C",
"7.	c #0D5B80",
"8.	c #021CD3",
"9.	c #0D528F",
"0.	c #02B642",
"a.	c #01C932",
"b.	c #03F403",
"c.	c #00D822",
"d.	c #01C036",
"e.	c #0010E7",
"f.	c #022BB2",
"g.	c #044692",
"h.	c #020EE6",
"i.	c #064590",
"j.	c #0733BC",
"k.	c #0012E9",
"l.	c #01C03A",
"m.	c #01D725",
"n.	c #00EE10",
"o.	c #01F404",
"p.	c #0AD70F",
"q.	c #00E715",
"r.	c #00CE29",
"s.	c #01C431",
"t.	c #015269",
"u.	c #054884",
"v.	c #051CD6",
"w.	c #023729",
"x.	c #0118D2",
"y.	c #0E5492",
"z.	c #01C336",
"A.	c #01CD2E",
"B.	c #07D411",
"C.	c #01F901",
"D.	c #00FA04",
"E.	c #00F20B",
"F.	c #00E417",
"G.	c #01CF27",
"H.	c #01C233",
"I.	c #03B83D",
"J.	c #00529C",
"K.	c #0008F2",
"L.	c #00529F",
"M.	c #01B53F",
"N.	c #01C039",
"O.	c #01CD2D",
"P.	c #01E21B",
"Q.	c #00FE02",
"R.	c #01F703",
"S.	c #00F20A",
"T.	c #00E813",
"U.	c #01D91F",
"V.	c #01CB2B",
"W.	c #01C135",
"X.	c #01BC39",
"Y.	c #01C037",
"Z.	c #01CA2F",
"`.	c #00D823",
" +	c #01F603",
".+	c #00F508",
"++	c #00EF0D",
"@+	c #00E714",
"#+	c #00E219",
"$+	c #00DF1B",
"%+	c #00E11A",
"&+	c #02F304",
"*+	c #00F904",
"=+	c #00F607",
"-+	c #02FA03",
";+	c #1AB925",
">+	c #1BB925",
",+	c #02F602",
"'+	c #0ADA11",
")+	c #03F505",
"!+	c #01FB02",
"~+	c #03F504",
"{+	c #0DDC13",
"                      . + @ # $ $ % @ & *                       ",
"                  = - - @ ; > , , > ; @ ' - )                   ",
"              ! ~ # % % % % , { { , % % % % # ~ ]               ",
"            ; > , $ , , , { { { { { { , , , $ , > #             ",
"        ^ / # % , , , , { { { { { { { { { { { , % # / (         ",
"        / _ % , { { { { { { { { { { { { { { { { , % _ /         ",
"      : : % $ , , , , { { { { < < < { { { , , , , $ % : :       ",
"    [ > % , { , { { { { > % } | | | } % > { { { , { , $ , [     ",
"    ~ > , { { { { { > % | 1 2 3 4 3 2 1 | % > { { { { , , 5     ",
"  6 # $ , { { { { > } 1 7 8 9 0 a 0 9 b 7 1 } > , , { , $ # c   ",
"  - d , , , , { > } e f g h i j k j l h g f e } > { , , , % -   ",
"m ' d , , { { { } n o p q r s t u v w r x 0 o n % , { , , d ' y ",
"z A d , , , { > | B g q C D E F G H I J C q g B | > , , , % A K ",
"@ ; % , { { { % 1 8 L j M N O O O P O Q R j L 8 1 % , { , % ; @ ",
"d > , , { { { ~ 2 S T U V O W X Y Z O O `  ...S 2 ~ , { , , , d ",
"> , , , { { > | +.@.#.$.%.O &.*.O =.-.O ;.>.,.'.+.).> { , , , > ",
"> , , , { { > ).4 !.k ~.{.].O O ^.O /.O {.(._.!.4 ).> { , , , > ",
"d , , , { { > | +.:.<.[.}.|.O O O O 1.O 2.[.#.@.+.).> { , , $ ; ",
"@ ; % , { { { ~ 2 S 3.4.5.6.O O O O 7.8.9.0.a.S 2 ~ , { , % # @ ",
"b.@ d , { { { % 1 8 c.d.e.f.g.O h.i.O j.k.l.m.n.1 % , , , % @ o.",
"p.' d , , { { > | B q.r.s.t.u.v.w.x.y.R z.A.g B | > { , , # - B.",
"  C.% , , , , { % D.E.F.G.H.I.J.K.L.M.N.O.P.o n Q.{ , , , % -   ",
"  R.# , { { { { > } 1 S.T.U.V.W.X.Y.Z.`.g o e } > , { , , #  +  ",
"    } > , { , { { > } D..+++@+#+$+%+q.8 7 n } > { { { , > ~     ",
"    &+# % $ , { { { , % ~ *+=+7 +.7 2 1 | % > { { , $ % # [     ",
"      _ _ d $ , , { { { > > } | | | } % > , , , , $ d _ _       ",
"        -+_ d , , { { { { { { < > > , , { { { , , d _ -+        ",
"        ;+-+_ % , , , , { { { { { { { { { { { , % _ -+>+        ",
"            _ ; , , , , , { { { { { { , , , , , # _             ",
"              [ ~ # % % % % , { { , % d d d # ~ ]               ",
"                  ,+- ' @ ; > , , > ; @ ' - =                   ",
"                      '+)+@ ; $ $ d !+~+{+                      "};
