/* XPM */
static char * appl_xpm[] = {
"32 32 742 2",
"  	c None",
". 	c #1C5541",
"+ 	c #287158",
"@ 	c #1B624B",
"# 	c #0D5B47",
"$ 	c #0F6856",
"% 	c #046355",
"& 	c #095646",
"* 	c #24775B",
"= 	c #246D50",
"- 	c #226341",
"; 	c #0F5642",
"> 	c #07695A",
", 	c #056050",
"' 	c #145B4F",
") 	c #094D41",
"! 	c #07624F",
"~ 	c #127365",
"{ 	c #0F6355",
"] 	c #0E6555",
"^ 	c #1E7A6B",
"/ 	c #1E7F6F",
"( 	c #045C4D",
"_ 	c #147462",
": 	c #185B3E",
"< 	c #276D4B",
"[ 	c #04584B",
"} 	c #0B6B5B",
"| 	c #086B5C",
"1 	c #066152",
"2 	c #0A6453",
"3 	c #0E6757",
"4 	c #1F7D70",
"5 	c #136C5D",
"6 	c #034C3E",
"7 	c #1A7565",
"8 	c #0F6A5E",
"9 	c #0E7061",
"0 	c #035E4F",
"a 	c #0F7563",
"b 	c #025648",
"c 	c #025A4A",
"d 	c #1C6747",
"e 	c #155F45",
"f 	c #0D6E5C",
"g 	c #065649",
"h 	c #0D6355",
"i 	c #055D51",
"j 	c #035B4E",
"k 	c #035B4D",
"l 	c #197567",
"m 	c #0A695A",
"n 	c #034A3C",
"o 	c #12695A",
"p 	c #0B6D5D",
"q 	c #107466",
"r 	c #05685A",
"s 	c #046655",
"t 	c #086859",
"u 	c #025244",
"v 	c #045E4C",
"w 	c #066659",
"x 	c #106749",
"y 	c #2B623F",
"z 	c #10624D",
"A 	c #197263",
"B 	c #045549",
"C 	c #086051",
"D 	c #055D4E",
"E 	c #086453",
"F 	c #036454",
"G 	c #056659",
"H 	c #046455",
"I 	c #0A6153",
"J 	c #085748",
"K 	c #0C6557",
"L 	c #0A6053",
"M 	c #045F4E",
"N 	c #025546",
"O 	c #075D4E",
"P 	c #024C3E",
"Q 	c #045543",
"R 	c #096859",
"S 	c #167B6C",
"T 	c #0E604C",
"U 	c #29603A",
"V 	c #177663",
"W 	c #04604F",
"X 	c #0C6D5C",
"Y 	c #05584B",
"Z 	c #147564",
"` 	c #085E4F",
" .	c #025444",
"..	c #106D5C",
"+.	c #076556",
"@.	c #035A4D",
"#.	c #127363",
"$.	c #146B5D",
"%.	c #093E2F",
"&.	c #025548",
"*.	c #0F6E5C",
"=.	c #065D4E",
"-.	c #004D3E",
";.	c #146A5C",
">.	c #0D695B",
",.	c #096557",
"'.	c #045F4F",
").	c #035A4B",
"!.	c #085C4D",
"~.	c #116A56",
"{.	c #1C7459",
"].	c #0C6152",
"^.	c #015748",
"/.	c #06594C",
"(.	c #035B4C",
"_.	c #035D4D",
":.	c #065E50",
"<.	c #045B4E",
"[.	c #0A6352",
"}.	c #034B3E",
"|.	c #036552",
"1.	c #0F7262",
"2.	c #0D5747",
"3.	c #065745",
"4.	c #147667",
"5.	c #0F5C4B",
"6.	c #0A6254",
"7.	c #126B5B",
"8.	c #0D6050",
"9.	c #0E6253",
"0.	c #025E4E",
"a.	c #106C5F",
"b.	c #137566",
"c.	c #0A6758",
"d.	c #02594B",
"e.	c #106348",
"f.	c #196043",
"g.	c #145F4F",
"h.	c #033F31",
"i.	c #045B4A",
"j.	c #065A4B",
"k.	c #09594B",
"l.	c #096656",
"m.	c #055345",
"n.	c #046351",
"o.	c #056054",
"p.	c #0C7163",
"q.	c #0D7262",
"r.	c #065746",
"s.	c #27806F",
"t.	c #0A554A",
"u.	c #0D614F",
"v.	c #116E62",
"w.	c #086052",
"x.	c #0D6453",
"y.	c #0B6453",
"z.	c #0F695B",
"A.	c #117566",
"B.	c #0F6855",
"C.	c #063F36",
"D.	c #035647",
"E.	c #036251",
"F.	c #1A603F",
"G.	c #0A6755",
"H.	c #034136",
"I.	c #03614F",
"J.	c #0E6D5D",
"K.	c #0C6052",
"L.	c #0B6052",
"M.	c #157565",
"N.	c #056859",
"O.	c #086856",
"P.	c #0C6254",
"Q.	c #046253",
"R.	c #187669",
"S.	c #258879",
"T.	c #045445",
"U.	c #0C5346",
"V.	c #064E41",
"W.	c #187E6B",
"X.	c #056351",
"Y.	c #0B6355",
"Z.	c #0D695C",
"`.	c #137467",
" +	c #127768",
".+	c #034635",
"++	c #065243",
"@+	c #036754",
"#+	c #19796C",
"$+	c #339688",
"%+	c #17614C",
"&+	c #025C4B",
"*+	c #046556",
"=+	c #026152",
"-+	c #1C7B6C",
";+	c #0D6A5A",
">+	c #18796B",
",+	c #096B5E",
"'+	c #025E4F",
")+	c #096152",
"!+	c #096958",
"~+	c #1B816F",
"{+	c #136256",
"]+	c #013D32",
"^+	c #055F4E",
"/+	c #147A6A",
"(+	c #137263",
"_+	c #015A4A",
":+	c #126E5F",
"<+	c #0B6457",
"[+	c #258779",
"}+	c #17725F",
"|+	c #094739",
"1+	c #054B3D",
"2+	c #02584A",
"3+	c #086B5D",
"4+	c #1D8272",
"5+	c #116C5D",
"6+	c #195531",
"7+	c #0A6F5C",
"8+	c #0D675A",
"9+	c #0D6A5B",
"0+	c #0D6858",
"a+	c #107260",
"b+	c #1A7465",
"c+	c #126D5F",
"d+	c #076959",
"e+	c #096B5D",
"f+	c #065548",
"g+	c #0C6959",
"h+	c #066A59",
"i+	c #0E6559",
"j+	c #035445",
"k+	c #117567",
"l+	c #28897C",
"m+	c #075F50",
"n+	c #1C7467",
"o+	c #055D4D",
"p+	c #0E6E5F",
"q+	c #116F61",
"r+	c #065C4C",
"s+	c #065040",
"t+	c #0D6C59",
"u+	c #0C695A",
"v+	c #127668",
"w+	c #136F60",
"x+	c #084D41",
"y+	c #085344",
"z+	c #2C6446",
"A+	c #187B69",
"B+	c #0D6757",
"C+	c #0A6958",
"D+	c #0E695A",
"E+	c #176F5F",
"F+	c #0E6F60",
"G+	c #15796C",
"H+	c #056456",
"I+	c #076455",
"J+	c #015041",
"K+	c #085D4E",
"L+	c #1B7E6E",
"M+	c #076757",
"N+	c #0F6E5E",
"O+	c #21877A",
"P+	c #1C7D6F",
"Q+	c #055A4A",
"R+	c #197768",
"S+	c #025849",
"T+	c #18796A",
"U+	c #095E52",
"V+	c #1B7363",
"W+	c #054E3F",
"X+	c #197B6D",
"Y+	c #08685A",
"Z+	c #137567",
"`+	c #117464",
" @	c #0A6959",
".@	c #177B6D",
"+@	c #2A6749",
"@@	c #1B6545",
"#@	c #0A6A5B",
"$@	c #054B3F",
"%@	c #0C6C5C",
"&@	c #117263",
"*@	c #0D5F4E",
"=@	c #02594A",
"-@	c #045849",
";@	c #004D40",
">@	c #15705F",
",@	c #0E6557",
"'@	c #05564A",
")@	c #086050",
"!@	c #015A49",
"~@	c #0E6B5B",
"{@	c #034E40",
"]@	c #0C6252",
"^@	c #076557",
"/@	c #045747",
"(@	c #0C6355",
"_@	c #0E675B",
":@	c #106E5E",
"<@	c #035948",
"[@	c #146E61",
"}@	c #035343",
"|@	c #11594A",
"1@	c #024E41",
"2@	c #0C685A",
"3@	c #106D5D",
"4@	c #104D2F",
"5@	c #20785D",
"6@	c #187B6A",
"7@	c #08574C",
"8@	c #1C8474",
"9@	c #0F6E60",
"0@	c #095B4B",
"a@	c #09695A",
"b@	c #03594B",
"c@	c #065345",
"d@	c #0B5B4D",
"e@	c #0A6759",
"f@	c #056052",
"g@	c #055F50",
"h@	c #167868",
"i@	c #035545",
"j@	c #065E4D",
"k@	c #02493D",
"l@	c #0D6555",
"m@	c #075B4D",
"n@	c #0F6B5E",
"o@	c #0C6E5E",
"p@	c #106E5F",
"q@	c #0F6758",
"r@	c #034133",
"s@	c #055748",
"t@	c #0C6354",
"u@	c #066655",
"v@	c #1D7565",
"w@	c #165A43",
"x@	c #166B59",
"y@	c #044A39",
"z@	c #0D6C60",
"A@	c #035B4A",
"B@	c #096253",
"C@	c #107163",
"D@	c #055949",
"E@	c #0E6457",
"F@	c #01584A",
"G@	c #0E6C5E",
"H@	c #0F7263",
"I@	c #107162",
"J@	c #096454",
"K@	c #13695B",
"L@	c #177668",
"M@	c #127567",
"N@	c #147769",
"O@	c #187D6D",
"P@	c #0D6E5D",
"Q@	c #0A5447",
"R@	c #0E5F51",
"S@	c #086151",
"T@	c #075B4C",
"U@	c #096456",
"V@	c #228876",
"W@	c #0C5D4F",
"X@	c #10584C",
"Y@	c #17695B",
"Z@	c #117261",
"`@	c #177365",
" #	c #066855",
".#	c #0A5E50",
"+#	c #025B4D",
"@#	c #0C6D5D",
"##	c #0F6F60",
"$#	c #095D4F",
"%#	c #0C6353",
"&#	c #0C5C4E",
"*#	c #0A6353",
"=#	c #096351",
"-#	c #045F53",
";#	c #196D5D",
">#	c #074D40",
",#	c #136855",
"'#	c #033C2F",
")#	c #014C3C",
"!#	c #0D6556",
"~#	c #06594A",
"{#	c #025141",
"]#	c #0C5B4A",
"^#	c #05473B",
"/#	c #086152",
"(#	c #0D6C5D",
"_#	c #0C6657",
":#	c #1C7866",
"<#	c #054339",
"[#	c #045C4C",
"}#	c #0F695C",
"|#	c #025344",
"1#	c #075D4D",
"2#	c #0E7062",
"3#	c #0E7364",
"4#	c #268777",
"5#	c #076052",
"6#	c #096757",
"7#	c #1E7D6D",
"8#	c #055848",
"9#	c #095A4C",
"0#	c #0A6355",
"a#	c #09685B",
"b#	c #106958",
"c#	c #023E32",
"d#	c #045748",
"e#	c #0D5D4F",
"f#	c #035143",
"g#	c #024C3C",
"h#	c #056051",
"i#	c #04594C",
"j#	c #0F6F5F",
"k#	c #0E7161",
"l#	c #187A6C",
"m#	c #0F6655",
"n#	c #0C594A",
"o#	c #0D6454",
"p#	c #076A59",
"q#	c #218275",
"r#	c #04564A",
"s#	c #187761",
"t#	c #1A7B6B",
"u#	c #0F6556",
"v#	c #096554",
"w#	c #065C4D",
"x#	c #065242",
"y#	c #055A4B",
"z#	c #0B685A",
"A#	c #0D6154",
"B#	c #065B4B",
"C#	c #0D7261",
"D#	c #066254",
"E#	c #116D5E",
"F#	c #035E4E",
"G#	c #0B5547",
"H#	c #166F61",
"I#	c #075D4C",
"J#	c #0E7162",
"K#	c #0D6657",
"L#	c #095A4B",
"M#	c #03463A",
"N#	c #147262",
"O#	c #034C3F",
"P#	c #076051",
"Q#	c #127262",
"R#	c #187566",
"S#	c #024535",
"T#	c #0B6353",
"U#	c #2B8569",
"V#	c #096E5F",
"W#	c #136F61",
"X#	c #045243",
"Y#	c #045446",
"Z#	c #1E7E6F",
"`#	c #208374",
" $	c #0A6557",
".$	c #0E6556",
"+$	c #147767",
"@$	c #238674",
"#$	c #075447",
"$$	c #076252",
"%$	c #046757",
"&$	c #157768",
"*$	c #117162",
"=$	c #086A5A",
"-$	c #137265",
";$	c #177666",
">$	c #0B705D",
",$	c #1F7F70",
"'$	c #137768",
")$	c #056152",
"!$	c #045E4F",
"~$	c #086858",
"{$	c #034C3D",
"]$	c #13604C",
"^$	c #1A5A39",
"/$	c #056151",
"($	c #056254",
"_$	c #0B5C4C",
":$	c #106B5D",
"<$	c #0E7060",
"[$	c #096B5B",
"}$	c #066355",
"|$	c #0E6F61",
"1$	c #046658",
"2$	c #045D4E",
"3$	c #074F41",
"4$	c #066251",
"5$	c #076A5C",
"6$	c #218476",
"7$	c #0E6357",
"8$	c #05695A",
"9$	c #107668",
"0$	c #137B6B",
"a$	c #0D6A5D",
"b$	c #107063",
"c$	c #0E7163",
"d$	c #0F7162",
"e$	c #095F50",
"f$	c #005143",
"g$	c #096C5D",
"h$	c #066657",
"i$	c #185D49",
"j$	c #2A6540",
"k$	c #045F4D",
"l$	c #034D3D",
"m$	c #044136",
"n$	c #0C5D4C",
"o$	c #0E6858",
"p$	c #085B4E",
"q$	c #015948",
"r$	c #055344",
"s$	c #025848",
"t$	c #065949",
"u$	c #045A4C",
"v$	c #076456",
"w$	c #166F60",
"x$	c #023729",
"y$	c #07614F",
"z$	c #14756A",
"A$	c #107060",
"B$	c #015B4A",
"C$	c #046151",
"D$	c #025F4F",
"E$	c #066050",
"F$	c #03493A",
"G$	c #045547",
"H$	c #0C7162",
"I$	c #0F6959",
"J$	c #076C5B",
"K$	c #1E5645",
"L$	c #086355",
"M$	c #035F51",
"N$	c #1B7F6D",
"O$	c #1C7F6D",
"P$	c #0B6050",
"Q$	c #085B4F",
"R$	c #046050",
"S$	c #045B4D",
"T$	c #045A4B",
"U$	c #075C4D",
"V$	c #0C6859",
"W$	c #1D8070",
"X$	c #085F50",
"Y$	c #014E40",
"Z$	c #036354",
"`$	c #0B6D5F",
" %	c #0C6758",
".%	c #0C705D",
"+%	c #096756",
"@%	c #045647",
"#%	c #04473A",
"$%	c #0D5E50",
"%%	c #046554",
"&%	c #0B6D5E",
"*%	c #116A5D",
"=%	c #106759",
"-%	c #055142",
";%	c #1C6A45",
">%	c #107768",
",%	c #1C7E6F",
"'%	c #045C4E",
")%	c #096858",
"!%	c #096959",
"~%	c #076756",
"{%	c #0D6E60",
"]%	c #177D6E",
"^%	c #147568",
"/%	c #044C3B",
"(%	c #015F51",
"_%	c #066A5A",
":%	c #0A5E4F",
"<%	c #0B705C",
"[%	c #08594D",
"}%	c #044F43",
"|%	c #066554",
"1%	c #0A6D5E",
"2%	c #0A6156",
"3%	c #066455",
"4%	c #127462",
"5%	c #0C584B",
"6%	c #1C654C",
"7%	c #076356",
"8%	c #086255",
"9%	c #157260",
"0%	c #05584C",
"a%	c #107767",
"b%	c #127366",
"c%	c #137767",
"d%	c #0D6051",
"e%	c #0F6B5A",
"f%	c #197A69",
"g%	c #045545",
"h%	c #025647",
"i%	c #026656",
"j%	c #056A5A",
"k%	c #065D50",
"l%	c #0B5D4E",
"m%	c #0B5A4C",
"n%	c #0B5E4F",
"o%	c #197163",
"p%	c #035748",
"q%	c #116C5A",
"r%	c #085E4D",
"s%	c #246A43",
"t%	c #076A58",
"u%	c #0B6C5E",
"v%	c #076155",
"w%	c #1B7769",
"x%	c #106353",
"y%	c #044C3C",
"z%	c #126759",
"A%	c #075B4B",
"B%	c #0F6152",
"C%	c #0B6556",
"D%	c #004639",
"E%	c #0C6656",
"F%	c #056154",
"G%	c #036052",
"H%	c #177C6D",
"I%	c #187A69",
"J%	c #0C584A",
"K%	c #0C6553",
"L%	c #045344",
"M%	c #076454",
"N%	c #036253",
"O%	c #025C4F",
"P%	c #156F61",
"Q%	c #236643",
"R%	c #146646",
"S%	c #0B6B59",
"T%	c #04493E",
"U%	c #197464",
"V%	c #055C4E",
"W%	c #04604E",
"X%	c #085C4E",
"Y%	c #278776",
"Z%	c #0B6153",
"`%	c #1D8474",
" &	c #24877A",
".&	c #1C8271",
"+&	c #117060",
"@&	c #0B6455",
"#&	c #107463",
"$&	c #056252",
"%&	c #0F705F",
"&&	c #156F53",
"*&	c #0A513D",
"=&	c #166E60",
"-&	c #0A6858",
";&	c #096355",
">&	c #096455",
",&	c #056150",
"'&	c #076353",
")&	c #086758",
"!&	c #127061",
"~&	c #0E6C5D",
"{&	c #15796A",
"]&	c #146C5E",
"^&	c #066353",
"/&	c #177A69",
"(&	c #086654",
"_&	c #035749",
":&	c #0F6156",
"<&	c #0B6859",
"[&	c #157061",
"}&	c #0A523E",
"|&	c #38714F",
"1&	c #0E5E48",
"2&	c #127A68",
"3&	c #035448",
"4&	c #197968",
"5&	c #0C6F5D",
"6&	c #065D4F",
"7&	c #02564A",
"8&	c #055647",
"9&	c #06604F",
"0&	c #0C5E51",
"a&	c #044B3E",
"b&	c #015545",
"c&	c #075F53",
"d&	c #106C5E",
"e&	c #06513F",
"f&	c #085D46",
"g&	c #3A6F50",
"h&	c #277858",
"i&	c #0B6554",
"j&	c #0D5E51",
"k&	c #034F40",
"l&	c #0C5F4F",
"m&	c #167465",
"n&	c #0B695A",
"o&	c #076758",
"p&	c #066559",
"q&	c #076558",
"r&	c #1B7E6F",
"s&	c #1B7B69",
"t&	c #035346",
"u&	c #167567",
"v&	c #033B30",
"w&	c #13694C",
"x&	c #225D37",
"y&	c #0F6D5B",
"z&	c #0E6254",
"A&	c #056153",
"B&	c #075E4F",
"C&	c #0D6E5E",
"D&	c #187062",
"E&	c #0A6656",
"F&	c #036554",
"G&	c #08695B",
"H&	c #055E4F",
"I&	c #157266",
"J&	c #176E5E",
"K&	c #044B3C",
"L&	c #1C603B",
"M&	c #1C5431",
"N&	c #076B5C",
"O&	c #0C675A",
"P&	c #025F50",
"Q&	c #0D705F",
"R&	c #0C5D4D",
"S&	c #0A5D4F",
"T&	c #024E3D",
"U&	c #065A4A",
"V&	c #0C6F5A",
"W&	c #1D6842",
"X&	c #2B6D44",
"Y&	c #29744D",
"Z&	c #116545",
"`&	c #0C6954",
" *	c #177B6C",
".*	c #124E42",
"+*	c #0A5740",
"@*	c #105538",
"#*	c #1F663F",
"$*	c #357852",
"                      . + @ # $ % & * = -                       ",
"                  ; > , ' ) ! ~ { ] ^ / ( _ :                   ",
"              < [ } | 1 2 3 4 5 6 7 8 9 0 a b c d               ",
"            e f g h i j k l m n o p q r s t u v w x             ",
"        y z A B C D E F G H I J _ K L M N O P Q R S T U         ",
"        V W X Y Z `  ...+.@.#.$.%.&.*.=.-.;.>.,.'.).!.~.        ",
"      {.].^./.(._.:.<.[.}.|.1.2.3.4.5.6.7.8.9.0.a.b.c.d.e.      ",
"    f.g.h.i.2 j.k.l.m.n.o.p.q.r.s.t.u.v.w.x.y.z.A.B.C.D.E.F.    ",
"    G.H.I.J.K.L.M.N.O.P.Q.R.S.T.U.V.W.H X.Y.Z.`. +.+++@+#+$+    ",
"  %+R &+*+=+-+;+>+,+'+)+!+~+{+]+^+/+(+_+:+<+[+}+|+1+2+3+4+5+6+  ",
"  7+8+9+0+a+b+c+d+e+O f+g+h+i+j+k+l+m+n+o+p+q+r+s+t+u+v+w+x+y+  ",
"z+A+B+C+D+E+F+G+H+I+J+K+L+M+N+F+O+P+Q+R+S+T+U+V+W+X+Y+Z+`+ @.@+@",
"@@#@$@%@&@*@4.e+=@-@;@>@,@'@)@!@~@{@]@^@/@(@_@:@<@[@}@|@1@2@3@4@",
"5@6@7@8@9@0@a@b@c@d@e@f@g@t h@i@j@k@l@m@n@o@p@q@r@s@t@I u@v@V.w@",
"x@y@] z@A@B@C@'.D@E@F@G@H@I@J@K@L@M@N@O@P@Q@R@S@T@U@V@W@X@Y@Z@`@",
" #.#+#@#h ##$#%#&#*#=#-#N+;#>#,#'#)#!#~#{#]#^#/#(#_#:#<#[#}#|#1#",
"2#3#/+4#5#g@6#7#8#9#0#a#b#c#d#e#f#%@ @g#h#i#j#k#l#m#n#o#p#q#] r#",
"s#t#u#v#w#x#y#z#A#B#C#D#E#F#*+G#A@0#H#I#J#K#L#M#N#O#L#P#Q#R#S#T#",
"U#V#W#;+X#Y#Z#`# $.$+$@$#$1 % $$%$&$*$=$-$;$>$,$'$)$P#!$~$$${$]$",
"^$/$($d#_$:$<$[$}$|$1$2$3$4$5$6$7$ @8$9$0$a$b$c$d$e$f$/$g$a#h$i$",
"j$k$l$m$1+n$o$p$q$r$s$T.t$u$v$w$x$y$z$A$B$C$)$D$E$F$G$v+H$I$J$K$",
"  L$M$N$O$P$( Q$R$S$T$U$T.V$W$X$Y$Z$`$ %r+.%+%@%#%$%%%&%*%=%-%  ",
"  ;%>%,%~#U$'%)%!%t@d#~%{%]%^%/%m@(%_%X+:%<%[%}%|%1%2%3%4%5%6%  ",
"    7%8%&+9%0%a%b%c%d%e%f%(.E g%h%i%j%k%P#l%m%n%o%p%[#;+q%r%    ",
"    s%t%k u%v%w%x%y%z%A%1#B%C%D%E%F%G%[$H%I%J%K%L%M%N%O%P%Q%    ",
"      R%!.y#1#S%T%U%+%V%W%4%X% @Y%Z%`% &.&+&1@@&M$#&$&%&&&      ",
"        *&=&w+-&;&>&,&'&)&!&~&{&]&E ^&/&(&_&+#:&<&[&9#}&        ",
"        |&1&[%2&3&4&5&6&7&M%)+O#8&9&!.0&a&b&c&d&e&X#f&g&        ",
"            h&i&*#j&k&l&m&n&o&&$Z+p&q&r&s&t&u&+%v&w&            ",
"              x&y&z&:@a@A&M%B&C&D&E&F&G&H&I&J&K&L&              ",
"                  M&Q )$N&O&P&Q&R&[.S&T&U&V&W&                  ",
"                      X&Y&Z&`& *.*+*@*#*$*                      "};
