/* XPM */
static char * app_xpm[] = {
"16 16 187 2",
"  	c None",
". 	c #4D8BC8",
"+ 	c #4F8CC8",
"@ 	c #4F8DC8",
"# 	c #4F8CC9",
"$ 	c #4F8BC7",
"% 	c #4B89C5",
"& 	c #3B76C4",
"* 	c #4985C4",
"= 	c #ECF2F7",
"- 	c #EEF4F8",
"; 	c #EDF4F8",
"> 	c #EDF3F8",
", 	c #ECF2F8",
"' 	c #D7E6F2",
") 	c #7DB2E2",
"! 	c #6594DB",
"~ 	c #4B88C5",
"{ 	c #F2F6FA",
"] 	c #C7E0FA",
"^ 	c #C9E1FB",
"/ 	c #C9E2FB",
"( 	c #C8E0FB",
"_ 	c #C5DFF9",
": 	c #C1DBF8",
"< 	c #B8D6F4",
"[ 	c #F8FBFF",
"} 	c #B4D8F6",
"| 	c #7DB0E1",
"1 	c #6492DB",
"2 	c #4C89C6",
"3 	c #F1F5F9",
"4 	c #CDE3FC",
"5 	c #CEE3FB",
"6 	c #CDE3FB",
"7 	c #CBE2FB",
"8 	c #C8E0F9",
"9 	c #C2DCF8",
"0 	c #BAD6F5",
"a 	c #F8FBFD",
"b 	c #CDE6FC",
"c 	c #C9E5FA",
"d 	c #84B6E2",
"e 	c #4279BF",
"f 	c #4B89C6",
"g 	c #CFE3FC",
"h 	c #D0E4FB",
"i 	c #CFE4FC",
"j 	c #CAE1FA",
"k 	c #C4DDF9",
"l 	c #BCD9F6",
"m 	c #DFE9F4",
"n 	c #F3F7FB",
"o 	c #E9EFF5",
"p 	c #457EC2",
"q 	c #F0F4F9",
"r 	c #D3E6FC",
"s 	c #D4E6FC",
"t 	c #D3E7FD",
"u 	c #D1E4FC",
"v 	c #C8E0FA",
"w 	c #BBD6F5",
"x 	c #B5D4F3",
"y 	c #B3D2F1",
"z 	c #F0F4F8",
"A 	c #4682C4",
"B 	c #4A88C6",
"C 	c #EFF4F9",
"D 	c #D7E7FE",
"E 	c #D6E7FD",
"F 	c #D5E7FD",
"G 	c #D4E6FD",
"H 	c #D2E6FC",
"I 	c #CCE1FB",
"J 	c #C7DFFA",
"K 	c #B8B9BA",
"L 	c #B4B4B4",
"M 	c #BBD8F6",
"N 	c #EFF4FA",
"O 	c #4683C6",
"P 	c #4988C6",
"Q 	c #EDF4F9",
"R 	c #D8E8FE",
"S 	c #D7E8FE",
"T 	c #D6E7FE",
"U 	c #C9D3DF",
"V 	c #BCBDBE",
"W 	c #C8D8ED",
"X 	c #C0C0C0",
"Y 	c #BEBEBE",
"Z 	c #BCCFE4",
"` 	c #B0B0B1",
" .	c #7E96B1",
"..	c #4784C6",
"+.	c #ECF3F9",
"@.	c #D6E8FE",
"#.	c #BABABA",
"$.	c #DADADA",
"%.	c #BFBFBF",
"&.	c #D6D6D6",
"*.	c #D8D8D8",
"=.	c #B8B8B8",
"-.	c #D4D4D4",
";.	c #888888",
">.	c #4582C5",
",.	c #EBF2F8",
"'.	c #C4CCD7",
").	c #D2D2D2",
"!.	c #ABABAB",
"~.	c #818181",
"{.	c #8A8A8A",
"].	c #CACACA",
"^.	c #748AA6",
"/.	c #4280C5",
"(.	c #E8F1F8",
"_.	c #D5E5FE",
":.	c #D3E5FD",
"<.	c #E8E8E8",
"[.	c #868686",
"}.	c #CCE2FC",
"|.	c #C9E0FB",
"1.	c #98999A",
"2.	c #E2E2E2",
"3.	c #B6B6B6",
"4.	c #878787",
"5.	c #407CC4",
"6.	c #E6F0F7",
"7.	c #55B4F8",
"8.	c #56B4F7",
"9.	c #54B5F7",
"0.	c #A5A5A5",
"a.	c #B7B7B7",
"b.	c #E1E1E1",
"c.	c #9C9C9C",
"d.	c #51B2F7",
"e.	c #4FB2F7",
"f.	c #91979B",
"g.	c #D5D5D5",
"h.	c #999999",
"i.	c #656565",
"j.	c #3C78C1",
"k.	c #E3EDF7",
"l.	c #6EC2FD",
"m.	c #A0D8FF",
"n.	c #9ED7FF",
"o.	c #9CD3F9",
"p.	c #9CBACD",
"q.	c #C9C9C9",
"r.	c #BDBDBD",
"s.	c #989A9C",
"t.	c #94989A",
"u.	c #B5B5B5",
"v.	c #C2C2C2",
"w.	c #566B8B",
"x.	c #3871BF",
"y.	c #DFEBF5",
"z.	c #68BFFD",
"A.	c #67BDFC",
"B.	c #65BEFB",
"C.	c #64BEFC",
"D.	c #A0A0A0",
"E.	c #A1A1A1",
"F.	c #C4C4C4",
"G.	c #6D6D6D",
"H.	c #3369BC",
"I.	c #EAF1F8",
"J.	c #DFECF7",
"K.	c #DEEBF6",
"L.	c #DEEAF6",
"M.	c #DCEAF6",
"N.	c #A8AEB3",
"O.	c #696969",
"P.	c #CACFD4",
"Q.	c #A2A2A2",
"R.	c #8B8B8B",
"S.	c #C3C6C8",
"T.	c #5E5E5E",
"U.	c #4E5B6F",
"V.	c #3065BA",
"W.	c #3166BB",
"X.	c #3066BA",
"Y.	c #2F65BA",
"Z.	c #2E65B9",
"`.	c #727272",
" +	c #5C5C5C",
".+	c #2E64B9",
"++	c #2C62B7",
"    . + + + + @ # $ % &         ",
"  * = - ; > > > , = ' ) !       ",
"  ~ { ] ^ / ( _ : < [ } | 1     ",
"  2 3 4 5 6 7 8 9 0 a b c d e   ",
"  f 3 g h i 4 j k l m = n o p   ",
"  f q r s t u 6 v 9 w x y z A   ",
"  B C D E F G H I J K L M N O   ",
"  P Q R R S T U V W X Y Z `  .  ",
"  ..+.@.S E E #.$.%.&.*.=.-.;.  ",
"  >.,.T E E E '.).!.~.{.L ].^.  ",
"  /.(._.:.:.L ].<.[.}.|.1.2.3.4.",
"  5.6.7.8.9.0.a.b.c.d.e.f.g.h.i.",
"  j.k.l.m.n.o.p.q.r.s.t.u.v.w.  ",
"  x.y.z.A.B.C.D.q.0.].v.E.F.G.  ",
"  H.I.J.K.L.M.N.O.P.Q.R.S.T.U.  ",
"    V.W.X.X.X.V.Y.Z.`. +.+++    "};
