/* XPM */
static char * app_xpm[] = {
"32 32 307 2",
"  	c None",
". 	c #959594",
"+ 	c #A79015",
"@ 	c #8B7302",
"# 	c #909190",
"$ 	c #B0B0AF",
"% 	c #BABBB7",
"& 	c #BFA925",
"* 	c #886F00",
"= 	c #BFA825",
"- 	c #A9ABA8",
"; 	c #9D9776",
"> 	c #917906",
", 	c #917905",
"' 	c #B9BAB9",
") 	c #D0D1CE",
"! 	c #C3BA8D",
"~ 	c #C5BE9C",
"{ 	c #C2B98D",
"] 	c #C2B88C",
"^ 	c #C3BC9A",
"/ 	c #C0B78B",
"( 	c #C0B78A",
"_ 	c #C0BA97",
": 	c #BEB589",
"< 	c #C3C4C2",
"[ 	c #BFBB9D",
"} 	c #887001",
"| 	c #F0DC47",
"1 	c #919190",
"2 	c #979797",
"3 	c #C6C6C6",
"4 	c #E9E9E9",
"5 	c #D7D7D7",
"6 	c #D6D6D6",
"7 	c #D5D5D5",
"8 	c #D4D4D4",
"9 	c #E5E5E5",
"0 	c #CBC8B8",
"a 	c #886F01",
"b 	c #FCE94F",
"c 	c #BDBFBC",
"d 	c #BDBEBB",
"e 	c #A9AAA7",
"f 	c #C7C7C7",
"g 	c #E7E7E7",
"h 	c #D3D3D3",
"i 	c #D2D2D2",
"j 	c #E3E3E3",
"k 	c #C3C2B9",
"l 	c #785D06",
"m 	c #7F6404",
"n 	c #897001",
"o 	c #896F01",
"p 	c #8A8C88",
"q 	c #A3A5A1",
"r 	c #B2B3B1",
"s 	c #C8C8C8",
"t 	c #E4E4E4",
"u 	c #D1D1D1",
"v 	c #F3F3F3",
"w 	c #F2F2F2",
"x 	c #E8E7E4",
"y 	c #AD9F84",
"z 	c #A28F6E",
"A 	c #E6978C",
"B 	c #A0522D",
"C 	c #8B7408",
"D 	c #91843F",
"E 	c #90823E",
"F 	c #8F823E",
"G 	c #8E813D",
"H 	c #A0A19D",
"I 	c #B4B5B4",
"J 	c #CECECE",
"K 	c #F1F1F1",
"L 	c #F0F0F0",
"M 	c #E5E3DF",
"N 	c #A99A7D",
"O 	c #9C7D41",
"P 	c #C99E4B",
"Q 	c #CFA26C",
"R 	c #A75A40",
"S 	c #A88F71",
"T 	c #F3F3F2",
"U 	c #F2F3F2",
"V 	c #F1F2F1",
"W 	c #D7D7D6",
"X 	c #989898",
"Y 	c #DFDFDF",
"Z 	c #CDCDCD",
"` 	c #C1BFBA",
" .	c #8A7A5B",
"..	c #9B7B3E",
"+.	c #CB9E4A",
"@.	c #BF8C2C",
"#.	c #90681C",
"$.	c #907D5A",
"%.	c #D7D4CC",
"&.	c #F9F9F9",
"*.	c #F8F8F8",
"=.	c #F7F7F7",
"-.	c #9B9B9B",
";.	c #DCDCDC",
">.	c #DDDDDD",
",.	c #CCCCCC",
"'.	c #CBCBCB",
").	c #BBB8B1",
"!.	c #8B7647",
"~.	c #D1AC61",
"{.	c #B98728",
"].	c #8D6820",
"^.	c #9F8F71",
"/.	c #D1CEC9",
"(.	c #D8D8D8",
"_.	c #AAAAAA",
":.	c #B2B2B2",
"<.	c #B1B1B1",
"[.	c #9A9A9A",
"}.	c #DADADA",
"|.	c #C9C9C9",
"1.	c #B1AEA6",
"2.	c #6C5527",
"3.	c #997F46",
"4.	c #8E753F",
"5.	c #918469",
"6.	c #B6B4B1",
"7.	c #C1C1C1",
"8.	c #F6F6F6",
"9.	c #F5F5F5",
"0.	c #EDEDED",
"a.	c #999999",
"b.	c #E2E2E2",
"c.	c #BEBBB3",
"d.	c #C1BDB6",
"e.	c #C3C2C1",
"f.	c #C0C0C0",
"g.	c #E0E0E0",
"h.	c #9E9E9E",
"i.	c #B0B0B0",
"j.	c #AFAFAF",
"k.	c #8B867C",
"l.	c #63460D",
"m.	c #61450F",
"n.	c #64460F",
"o.	c #E6E6E6",
"p.	c #B8B8B8",
"q.	c #F4F4F4",
"r.	c #D4CFC4",
"s.	c #8A754B",
"t.	c #674B17",
"u.	c #AF875F",
"v.	c #F3BAB6",
"w.	c #BC7857",
"x.	c #65470E",
"y.	c #545454",
"z.	c #EAEAEA",
"A.	c #CDC7BA",
"B.	c #836D42",
"C.	c #6B4F19",
"D.	c #B09773",
"E.	c #EAE8E4",
"F.	c #F7B8B7",
"G.	c #FF6666",
"H.	c #F83E3C",
"I.	c #5F420C",
"J.	c #878787",
"K.	c #888888",
"L.	c #C9C1B3",
"M.	c #7F683B",
"N.	c #6D511A",
"O.	c #A98541",
"P.	c #DBB66F",
"Q.	c #D8AA58",
"R.	c #E5CBC6",
"S.	c #DBB0B0",
"T.	c #DF1E17",
"U.	c #844411",
"V.	c #64460D",
"W.	c #DEDEDE",
"X.	c #E8E8E8",
"Y.	c #EFEFEF",
"Z.	c #C4BCAD",
"`.	c #7B6334",
" +	c #70541C",
".+	c #AC8844",
"++	c #DBB56E",
"@+	c #D6A852",
"#+	c #CD952C",
"$+	c #C98F22",
"%+	c #B98771",
"&+	c #82562B",
"*+	c #60420C",
"=+	c #60450E",
"-+	c #ADADAD",
";+	c #ACACAC",
">+	c #ACACAB",
",+	c #938A79",
"'+	c #6D5525",
")+	c #B18D48",
"!+	c #DCB76E",
"~+	c #D5A64E",
"{+	c #CD942A",
"]+	c #C78D21",
"^+	c #9D7019",
"/+	c #785819",
"(+	c #634814",
"_+	c #695428",
":+	c #B9B9B9",
"<+	c #EEEEEE",
"[+	c #BFB6A5",
"}+	c #725A29",
"|+	c #77591F",
"1+	c #B5904C",
"2+	c #DCB46D",
"3+	c #D4A44A",
"4+	c #CC9328",
"5+	c #C58B21",
"6+	c #976C18",
"7+	c #735519",
"8+	c #6C511F",
"9+	c #B0A48C",
"0+	c #B3B2AF",
"a+	c #C2C2C2",
"b+	c #ABABAB",
"c+	c #887C63",
"d+	c #664B14",
"e+	c #B99550",
"f+	c #DCB56B",
"g+	c #D4A246",
"h+	c #CC9225",
"i+	c #C08920",
"j+	c #916717",
"k+	c #6B4E15",
"l+	c #6A5120",
"m+	c #8D836F",
"n+	c #E7E6E5",
"o+	c #ECECEC",
"p+	c #ACA087",
"q+	c #6D5119",
"r+	c #D2C28D",
"s+	c #E4D6A4",
"t+	c #CC9227",
"u+	c #BC851F",
"v+	c #8B6417",
"w+	c #6A4D16",
"x+	c #7C6435",
"y+	c #BFB7A7",
"z+	c #898989",
"A+	c #A9A9A9",
"B+	c #877B62",
"C+	c #6A4F1A",
"D+	c #CCB172",
"E+	c #D6C186",
"F+	c #C7B178",
"G+	c #86611A",
"H+	c #644813",
"I+	c #735D32",
"J+	c #958E82",
"K+	c #A7A7A7",
"L+	c #A6A6A6",
"M+	c #909090",
"N+	c #EBEBEB",
"O+	c #96886B",
"P+	c #5C410C",
"Q+	c #644915",
"R+	c #624611",
"S+	c #634712",
"T+	c #6E5524",
"U+	c #806E47",
"V+	c #ACA79E",
"W+	c #C4C4C4",
"X+	c #D9D9D9",
"Y+	c #D0D0D0",
"Z+	c #8C8C8C",
"`+	c #818181",
" @	c #A4A4A4",
".@	c #93908A",
"+@	c #9C9078",
"@@	c #9E9380",
"#@	c #ABA59B",
"$@	c #B0AEAB",
"%@	c #AEAEAE",
"&@	c #B3B3B3",
"*@	c #BABABA",
"=@	c #C3C3C3",
"-@	c #E1E1E1",
";@	c #868686",
">@	c #797979",
",@	c #DBDBDB",
"'@	c #7E7E7E",
")@	c #707070",
"!@	c #767676",
"~@	c #686868",
"{@	c #6B6B6B",
"]@	c #5B5B5B",
"^@	c #5F5F5F",
"/@	c #4F4F4F",
"(@	c #A5A5A5",
"_@	c #555555",
":@	c #484848",
"<@	c #4E4E4E",
"[@	c #444444",
"}@	c #424242",
"|@	c #434343",
"1@	c #474747",
"2@	c #454545",
"                                                                ",
"    . + @ + + @ + + @ + #                                       ",
"  $ % & * & = * & = * = - ; > > @ , , @ , , @ ,                 ",
"  ' ) ! ~ { ] ^ / ( _ : < [ } } | } } | } } | } 1 # 2           ",
"  3 4 5 5 6 6 7 7 8 8 8 9 0 a a b * * b * * b * c d e           ",
"  f g 8 8 8 8 h h h i i j k l m | n o | o o | o p q r           ",
"  s t h i i u v v w w x y z A B C D D C E F C G p H I 2         ",
"  J v w w K K K L M N O P Q R S v v T T U V K K K w W X         ",
"  7 Y J Z Z Z `  ...+.@.#.$.%.&.&.&.&.*.*.*.*.*.=.*.j -.        ",
"  ;.>.,.'.'.).!.~.{.].^./.(._.:.:.:.<.<.<.<.<.<.<.=.4 [.        ",
"  Y }.|.s 1.2.3.4.5.6.7.6 ;.6 =.=.8.8.8.8.9.9.9.9.8.0.a.        ",
"  b.(.f 3 c.d.e.f.s 8 g.t Y h.i.i.i.i.i.j.j.j.j.j.v K k.l.m.n.  ",
"  9 o.9 9 9 t t j j b.b.b.b.p.q.q.q.q.v v v v w w r.s.t.u.v.w.x.",
"y.(.J J J J J Z Z Z Z Z Z 5 2 z.v w w w w w K A.B.C.D.E.F.G.H.I.",
"  J.J.J.J.J.J.J.J.J.J.J.K.J.2 j K K K K K L.M.N.O.P.Q.R.S.T.U.V.",
"    [.b.W.W.W.W.W.W.>.>.>.Y X.L L L Y.Z.`. +.+++@+#+$+%+&+*+=+  ",
"    <.8.K -+-+-+-+;+;+;+;+;+;+;+>+,+'+ +)+!+~+{+]+^+/+(+_+      ",
"    :+q.L L L Y.Y.Y.Y.Y.<+<+<+[+}+|+1+2+3+4+5+6+7+8+9+0+        ",
"    a+v Y.;+b+b+b+b+b+_._._.c+d+e+f+g+h+i+j+k+l+m+n+L f.        ",
"    |.w <+0.0.0.0.o+o+o+o+p+q+r+s+t+u+v+w+x+y+X.4 4 <+s         ",
"  z+Z L o+A+A+A+A+A+A+A+B+C+D+E+F+G+H+I+J+K+L+L+L+X.0.,.M+      ",
"  J.i <+N+N+N+z.z.o.W.O+P+Q+R+S+T+U+V+W+'.u X+b.g o.z.Y+Z+      ",
"  `+6 0.z.K+K+K+K+ @.@+@@@#@$@%@A+;+&@*@=@'.6 -@9 9 4 7 ;@      ",
"  >@,@N+X.X.X.X.X.g g 9 -@;.(.6 7 5 (.;.-@j 9 t t t g X+'@      ",
"  )@-@X.g g g o.o.o.o.o.9 9 9 9 9 t t t t j j j j j 9 W.!@      ",
"  ~@o.g o.o.9 9 9 9 9 t t t t j j j j j b.b.b.b.b.-@j j {@      ",
"  ]@8.*.*.*.*.*.*.*.*.*.*.*.=.=.=.=.=.=.=.=.=.=.=.=.=.9.^@      ",
"  /@J  @ @ @ @ @ @ @ @ @ @ @ @ @ @ @ @ @ @ @ @ @ @ @(@J _@      ",
"  :@'.,.,.,.,.,.,.,.,.,.,.,.,.,.,.,.,.,.,.,.,.,.,.,.,.3 <@      ",
"  :@[@}@}@}@}@}@}@}@}@}@}@}@}@}@}@}@|@|@|@|@|@[@[@[@[@1@2@      ",
"                                                                ",
"                                                                "};
